<?xml version="1.0" encoding="utf-8"?>
<!-- Generator: Adobe Illustrator 24.0.1, SVG Export Plug-In . SVG Version: 6.00 Build 0)  -->
<svg version="1.1" id="Layer_1" xmlns="http://www.w3.org/2000/svg" xmlns:xlink="http://www.w3.org/1999/xlink" x="0px" y="0px"
	 viewBox="0 0 171.9 286.6" style="enable-background:new 0 0 171.9 286.6;" xml:space="preserve">
<style type="text/css">
	.st0{fill:#FA00FF;}
	.st1{fill:#E86548;}
	.st2{fill:#2FABE8;}
	.st3{fill:#AC32FF;}
	.st4{fill:#FFD643;}
	.st5{fill:#58FF5B;}
	.st6{fill:#808080;}
	.st7{fill:#78BFAB;}
	.st8{fill:#545454;}
	.st9{fill:#989898;}
	.st10{fill:#979797;}
	.st11{fill:#828282;}
	.st12{fill:#9C9C9C;}
	.st13{fill:#7F7F7F;}
	.st14{fill:#969696;}
	.st15{fill:#999999;}
	.st16{fill:#929292;}
</style>
<title>fotomariuhs</title>
<path class="st0" d="M102.5,285.8c-10,0-19.9,0.8-29.9-0.1c-2.6-0.6-5.3-0.2-7.9-0.5c-1.2-0.1-1.8-0.6-1.9-1.8
	c-0.1-1.4-1.7-2.9-0.5-4.2c1.7-1.9,3-4.3,5.3-5.7c0.9-0.5,2-0.6,3-0.3c0.6,0.1,1.2,0.3,1.7-0.2s-0.1-1.1-0.3-1.6
	c-1.1-2-0.5-3.2,1.7-3.8c0.9-0.3,1.9-0.4,2.9-0.3c1,0.2,2.1-0.1,2.8-0.8c-0.1-0.5-0.5-0.8-1-0.8c-2.8,0-4.2-2.5-6.4-3.6
	c-1.1-0.5-0.7-2,0.6-2.9c1.9-1.2,1.8-1.6,0-2.9c-1-0.6-2.2-1-3.4-0.9c-1.4,0-2.5-0.6-2.8-2s0.8-2.2,2.1-2.8c3.1-1.3,3.5-1.6,4.8-4
	c-1.6,0.3-2-1-2.8-1.9c-0.1-0.2-0.2-0.4-0.3-0.6c-0.9-2.9-0.9-2.9,1.7-4.5c0.5-0.2,1-0.3,1.6-0.2c1.4,0.9,2.8-0.2,4.2-0.2
	c3.1,0,6.2-0.3,9.3-1c0.7-0.2,1.3-0.3,2-0.3c3-0.1,3.8,0.6,4.2,3.5c0.1,0.5,0.1,1,0,1.5c0,2.3,0.9,3.2,3.1,3.2
	c1.5,0,3.1-0.1,4.6-0.3c-1.6,0.2-3.2,0.2-4.9,0.2c-1.1,0-1.8-0.3-2.2-1.4c0.3-2.3-0.4-4.5-0.5-6.7c0-2.4,1.1-3.1,3.4-2.1
	c1.1,0.6,2.5,0.5,3.6-0.2c1.7-1,3.3-1.1,4.9,0.3c0.3,0.3,0.6,0.5,0.9,0.6c1.9,0.4,2.5,1.6,2.4,3.4c0.1,0.7-0.1,1.4,0,2.1
	c0-0.1,0-0.2,0-0.2c0-1,0.2-1.9,0.3-2.9c0.8-1.6,2.5-2,4-2c4.7-0.1,9.2-1.5,14-1.2c3.1,0.2,6.3-0.7,9.4-1.1c2-0.2,4.2-0.8,5.3,1.8
	c0.1,3-1.7,5.8-4.5,7c-2.8,1.3-5.3,3.3-7,5.9c-2.5,1.2-3.9,0.4-3.6-2.2c0.2-2.3-1.8-3.1-2.5-4.7c-0.2-0.4-0.8-0.3-1.2,0
	c-0.6,0.4-1.1,1.1-1.2,1.8c-0.1,0.5,0.3,0.8,0.8,0.9c0.2,0.1,0.4,0.1,0.6,0.1c0.8,0.1,1.4,0.7,1.5,1.4c0.2,1-0.4,1.5-1.2,1.9
	c-1.3,0.7-1.2,1.4,0.2,1.9s2.5,1,3.7,1.5c1,0.4,1.9,1.1,1.7,2.3c-0.2,1.4-1.4,1.4-2.4,1.4c-2.5,0.2-5,0-7.5-0.7
	c-2-0.7-4.2,0.1-6.4-0.4c1.2,0.4,2.5,0.5,3.2,1.7c0.2,1.4-0.8,1.7-2.1,2.1c4.2,0.1,8.1,0.2,12,0.6c1.1,0.1,2.4,0.1,2.8-1.4
	c0.8-0.9,1.9-0.7,2.9-0.7c2,0,3.9,0.3,5.7,1c2.1,0.9,4,2.1,5.7,3.6c1,0.9,1.1,3.5,0.8,5.4c0,0.4-0.5,0.8-0.4,1
	c1.1,1.8,1.5,3.4-0.2,5.1c-0.4,0.4,0.5,0.8,1,0.8c1.3,0,2.5,1,2.5,2.4c0,0.2,0,0.4-0.1,0.6c0,0.9,0.3,1.7,1,2.3c1.5,2,1.2,3.2-1,4.2
	l-1.3,0.1c-1.5-1.9-3.9-2.1-6-2.8c-2.3-0.8-4.7-1.4-7-2.1c-1.4-0.3-2.5-1.3-3-2.7c-0.1-0.4-0.1-0.9-0.6-0.8
	c-1.6,0.1-2.5-1.2-3.7-1.9c-3.1-2-6.6-1.5-9.9-1.7c-0.7,0-1.2,0.3-1,1.1c0,0.2,0,0.4,0,0.7c-0.1,1.3,0.5,2.9-1.3,3.4s-2.2-1-2.8-2.2
	c-0.2-0.7-0.9-1-1.6-0.8c-0.2,0-0.3,0.1-0.4,0.2c-1.2,0.7-2.2,1.6-2.9,2.7c-1.2,1.8-2.7,1.7-3.7-0.3c-0.3-0.6-0.6-1.2-0.9-1.8
	c-0.5-1.2-0.3-3-2.6-2.5c-1.3,0.3-2.6,0-3.5,1.4s-2,1.1-3,0.1c-0.3-0.3-0.6-0.7-1.1-0.3c-0.3,0.3-0.4,0.8-0.2,1.2
	c0.1,0.3,0.3,0.7,0.5,1c1.3,2.6,0.9,3.5-2,4.1c-1,0.2-2.1-0.2-3,0.5c0.2,0.9,0.9,0.9,1.5,1.1c1.8,0.6,3.5,1.5,5.3,2.3
	c2.6,1.3,5.7,1.2,8.3-0.1c1-0.5,1.9-0.8,2.6,0.1c0.6,0.5,0.7,1.3,0.3,1.9C103.1,285.6,102.8,285.7,102.5,285.8z"/>
<path class="st1" d="M166.7,133.8c-0.6,1.7-2.1,2.6-3.2,3.9c-0.9,0.4-1.1-0.4-1.5-0.9c-0.2-0.4-0.6-0.7-0.6-1.2
	c-0.1-3.1-1.7-3.9-4.8-2.7c-1.2,0.4-2,1.8-3.5,1.2c-1.9-1.9-1.3-4.6-0.4-6.2c1.4-2.3,1-4.6,1.1-6.9c0-1.4,0.1-2.8,0.4-4.2
	c-0.3,2.4-1,3.2-3,2.8s-2.9-1.6-2.4-3.6c0.7-2.6,0.7-2.9-0.2-4.4c0.3,0.3,0.7,0.7,0.6,1.2c-0.5,1.9-1.9,3.3-3,4.8
	c-0.4,0.6-1.5,0.3-1.7-0.7c-0.2-0.6-0.3-1.1-0.3-1.7c0-1.4,0.2-2.8-0.6-4c-0.3-0.4-0.3-1-0.1-1.5c1-1.6,0-2.3-1.1-3.1
	c-0.9-1-1.7-2-1.3-3.5c0.4-0.9,0.3-1.4-0.8-1.4c-0.7-0.1-1.3-0.5-1.5-1.2c-0.6-2.2-2.4-3.5-3.9-5c-1.2-1.3-2-2.4-0.6-4.1
	c-1.2,0.6-2.7,0.3-3.6-0.7c-1.2-1.2-3.1-1.4-4.1-3c-0.3-0.4-0.8-0.5-1.2-0.3c-1.8,0.7-2.8-0.1-3.5-1.7s-2.3-1.7-3.5-2.5
	s-1.6-2.2-2.5-3.2c-1.5-1.2-1.5-2.9-1.5-4.6c1.3-2.5,1.4-5.2,1.7-7.8c0.1-2.3,1.1-4.5,1.6-6.8c0.3-1.3,0.2-2.7,0.9-4
	c0.9-1.7,1.8-2.9,3.9-2.2c0.5-1.1-0.5-1.8-0.6-2.6c-0.1-1.1,0-2.2,0.5-3.2c0.5-1.1,1.4-2.3,0.5-3.7c-0.3-0.5,0-1,0.3-1.4
	c0.5-0.6,0.6-1.5,0.3-2.2c-0.6-1.6-0.3-3.4,0.6-4.9c0.8-1.4,2.2-1.7,3.2-0.4c0.6,0.9,1.4,1.7,2.3,2.3c0.9,0.5,0.8,1.5,0.9,2.4
	c0.2,2.7-0.3,5.4,0.8,8.1c1.2,3.2,3,6.1,5.5,8.6c0.4,0.4,1.1,0.9,1,1.4c-0.7,2,0.4,4-0.1,5.9c-0.4,1.4-1.2,2.4-2.9,1.9
	c-1.3-0.3-2.6-0.2-3.9,0.1c0,0.9,0.3,1.7,0.9,2.3c1.4,1.6,1.2,4.1-0.4,5.5c-0.2,0.1-0.3,0.3-0.5,0.4c-1.3,1-3.1,1.4-3.6,3.3
	c-0.1,0.6-0.1,1,0.4,1.3c0.9,0.3,1.5,1.2,2.3,1.6c1.6,1.1,3.3,2.1,5,3c1.7,1.1,3.5,2.1,4.2,4.1c1.6,1.7,2.4,4.2,5.1,4.7
	c0.1,0,0.3,0.2,0.3,0.3c-0.5,2.3,1.8,2.4,2.9,3.5c1.5,1.4,2.3,3.5,2.1,5.6c-0.2,1.9,0.8,2.4,2.5,2.6c1,0.1,1.2-0.3,1.3-1.1
	c0.1-1.2,0-2.5,1.5-2.8s1.1,1.5,2,2l0.6,1.8c0.7,2.6,1.1,5.3,1.1,8c0.1,3.5,1.9,6.7,2.5,10.1c0.1,0.6,0.6,1.1,1.1,1.3
	C165.9,126.3,167.2,129.6,166.7,133.8z"/>
<path class="st1" d="M102.5,285.8c-0.1-1.3,0.1-3.1-1.8-1c-0.5,0.4-1.2,0.6-1.9,0.5c-3.2-0.1-6.6,0.6-9.5-1.9
	c-1.5-1.3-3.9-1-5.5-2.3c-0.5-0.4-1.4-0.6-1.2-1.4s1-1,1.8-1.1c1.4-0.2,2.8,0.1,4.2-0.2s1.8-0.9,0.8-2.1c-0.3-0.4-0.6-0.8-0.9-1.3
	c-0.5-0.8-1-1.7-0.2-2.4s1.9-1.9,3.2-1.7c1.9,0.2,0.1,1.7,0.7,2.5c0.8,0.3,0.8-0.4,1-0.8c0.4-1.3,1.8-2.1,3.1-1.7c0,0,0,0,0.1,0
	c1,0.1,1.9-0.1,2.7-0.7c1.2-0.6,2-0.1,1.7,1.2c-0.4,1.7,0.5,3,1,4.4s1.4,1.3,1.8,0.1c0.6-2.3,3.2-2.5,4.3-4.3c0.6-1,1.6-0.3,2,0.7
	s0.8,1.9,1.2,2.9c0.2,0.4,0.5,0.8,1,0.6s0.4-0.6,0.4-0.9c0.3-1.4-0.4-2.8-1.6-3.5c5.6-1.5,11-1.8,15.8,2.1c0.6,0.6,1.5,0.7,2.3,0.3
	c0.8-0.4,1.6-1.4,2.4,0c0.3,0.6,0,1-1.8,2.1c2.7,2.4,6,2.7,9.2,3.5c0.9,0.2,1.9,0,2.5,1c0.4,0.6,1,0.5,1.6,0.3
	c0.8-0.4,1.8-0.2,2.5,0.5c0.8,0.9-0.4,1.6-0.6,2.4c-4.5,0.5-9.1,1.2-13.6,1.4c-6.4,0.4-12.8,1.9-19.2,1.5
	C108.7,286.5,105.6,286.2,102.5,285.8z"/>
<path class="st2" d="M35.1,187.7c-1.1-0.7-2.2-1.2-3.5-1.4c-5.8-1.2-11.2-3-15.8-6.9c-3.1-2.6-6.6-4.8-9.9-7.2
	c-2.2-1.7-4.2-3.6-5.1-6.3c-0.7-1.7,0.2-2.6,1.8-2.8c1.6-0.2,3-0.7,4.3-1.7c0.7-0.5,1.5-0.7,2.3-0.5c3.8,1.1,7.7,2,11.1,4.3
	c2.9,2.1,6.6,2.7,9.7,4.4c0.8,0.5,1.2-0.2,1.1-1c-0.2-1.2-0.9-2.2-1.9-2.9c-2.7-1.9-5.2-4.1-8.8-4.5c-1.7-0.2-3.1-1.4-4.6-2.1
	c-0.9-0.5-1.4-1.5-1-2.5c0.4-1.5,0.4-2.8-0.9-3.8c-0.4-0.4-0.4-1,0-1.4c0,0,0,0,0,0c1.1-1.1,2.5-0.6,3.9-0.8c0.6,0,1.2,0.1,1.8,0.1
	c3.8-0.2,6.2,2.1,8.5,4.6c0.7,0.9,1.7,1.3,2.8,1.2c0.4-0.1,0.7-0.3,0.3-0.7c-0.6-0.4-0.9-1-0.9-1.7c0.4-1.5,0.5-3.1,0.1-4.6
	c-0.4-1.3-0.4-2.7-0.2-4.1c0.2-0.6,0.1-1.3,0.7-1.7c1.3-0.2,1.5,0.8,1.7,1.6c0.9,3.6,1.4,7.4,2,11.1c0.2,1.5,0.3,3,0.6,4.6
	c0.2,2.5,2.6,3.4,4,5c0.1,0.4,0.2,0.8,0.4,1.2c2,2.7,5.3,3.5,7.9,5.2c1,1.3,0.5,2.2-0.7,3c-0.4,0.3-1,0.5-0.8,1.2
	c0.1,0.2,0.3,0.3,0.5,0.3c0.5-0.1,0.9-0.5,1.1-1c0.4-0.9,0.4-2.1,1.7-2.3c0.6,0,1.1,0.2,1.6,0.5c3.2,2.4,2.3,5.6,1.7,8.7
	c-0.2,1.4-1.3,1.8-2.7,1.4c-5.7-1.4-11.2-3.6-16.2-6.6c-0.4-0.3-0.8-0.5-1.2-0.6c-4.4-0.3-7.7-3.4-12-4.6c2,4,5.3,7.2,9.3,9.1
	c2.2,1.1,4.5,2.3,6.8,3.4c1.4,0.4,2.4,1.7,2.4,3.1c-0.1,1.1,0.9,2.2,0.1,3.3c-0.1,0.2-0.3,0.4-0.5,0.5c-0.9,0.2-1.3-0.4-1.4-1.1
	C36.7,189.6,36,188.5,35.1,187.7z"/>
<path class="st3" d="M70.9,244.7c0.9,0.6,1.5,1.4,2.8,0.4c0.7-0.5,1.9,0.4,3.1,1.3c-2.3,0.1-2.9,1.4-3.8,2.8s-2.7,2-4.3,2.6
	c-0.7,0.3-1.6,0.4-1.5,1.4c0.1,0.8,0.8,1.4,1.6,1.3c0.1,0,0.2,0,0.2,0c2.5-0.3,4.1,1.4,6.2,2.2c1.1,0.4,1.5,1.3,0.2,2.1
	c-0.8,0.5-1.3,1.4-2.4,1.6c-0.5,0.1-1.2,0.3-0.9,1s0.9,0.2,1.3,0c1-0.5,1.7-0.2,1.7,0.9c0,1.8,1.3,2,2.6,2.1
	c1.3,0.2,2.6,0.6,3.7,1.4c0.5,0.2,0.7,0.8,0.6,1.3c-0.2,0.4-0.6,0.7-1.1,0.7c-1.8,0.2-3.5,1.2-5.4,0.7c-0.7-0.1-1.3,0-1.9,0.3
	c-1.2,0.5-1.7,1.2-0.4,2c0.6,0.4,1,1.1,0.9,1.9c0.2,2.1-0.1,2.4-2.1,1.9c-0.8-0.2-1.6-0.4-2.4-0.5c-1.4-0.2-2.8,0.8-3,2.2
	c0,0.3,0,0.5,0,0.8c0.1,1.1-0.3,1.6-1.4,1.2c-0.6-0.3-1.4-0.1-1.7,0.6c-0.3,0.5,0.1,4.9,0.7,5.2c1.1,0.4,2.2,1.4,3.4,0.2
	c0.3-0.4,0.9-0.4,1.2-0.1c1,1.1,2.5,0.8,3.7,1.4c-6.5,0.2-13.1-0.5-19.6-0.8c-2-0.9-2.5-2.1-1.4-3.7c0.9-1.4,1.4-3.1,1.2-4.9
	c-0.1-1.6,0.5-3.3,1.8-4.3c1.4-1.2,1.8-3.3,0.9-4.9c-0.6-1.1-0.6-2.4,0.1-3.4c0.4-0.5,0.8-1.2,0.4-1.8c-1.7-2.4,0.4-4.1,0.9-6.2
	c0.1-0.5,0.5-0.8,0.9-0.9c1.3-0.1,1.6-1.1,2.1-2c1.4-1,3.3-0.4,4.6-1.5c1.1-0.5,1.9-1.5,2.2-2.6C67.3,246.8,68.9,245.3,70.9,244.7z"
	/>
<path class="st0" d="M162.6,136.4l0.9,1.3c2.5,7.8,4.9,15.7,6,23.9c0.9,7,2,14,2.4,21c0.1,3.3-0.4,6.5-1.6,9.6
	c-1.4-0.1-2.8,0.3-3.9,1.1c-1.6,1.2-3.2,0.7-3.8-1.2s-2.6-3.1-2.6-5.3c-0.1-0.6-0.2-1.2-0.2-1.8c0.9-4.1,0-8.5,1.3-12.6
	c0.9-1.4,1.5-3,1.8-4.6c0.3-1.2-0.3-2.1-0.7-3.3c-1.2-3-3.4-5.3-4.7-8.1c-1.6-3.3-3.6-6.4-4.5-10c-0.5-2.2-0.5-4,1.3-5.5
	c1.5-1.3,2.9-2.5,4.2-3.9C159.6,135.9,161.3,135.6,162.6,136.4z"/>
<path class="st1" d="M66.4,77.6c0.6-0.6,1.4-1.1,2.2-1.4c1.4,0.9,0.7,2,0.1,2.9c-0.9,1.5-1.4,3.3-1.4,5.1c-0.1,0.7,0,1.3,0.4,1.9
	c0.5,0.7,0.6,1.7,0.3,2.5c-1.3,3.8-0.4,7.3,1,10.8c0.8,1.9,2.7,1.9,4.1,2.4s2.8,0.9,4.2,1.3c1,0.3,1.9,0.6,1.9,1.8s-0.9,1.7-2.1,1.7
	c-1.9-1-4.1-1.3-6.2-0.9c-2.7,0.3-5.4,0.2-8.1,0.6c-1.4,0.4-2.9,0.1-3.9-0.8c-0.4-0.5-1.2-0.6-1.8-0.2c-0.1,0.1-0.1,0.1-0.2,0.2
	c-1,1-2.5,1.1-3.6,0.2c-0.4-0.3-1-0.3-1.4,0c-2,1.6-4,1.1-6,0c-0.9-0.5-1.6-0.7-2.3,0.2c-0.4,0.5-1.1,0.8-1.6,0.5
	c-1.8-1.3-3.9-0.7-5.8-1.1c-2.4-0.5-3.1-2.2-1.4-4c1.3-1.4,2.1-3.3,4.2-3.8c0.2-0.1,0.4-0.2,0.5-0.4c0.6-2.8,3.4-3.8,4.8-5.9
	c0.6-0.8,1.4-1.4,2.3-1.7c3.3-1.1,6.7-1.8,10.1-1.8c0.9,0,1.4-0.1,1.6-1.1c0.1-0.7,0.6-1.2,1.2-1.5c1.2-0.6,2-1.6,2.3-2.9
	C62.4,79.8,64.3,78.7,66.4,77.6z"/>
<path class="st2" d="M161.8,172.5c-0.6,3.9,0.1,7.8-0.7,11.6c-0.5,1.8,0,3.8,1.4,5.1c0.5,0.5,0.9,1.2,1,1.9c0.1,0.6,0.2,1.4,1,1.6
	s1.4-0.4,1.9-0.9c1.8-2.2,2.4-2.1,3.9,0.4c-0.5,3.7-1.5,7.4-3,10.9c-1.9,4.7-3.2,9.7-6,14c-0.7-0.3-1.3-0.7-2,0.3
	c-2.3,2.8-3.9,6-4.9,9.5c-0.3,1.7-1.7,3.1-3.4,3.3c-2.2,0.3-2.8-0.2-2.8-2.4c0-0.4,0-0.7,0-1.1c0.1-1,0.4-2,0.5-3
	c1.5-3.6,1.6-7.7,3.5-11.3c0.5-1,0.3-2.3,0.7-3.5c1.2-3.7,2.1-7.5,2.8-11.3c0.9-5.4,2-10.8,1.7-16.3c-0.2-2.4,0.7-4.7,1.5-6.9
	c0.5-1.6,0.6-3.3,1.2-4.8c0.9-2.3-1-3.8-1.8-5.6c-1.5-3-3.6-5.6-4.3-9c-0.1-0.3-0.1-0.7-0.3-0.8c-2.2-1.8-2.3-4.7-3.6-7
	c-0.9-1.6-0.3-2.9,1.6-3.6c1.8,1.2,1.5,3.4,2.4,5.1c2,3.6,2.8,8,6,10.9c0.7,0.7,1.1,1.6,1.2,2.6c0.1,1.1,0.5,2.1,1.3,2.9
	c0.5,0.4,0.7,0.9,0.6,1.5C162.6,168.5,162.8,170.6,161.8,172.5z"/>
<path class="st3" d="M13.8,152c2.9,1.4,2.9,1.4,2.1,4.5c-0.2,0.8-0.3,1.7,0.5,1.9c1.8,0.6,3.4,1.7,5.3,2.2c4.1,0.9,7.8,3.3,10.2,6.8
	c0.3,0.5,0.5,1.1,0.6,1.7c0.1,1,0.4,2.2-0.7,2.9s-1.8-0.4-2.4-1c-1-1-2.4-1.1-3.6-1.7c-2.3-1.2-4.8-1.8-6.9-3.4
	c-2.8-2.1-6.2-3.3-9.7-3.4c-2.6-0.1-5.4,1.9-8.1,2.9c-0.1,0-0.1,0.4-0.2,0.6c-1.1-1.7-0.8-3.5-0.8-5.4c0.3-0.3,0.5-0.7,0.6-1.2
	c0.3-2.3,1.2-4.6,2.7-6.4c1.5-2,2-4.5,3.4-6.7c2.7-4,5-8.3,6.9-12.8c0.3-1,1-1.8,1.9-2.2c0.5,0,0.9,0.2,1.1,0.6
	c0.7,2.5,2,4.3,4.9,4.5c0.9,0,1.4,1,2.1,1.5c2.8,2.5,2.3,5.4-1.1,6.9c-1.2,0.4-2.3,1.2-3,2.2c-0.8,1.3-2.1,1.2-3.3,1.6
	C14.5,149,13.6,150.1,13.8,152z"/>
<path class="st4" d="M16.1,132.4l-0.6-0.8c-0.3,0-0.6-0.2-0.8-0.5c0.2-1.7,0.7-3.3,1.6-4.8c0.9-1.6,1.3-3.5,2.5-5
	c0.7-0.9,0.3-2,0.6-2.9l0,0c1.1-1.4,1.9-3.1,2.3-4.9l0,0c4.3-6.3,8.2-12.9,11.7-19.7c1-2,3.1-2.4,4.6-3.5c1.3-1,2.8-1.9,4.1-2.8
	c1.5-1,3.2-1.7,5-2.1c1.2-0.2,2.2-0.6,2.4-1.9c0.4-2,2-2.3,3.5-2.5c2.5-0.4,5-0.9,7.4-1.6l5.8-1.8c-2.7,1.4-2.7,4.6-4.2,6.8
	c-0.3,0.5-0.4,1.2-1.1,1.4c-1.4,0.4-1.7,1.3-1.7,2.7c0,1.8-0.9,2.1-2.3,0.9c-0.5-0.4-1.2-0.5-1.9-0.4c-2.9,0.2-5.6,1.3-8.5,1.8
	c-0.1,0-0.1,0-0.2,0.1c-1.4,2.4-4.8,3.1-5.4,6.2C41,98,40.4,98.8,39.5,99c-2,0.2-2.6,2-3.9,3.1s-0.8,2,0.9,2.3s3.8-0.5,5.5,1.1
	c0.6,0.6,0.9-0.4,1.1-1s0.1-1.7,0.9-1.9c1.1-0.2,1.2,0.9,1.6,1.6c1.2,1.9,3.3,2.2,5.7,1.1c0.5-0.2,1-0.9,1.6-0.5
	c1.3,1,3.1,0.9,4.2-0.2c0.5-0.4,1.2-0.4,1.7,0c1.1,0.8,2.4,0.6,3.6,0.7c0,1.3-1,1.4-1.8,1.4c-7.7,0.7-15.3,1.6-23,2.1
	c-2.7,0.2-5.3,0.8-8,0.8c-0.7,0-1.4,0.1-1.6,0.9c-0.7,2-0.3,3.9,0.1,5.9c0.1,0.8,0.2,1.6,0.1,2.4c-0.6,1.7-0.9,3.4-3.3,3.9
	c-1.8,0.4-3.4,5-2.7,7c0.6,1.6,0.2,2.7-1.3,3.1c-0.9,0.3-1.2,1.2-2.1,1.5C17.2,134.5,16.9,133.1,16.1,132.4z"/>
<path class="st3" d="M77.5,106.1c0.6-0.7,1.8-1.2-0.2-1.8c-2.2-0.8-4.7-0.7-6.7-2.2c-0.3-0.2-0.7-0.2-0.9,0.1c0,0,0,0.1-0.1,0.1
	c-0.4,0.5-0.8,1-1.5,0.5c-0.6-0.4-0.8-1.1-0.5-1.8c0.4-1.2,0.1-2.6-0.8-3.5c-0.5-0.7-0.8-1.6-0.7-2.4c0-1.1,0.5-2.3-0.5-3.4
	c-0.6-0.6,0.1-1.2,0.5-1.7c0.8-1.1,1.5-2.3,0-3.5c-0.6-0.4-0.4-1-0.2-1.6c0.3-0.5,0.4-1.1,0.4-1.7c-0.3-1.5,0.1-3,1.2-4
	c0.7-0.8,1.1-1.8,1.1-2.9c0.4-0.2,0.7-0.5,1.1-0.7c1.4-0.8,1.2-1.6-0.1-2.4c-0.7-0.4-1.3-0.9-2-1.3c0-0.2,0.1-0.4,0.2-0.6
	c0.7-1,2-1.2,2.9-0.5c0.2,0.1,0.3,0.3,0.5,0.5c0.6,0.5,1.3,0.9,2,1.3c1.6,0.9,1.7,2.1,0.5,3.4c-0.7,0.8-2,1.3-1,2.7
	c1.6,2,2.5,2.3,4.2,1.4c0.6-0.3,1.2-0.6,1.8-0.1c0.8,1.4-0.2,3.2,1.1,4.6c0.7,2.3,1.6,4.5,2.6,6.6c0.4,0.6,0.6,1.4,0.5,2.2
	c-0.4,0.9-1.1,1.6-2,2c-1.8,1-2.1,2.3-0.6,3.7c1,0.7,1.4,2,0.9,3.1c-0.4,0.8-0.3,1.8,0.1,2.6c1.5,2,1,4.2,0.8,6.4
	c-0.2,0.9-0.1,1.9,0.1,2.9c0.5,1.6-0.3,2.8-1.2,3.9c-1.3,1.5-2.4,0.4-3.3-0.7c-0.6-3.1-0.9-6.2-1.1-9.4
	C76.7,107,77,106.4,77.5,106.1z"/>
<path class="st0" d="M142.2,46.8c0.4,0.7,0.9,1.5,1.3,2.2c0.2,0.3,0.5,0.8,0.3,1c-1.6,1.6-0.4,2.6,0.5,4c0.7,1.1,1.4,2.7-0.2,3.9
	c-3.6,0.6-4,0.3-4.3-3c0-0.2,0.2-0.3,0.1-0.5s-0.3,0.2-0.5,0.2c-1.6-0.7-2.7-3.4-1.6-4.8c1.2-1.5,1.4-3.6,0.6-5.4
	c-0.6-1.5-1.9-2.7-1.8-4.4c0.4-2-1.5-3-1.9-4.5c0-0.2,0-0.4,0.1-0.7c0.8-1.5-0.9-2.5-1-3.8c-0.1-1.3-1.2-2.4-2.6-2.3
	c-0.1,0-0.2,0-0.2,0c-0.8,0-1.6-0.5-2-1.2c-1.2-2.5-3.4-4.1-5.5-5.8c-0.8-0.5-1.3-1.4-1.3-2.4c0-0.7,0.4-1.4,0.1-2.2
	c-1.4,0.5-0.7,2.1-1.7,2.7c-0.3,0.2-0.7,0.2-1,0.2c-1.2-0.6-2.2-1.6-2.8-2.7c-1.4-2.8-4.2-3.9-6.4-5.9c-0.6-0.8-1.4-1.4-2.3-1.6
	c-0.9-0.3-1.8-0.8-1.6-2c0.1-1,1-1.8,2-1.7c0.1,0,0.2,0,0.3,0c1.5,0.2,2.7-0.7,4.1-0.9c1.6-0.7,3.2-1.6,5-0.3
	c0.5,0.2,1.2,0.2,1.7-0.1c0.9,0.6,1.7,0,2.6-0.1c1.8-0.6,2.3,0.4,2.2,2c0,0.7-0.1,1.4-0.4,2c-0.5,1.2-0.2,1.9,0.6,2.9
	c1.1,1.5,1.9,2.9,3.9,2.9c1.5,2.5,4.5,3.4,6.2,5.9c1.2,1.8,2.6,3.4,4,5l0,0c0.6,1.4,0.5,2.9-0.1,4.3c-0.9,1.6-0.4,3.5,1.2,4.5
	c0.1,0,0.1,0.1,0.2,0.1c0.4,0.2,0.3,0.7,0.6,0.9c1.8,1.5,3.1,3.3,2.3,5.9l-0.4,1.3C140.6,43.8,141.8,45.3,142.2,46.8z"/>
<path class="st4" d="M152.3,239.3c0.1,1.3-0.1,2.7-0.7,3.9c-2,4.3-2.5,9-3.3,13.6c-0.6,1.5-1.9,1.7-3.3,1.8c-3.5-1.4-7.3-2-10.7-3.6
	c-1-0.4-1.9,0.1-2.8-0.1c-1.1-0.6-2-1.5-2.7-2.4c-0.7-0.6-0.8-1.6-0.2-2.2c0.1-0.2,0.3-0.3,0.4-0.4c0.3-0.2,0.8-0.2,1-0.5
	c1.9-3.4,5.7-4.6,8.5-6.9c2-1.6,2.6-4.1,3.4-6.4c0.3-0.8,0.3-1.6,1.1-2.1c0.3-0.1,0.7-0.1,1-0.1c2.5,0.8,4.8,1.8,7,3.2
	C151.7,237.5,152.2,238.4,152.3,239.3z"/>
<path class="st4" d="M129.2,250.1c-0.5,2.3,1.6,2.8,2.6,4.1c0.6,0.1,1.1,0.3,1.7,0.5c0.8,0.7,1.8,1.2,2.8,1.5c0.2,0,0.4,0,0.6,0.1
	c1.5,0.7,3.2,1.2,4.9,1.2c0.2,0.1,0.4,0.1,0.5,0.3c0.4,0.6,1,1,1.7,1c2.4,0.1,3.6,1.6,3.9,3.9c0.4,3.3,0.8,6.5,0.9,9.8
	s1.2,6.9,0,10.3c-0.8,0.6-1.8,0.9-2.7,0.7c0.7-0.6,1.2-1.3,0.9-2.3c-0.6-1.8-1.8-3.3-2.2-5.3c-0.2-1.1-1.7-0.8-2.7-0.8
	c-0.6,0-1.4,0.5-1.8-0.3s0.2-1.4,0.7-1.9c0.2-0.3,0.5-0.5,0.8-0.7c1.3-1,2.2-1.8-0.2-2.5c-1.9-0.6-1-1.7,0-2.4
	c1.2-0.8,1.5-1.4,0-2.1c-1-0.5-1-1.1-0.3-1.7c1.8-1.6,0.2-1.5-0.8-1.7c-0.5,0-1,0-1.5,0c-2.7,0-2.8-0.2-1.3-3c-3.2,0.7-6-0.7-9-0.6
	c-1,1.2-2.3,0.6-3.5,0.6c-2.9,0.1-5.6-0.9-8.5-1c-0.6,0-1.1-0.4-1.4-1c-1.7-0.1-3.2-1.1-5-0.6c-0.7,0.2-1.1-0.4-1.1-1.1
	s0.4-1.2,1.2-1.2c3.5,0.2,7-0.5,10.5,0.8c2.1,0.8,4.4,0.2,6.8,0.2c-0.3-1.5-1.4-1.7-2.3-2s-1.6-0.7-2.5-1c-1.3-0.5-3.8-1-3.6-1.8
	c0.4-1.4,2-2.5,4.1-2.6c-0.8-1.4-2-0.7-2.9-1c-0.7-0.3-1.5-0.3-1.8-1.1s0.5-1.1,1-1.6c0.4-0.4,0.8-0.9,1.1-1.4
	c0.5-1.1,1.7-1.8,2.9-1.7c1.4,0.1,1.3,1.2,1.5,2.1c0,0.2,0.1,0.5,0.3,0.6c2.1,0.9,1.9,2.5,1.6,4.4c-0.2,1.4,0.7,1.8,2,1.3
	C129.5,249.4,129.5,249.8,129.2,250.1C129.3,250,129.2,250.1,129.2,250.1z"/>
<path class="st1" d="M113.2,6.2c-1.6,0.5-3.1,1.8-5,1.1c-0.4-0.1-0.8,0.1-0.9,0.5c0,0.1,0,0.2,0,0.2c0,0.5,0.3,0.9,0.8,0.9
	c1.2,0.2,2.3,1,2.8,2.1c-0.3,0.4-0.7,0.7-1.2,0.6c-1.4-0.3-2.7-0.8-4-1c-4.5-0.7-8.3,0.3-11.2,3.9c-1.2,1.1-3.2,1.7-2.6,4
	c-0.2,0.9-0.6,1.7-1,2.5c-1,0.8-2.2,1.4-1.8,3.1c0.1,0.6-0.4,1.2-1,1.5c-0.2,0.1-0.4,0.1-0.7,0.1c-1.4-0.4-1.3-1.6-1.6-2.9
	c-1.1,0.9-2.5,1.3-3.9,1c-1.4-0.2-2.3,0.9-2.9,2.1c-0.4,0.9-0.9,1.7-2.1,1.5c-0.2-0.1-0.3-0.3-0.5-0.4c-2.9-1.6-2.9-1.6-2-4.7
	c0.3-0.4,0.7-0.6,1.1-0.7c1.5,0.2,2.3-1,3.2-1.8c1.3-1.1,2.7-2.1,3.4-3.7c0.1-0.7-0.4-1.2-0.6-1.9c-0.3-1.3,0-1.8,1.3-2.5
	c-1,0.2-1.8,0-2.1-1.1s0.4-1.6,1.2-2s1.7-0.4,2.3-1.1c0.4-0.2,0.8-0.3,1.3-0.1c1,0.9,2,1.4,3.3,0.3c0.5-0.4,1.3-0.2,2-0.3
	c1.8,0,3.5-1.2,3.8-3.1c0.9-3.5,2-4.3,5-2.4c2,1.2,3.2,0.9,4.6-0.6c0.1-0.1,0.2-0.1,0.4-0.1c1.9,1,4.1,1.4,6.2,1.1
	c2.6-0.3,3.2,0.5,2.6,3C113.4,5.7,113.3,6,113.2,6.2z"/>
<path class="st5" d="M139,44.1c1.2,2.1,1.4,4.2-0.1,6.3c-0.9,1.3-0.6,3,0.6,3.9c0.5-0.3,0.7,0,0.9,0.4c0.1,1.7,1.6,2.9,3.3,2.7
	c0.1,0,0.2,0,0.3,0c0.9,0.3,1.5,1.3,1.2,2.3c0,0.9-0.1,1.8-0.2,2.7c-0.9,1.3-1.8,2.6-1.4,4.5c0.3,1.1-0.5,1.6-1.5,1.6
	c-0.9,0-1.8,0.1-2.6,0.2c-1.7,0-3.1,1.3-3.2,3c-0.4,2.1-1.5,3.9-3,5.3c-0.9,1.1-1.8,2.3-2.5,3.6c-0.3,0.3-0.5,0.8-1,0.9
	c-0.9,0-1.8-0.5-2.2-1.3c-1.1-2,0.5-3,1.7-4s2.9-1.8,3.4-3.7c0.1-0.3,0.2-0.7,0.3-1c-0.3-2.6,1.2-3.7,3.4-4.3
	c1.2-0.5,1.8-1.6,1.7-2.9c-0.1-1.5-0.1-3,0.2-4.4c0.4-1.3-0.8-2-1.6-2.7c-3.4-3.6-5.7-7.6-5.9-12.8c-0.1-1.9,0.1-3.2,1.9-4.1
	s2.8-0.7,3.7,1C136.7,42.6,137.7,43.6,139,44.1z"/>
<path class="st1" d="M65,251.9c-1.4,1.1-3.2,0.9-4.9,1.4c-0.8,1.3-2.3,1.8-3.5,2.6c-2.1,1.5-2.5,2.1-1.4,4.3
	c0.6,1.3,0.8,2.3-0.4,3.3c-0.2,0.2-0.5,0.5-0.4,0.7c0.6,2.7-1,5-1.4,7.5c-0.5,3.3-0.1,6.8-1.8,9.9c-0.5,1,0.4,2.3-0.9,3
	c-1.9-0.6-2-2.3-2.1-3.8c-0.2-2.4-0.1-4.7,0.3-7.1c0.5-3.6,0.5-7.3,0.7-11c0.1-2.3,0.5-4.6,0.6-7c0.1-2,1.1-2.5,3.2-1.8
	c-1.3-0.5-1-1.4-0.7-2.4c0.2-2.9-0.5-5.7-1-8.5c-0.6-3.5,0.5-7-0.2-10.4c-0.1-0.4,0-0.8,0.4-1c2.2-1.1,1.3-3.8,2.7-5.4
	c0.3-0.4-0.3-1-0.3-1.5c0.7-2.3,0.5-5,2.4-6.9c1.2-0.2,2.4-0.6,3.2,0.7s0,2.1-0.6,3c-1,1.8-2.1,3.7,0,5.6c0.5,0.5,0.6,1.3,0.3,2
	c-0.4,0.9-0.6,1.8-0.6,2.7c0,0.9-0.6,1.7-1.4,2.1c-2.5,1.4-3.3,5.3-1.4,7.3c1,0.8,1.3,2.2,0.7,3.3c-0.7,1.7-0.1,3.4,0.5,4.9
	c0.3,0.9,1.3,1.4,2.2,1.1c1-0.1,1.9,0,2.9,0.2c0.9,0,1.6-0.9,2.6-0.4C65.2,250.7,65.5,251.1,65,251.9z"/>
<path class="st1" d="M148.8,226.9c0.1,0.9-0.3,2.1,1.1,2.3s3-0.4,3.1-1.9c0.3-3,2.4-5.2,3.4-7.9c0.7-1.9,2.6-3.1,3.3-5.1
	c0.2-0.6,0.9-0.7,1.5-0.4s0.6,0.8,0.5,1.3s-0.3,1.3-0.5,1.9c-2.7,7.3-5.8,14.3-8.8,21.4c-2.5-1.9-5.6-2.9-8.4-4.5
	c0.9-2.4,2-4.7,3.3-6.9C147.8,226.7,148.4,226.6,148.8,226.9z"/>
<path class="st3" d="M60.6,79.4c-2.4,1.3-4.9,2.1-7.5,2.6c-1.1,0.2-2.1,0.6-2.1,1.9c0,1.4-1,2.5-2.4,2.5c-0.1,0-0.1,0-0.2,0
	c-3.2,0.2-5.5,2.1-7.7,4.1c-0.7,0.6-2.7,0.2-2,2.2c0.1,0.3-0.7,0.3-1.2,0.2c-2.1-0.5-3.2,0.6-4,2.4c-1.8,4-3.1,8.3-5.8,11.6
	c-1.8,2.2-3.1,5.2-5.9,6.7c0.3-1.4,0.9-2.8,1.8-4c3.3-5.5,6.1-11.3,10-16.2c5.3-6.8,11.6-12.7,21.1-13.2
	C56.6,80.1,58.6,79.7,60.6,79.4z"/>
<path class="st5" d="M74.9,22.8c0.1,1.1-1.1,3,1.6,2.8c0.7,0,0.5,1.1,0.6,1.7c0.4,1.1-0.5,1.4-1.2,1.8c-1.3,0.7-2.4,1.5-2.4,3.2
	c0,0.5-0.2,0.9-0.6,1.2c-2.1,1.8-2.2,4.4-3,6.9c-0.9,3.2-0.9,6.6-2.6,9.6c-0.7,1.1-0.9,2.4-0.3,3.6c0.3,0.8,0.2,1.6-0.3,2.3
	c-1.8,2-2.2,2.1-4,1c-0.3-0.6-0.3-1.2,0-1.8c1.1-1.1,0.6-2.4,0.2-3.5c-0.4-1.3-0.7-2.7-1.7-3.7c-0.1-0.3-0.2-0.6-0.3-0.9
	c1.1-2.9,1.5-5.9,2.4-8.8c1.2-0.5,2-1.5,2.2-2.7c0.2-0.8,0.3-1.6,1-2.1c2.3-0.4,1.9-2.8,3-4.1c1.2-1.2,1.8-2.9,1.8-4.6
	C71.5,22.9,73.4,22.2,74.9,22.8z"/>
<path class="st1" d="M50.3,284.5c-0.8-1.9,0.4-3.5,0.4-5.2c0.1-2.9,1.5-5.5,1.1-8.4c-0.2-0.7-0.1-1.5,0.3-2.1
	c1.2-1.3,1.3-3.3,0.4-4.8c-0.4-0.8-0.2-1.2,0.7-1.4c1.9-0.4,1.8-1.2,0.8-2.6c-1.6-2.3-0.6-4.6,2.1-5c1.5-0.2,2.3-2,4-1.8
	c0.1,1,1.1,1.6,1.4,2.4c-0.2,0.1-0.3,0.3-0.4,0.3c-1-0.1-2.8-0.5-2.9-0.2c-0.6,1.3-1.4,2.4-1.9,3.7s0.4,2,1.2,2.7s1.3,1.3-0.2,1.8
	s-1.6,1.3-0.7,2.6c1.1,1.5,0.4,5.1-1,6.3c-0.8,0.5-1.4,1.3-1.6,2.3c-0.1,2.5,0.2,5-1.6,7.2c-0.6,0.8,0,1.8,0.7,2.6
	C52.2,285.1,51.2,285,50.3,284.5z"/>
<path class="st4" d="M156.8,103c-0.8-0.1-1.1-0.9-1.8-1.4c-0.9,1.4-0.4,3-0.8,4.3c-0.1,0.6-0.1,1.2-0.8,1.5c-0.8,0.3-1-0.2-1.2-0.9
	s-0.7-0.7-1.2-0.5c-2.2,0.7-2.6-0.7-2.6-2.3c0-1.8,0.2-3.7-0.8-5.4c-1.1-1.9-2-2-3.4-0.1c-1.1-1.4-2.3-2.6,0-4.4
	c-3.8,0-4.3-2.9-5.6-5.1c0.5-2.9,1-3,3.7-1.7c2.8,1.2,4.9,3.6,5.8,6.5c0.1,0.4,0.3,1,0.8,1.1c2.3,0.5,3.5,3,5.8,3.4
	C155.7,99.5,156.4,101.2,156.8,103z"/>
<path class="st5" d="M138.6,25.4c-1-0.5-2-1-2.2-2.3c-0.1-0.7-0.6-0.9-1.3-1c-0.6-0.1-1.1-0.4-1.4-1c-0.7-1.7-1.6-3.1-3.8-3.2
	c-0.7-0.1-1.2-0.6-1.4-1.3c-0.5-1.2-1-1.5-2.2-0.7c-0.9,0.6-1.6,0.2-1.8-0.9c-0.2-1.4-0.4-2.7-2.3-3c-1-0.2-0.8-1.2-0.3-1.8
	c0.8-1.1,0.6-2.6,1.1-3.8c0.4-1-0.3-1.3-1.1-1.5c2.9-0.8,5.1,0.8,7.3,2.2c0.5,0.3,1,0.9,1.7,0.9c2.1,0.9,2.7,2.9,3.6,4.7
	c0.4,0.8-0.2,1.6-1.2,1.7c-2,0.2-1.9,1.2-1.1,2.5C134.7,19.6,137.6,21.8,138.6,25.4z"/>
<path class="st5" d="M67.3,33.9c-0.2,0.7-0.5,1.4-0.6,2.1c-0.4,1.6-1.1,2.5-2.9,2.4c-0.2,0.1-0.4,0.2-0.6,0.2
	c-1.1-1.1-1.1-2.4-0.8-3.8c0.1-1.1,0.4-2.1,0.9-3.1c0.7-0.8,1.1-1.9,1.2-2.9c0.2-2.5,1.4-4.7,2.7-6.9c1-2,2.5-3.7,4.4-5
	c1-0.7,0.7-1.8,0.1-2.8c-0.3-0.5-1.2-0.7-0.8-1.6l4-2.3c1.4,0.7,3.2,0.1,4.6,1c0.8,0.5,1.8,0.9,1.8,2s-0.7,1.7-1.5,2.5
	c-1.8,1.7-4.5,2-5.9,4.2c-0.5,0.8-1.4,1.3-1,2.4c0.1,0.4-0.2,0.9-0.5,1.2c-0.9,1-2.2,1.8-1.3,3.5c0.2,0.3-0.4,0.7-0.6,1.1
	c-0.9,1.2-1.6,2.7-1.9,4.2C68.3,33,68.1,33.7,67.3,33.9z"/>
<path class="st0" d="M67.3,33.9c0.1-2.2,0.5-4.3,2.2-6c0.6-0.6,0.4-1.2-0.1-1.9c-1.4-1.8-1.1-2.3,1.1-2.5c0.6-0.1,1.2-0.1,1.4-0.8
	S71.4,22,71,21.7c-1.1-0.7-0.4-1.4,0.3-1.8c2.6-1.3,5.1-2.8,6.7-5.3c0.1-0.1,0.2-0.2,0.3-0.3c0.5-0.6,2.3,0.4,1.8-1.1
	c-0.4-1.1-1.8-1.8-3.1-2.1c-0.8-0.2-2.1,0.4-2.2-1.1l1.3-0.3c1.4-0.2,3,0.5,4.1-1l3-0.8c0.3-0.2,0.8-0.2,1.1,0.1
	c-0.5,0.2-1,0.4-1.4,0.6c-0.8,0.4-1.4,1-1,1.9c0.5,1.1,1.1,0.1,1.8-0.1c1.9-0.8,1.8,0.7,2.2,1.7c-0.4,0.7-0.9,0.2-1.2,0.2
	c-0.6,0-1.4-0.4-1.8,0.3c-0.3,0.6-0.2,1.4,0.4,1.8c0.5,0.6,0.3,1.1-0.2,1.5c-1.9,1.2-2.7,4-5.6,4c-1.2,0-0.8,1.7-1.6,2.2l-0.9,0.5
	c-1.6,0.5-2.9,1.2-2.2,3.3c0.1,0.3,0.1,0.7,0,0.9c-2.2,1.8-2.5,4.8-4.3,7C68.1,34.1,67.6,34,67.3,33.9z"/>
<path class="st4" d="M166.7,133.8c0.7-3.4-1.7-5.5-3.5-7.8c-0.1-0.1-0.2-0.3-0.4-0.3c-3.2,0-2.8-2.6-3.5-4.6
	c-1.9-4.9-2.1-10-2.3-15.1c-0.1-0.4,0-0.9,0.3-1.3c4.3,7.9,7.4,16.3,9.5,25C167.1,131.1,167.4,132.5,166.7,133.8z"/>
<path class="st3" d="M49.4,239.8c-1.5-9.6-1.3-19.4,0.6-28.9c1-4.4,1.4-8.9,1.2-13.4c-0.4-1.7,0.6-1.8,1.8-1.7
	c1.9,1.2,2.2,3.1,2.4,5.1c-0.1,0.7-0.6,1.4-1.3,1.6c-0.4,0.1-0.9,0-1,0.8c-0.2,3.5,0.3,7,0,10.6c-0.1,0.8,0.6,1.3,0.8,2
	c-0.3,1.8-0.6,3.7-1.1,5.5c-0.2,1-0.7,2-1.4,2.7c-0.8,0.9-1.4,2.1-1,3.3c1.3,3.5,0.7,7.1,0.7,10.7c0,1.3,0.2,2.5,0.4,3.8
	c0.2,0.9,0.8,2.2-0.7,2.8c-1.6-0.6-0.5-2.2-1.1-3.1C49.4,241,49.9,240.3,49.4,239.8z"/>
<path class="st0" d="M53.5,196.6c-0.9-0.1-1.8-0.3-2.2,0.9c-1-0.8-2.2-1.3-3.4-1.3c-0.7,0-1.3,0-2,0c-9.9,0.2-8.5-0.6-10.7-8.4
	c1.6-0.1,2.4,0.5,2.6,2.1c0.1,0.6,0.3,1.2,0.6,1.8c3.9-0.3,7.8-1,11.6,0.2c2.1,0.6,3.9,1.9,5.9,2.9c1.4,0.7,1.9,1.8,1.1,3.2
	C55,199.3,54.6,197.1,53.5,196.6z"/>
<path class="st5" d="M104.3,1.4c-1.4,3.2-1.4,3.2-4.6,1.5c-2.3-1.2-3.5-0.6-3.7,1.9c-0.1,1.5-1.5,2.1-2.2,3.2
	c-0.9,1.5-1.8,1.3-3.1,0.8c-1-0.4-1.9,0.2-2.7,0.6c-1.5,0.8-2.2,0.4-2.3-1.2c0.7-1.6,0.9-3.7,3.4-3.7c0.7,0,0.8-0.8,1.1-1.3
	c1.8-3.1,5.8-4,8.9-2.2C100.5,1.9,102.5,2.1,104.3,1.4z"/>
<path class="st0" d="M154.5,98.1c-0.5,0.1-1,0.3-1.4,0.5c-1.3,0.9-2,0.6-2.3-0.9c-0.2-1-0.5-2-1.9-1.1c-0.8,0.4-1.1-0.3-1.3-0.8
	c-0.5-1.2-0.9-2.3-1.2-3.5c-0.9-2.7-3-4.1-5.4-5c-1.4-0.6-1.4,1.3-2.4,1.5c-2.6-2.8-5.6-5.2-8.9-7.1c0.2-0.4,0.5-0.8,1-0.9
	c1.1,1.1,2.5,1.9,4,2.2C142.9,85.5,149.9,90.9,154.5,98.1z"/>
<path class="st0" d="M70.8,12.5c4,3,4,3.4,0,6.6c-2,1.6-2.6,4.2-3.9,6.3s-1.3,4.9-3.6,6.3c0.3-1.6,0.4-3.2,0.3-4.8
	c-0.3-3.5,1.7-6.3,3.3-9.2c0.5-0.9,1.1-1.7,1.7-2.6c0.8-0.4,1.4-1.2,1.4-2.2L70.8,12.5z"/>
<path class="st4" d="M148.9,282.7c0-1.5,0.4-3.1-1.1-4.3c-0.2-0.2-0.3-0.5-0.2-0.8c1.8-3.2-0.8-6.6,0.5-9.8c0.1-0.3,0-0.6-0.1-0.8
	c-1.5-1-1.1-2.5-1-3.8s0-2.4-1.7-2.4c0.5-1.7-0.8-1.3-1.7-1.4c-0.6-0.1-2.4,0.7-1.4-1.3c0.8-0.9,1.8-0.2,2.7-0.4l3.5-0.9
	c0.6,6.8,1.2,13.7,1.9,20.5C150.5,279.2,150.1,281.2,148.9,282.7z"/>
<path class="st5" d="M132.3,17c-1.4-0.7-1.1-1.9-0.8-3.1c0.4-1.4,1.5-0.1,2.4-0.7c-1.5-1.4-1.8-3.5-2.9-5.1c1.1,0,2.2,0.5,3,1.3
	c1.3,1.2,2.7,2.1,4.2,2.8c1.6,0.9,2.8,2.4,3.3,4.2c0.2,0.7,0.4,1.5-0.3,2c-0.7,0.4-1.6,0.2-2.1-0.5c0,0,0-0.1-0.1-0.1
	c-1.2-1.7-2.9-2-4.7-2.5C132.7,15,132.3,15.5,132.3,17z"/>
<path class="st5" d="M15.1,131.1l0.4,0.5C12.8,137,9.2,142,7,147.5c-1.8,4.4-5.7,7.6-6.4,12.4c0,0.2-0.4,0.4-0.6,0.6
	c0.6-4.6,2.3-8.9,4.9-12.7c3.4-5.5,6.5-11.3,9.3-17.1C14.6,130.6,14.9,130.8,15.1,131.1z"/>
<path class="st0" d="M67.6,71.9l-3.9-2.3c-0.9-2,0.8-3.4,1.4-5c0.6-1.1,0.9-2.3,0.9-3.5c-0.1-1,0.1-2.1,1.5-2.4c0.2,0,0.5,0,0.7,0
	c1.1,0.1,1.3,1.1,1.7,1.8c0.3,0.7,0.8,1.4,1.4,1.9c1.5,2.5,0.7,5.7-1.7,7.2c-0.1,0-0.1,0.1-0.2,0.1c-0.8,0.5-1.1,1.3-1.7,2
	L67.6,71.9z"/>
<path class="st5" d="M139.5,35.7c-0.4-0.7-1.2-1.1-1.7-1.8c-0.9-1.2-2.7-2.1-0.7-4.3c1-1.2,1.5-2.7,1.5-4.3l4.9,9.4
	c0.4,0.6,0.2,1.3-0.4,1.7c-0.1,0.1-0.2,0.1-0.3,0.1c-0.6,0.3-1,0-1.5-0.4S140.3,35.1,139.5,35.7z"/>
<path class="st1" d="M53,251.4l1.7,1.3c-0.5,0.8-1.3-0.1-1.8,0.4c0.6,0.8,1.6,0.7,2.3,1.1c-0.1,0.1-0.2,0.2-0.2,0.2
	c-3.7,0.1-3.1,0.3-4.2,3.8c-1.5,4.8-1.1,9.6-1.8,14.4c-0.1,0.3-0.2,0.7-0.4,1c0.1-7.1,0.4-14.3,0.1-21.4c0.7-1.3,2.2-1.9,3.6-1.5
	C52.5,251,52.8,251.2,53,251.4z"/>
<path class="st3" d="M144.9,62.5c0.2-1.8-1.4-3.2-0.9-5c0.3-1.6-0.5-2.8-1.5-4c-1-0.9-1.7-2.1-2.1-3.4c1.3,0.3,2.7,0.7,3.1-1.1
	c0.9,0.9,1.9,1.8,2.8,2.8c0.6,0.6,1.1,1.5,0.6,2.2c-1.6,2.4-1.1,5.1-1.7,7.7C145.2,62,145,62.3,144.9,62.5z"/>
<path class="st5" d="M113.2,6.2c-0.2-0.4-0.3-0.8-0.4-1.3c-0.3-1.9-1.8-2.9-3.3-1.9c-1.9,1.3-2.7,0.3-3.8-0.9
	c-0.4-0.4-0.7-0.7-1.1-1c4,0.8,8.6-0.6,12.1,2.8c0.8,0.6,1.7,0.9,2.7,0.8L113.2,6.2z"/>
<path class="st0" d="M67.7,59.3c-0.5,0.6-1.1,1.1-1,1.9c0.4,2.5-1.5,4.1-2.3,6.1c-0.4,0.7-0.6,1.5-0.7,2.2c-0.9-1.1-0.6-2.2,0-3.3
	s1-2,1.4-3c1.1-2.8-0.2-4.9-2.3-6.7c1.6,0.7,2.3-1,3.6-1.3c0.2-0.2,0.5-0.2,0.7,0C68,56.5,69.1,57.7,67.7,59.3z"/>
<path class="st1" d="M15.1,131.1l-0.9-0.5c0.9-4.4,3.2-8.2,5.3-12.1c0.9,1.2,1.1,2.4-0.2,3.6c-0.4,0.4-0.6,1-0.6,1.6
	c0,0.4,0.1,0.9,0,1.1C16.7,126.4,17.2,129.5,15.1,131.1z"/>
<path class="st1" d="M52.1,251.4c-1,0.8-2.3,1.1-3.5,0.9c1.1-4.1,0.9-8.3,0.8-12.5c0.7,1.4,1.2,2.9,1.4,4.5
	C52.5,246.4,52.1,248.9,52.1,251.4z"/>
<path class="st0" d="M63.3,38.4h0.5c-0.2,3,0.1,6.1-2.3,8.5c-1.2-0.9-1.7-2.4-1.2-3.8c0.2-0.8,0.4-1.7,0.7-2.5c0-0.1,0-0.2,0.1-0.3
	C62,39.8,61.8,38.1,63.3,38.4z"/>
<path class="st0" d="M90,3.1c0,0.7-0.2,1.4-0.9,1.6c-1,0.3-1.7,1.2-1.7,2.2c-0.1,1-0.9,1.4-1.9,1.1h-1.3L83.2,8
	c0.5-0.4,1-0.9,1.4-1.4C85.2,5,86.8,4,88.5,3.9C89,3.9,89.5,3.4,90,3.1z"/>
<path class="st3" d="M139.5,35.7c0.1-0.8-0.2-1.6,0.6-2.2c2.4,2.6,2.4,2.6,3.4,1.3c1,2.3-0.7,4.2-0.9,6.3
	C142.9,38.5,141.1,37.1,139.5,35.7z"/>
<path class="st5" d="M63.3,38.4c-0.6,0.8-0.6,2.3-2.2,1.8c-0.1-1.9,0.4-3.8,1.3-5.4C62.2,36,64,36.9,63.3,38.4z"/>
<path class="st0" d="M144.4,234c2.8,1.4,6,2,8.1,4.6l-0.1,0.8c-2.3-2.5-5.5-3.3-8.4-4.8c-0.1-0.1-0.2-0.2-0.1-0.3
	c0-0.1,0-0.2,0.1-0.2C144,233.9,144.2,233.9,144.4,234z"/>
<path class="st5" d="M61,40.5c0.3,2.1-0.9,4.3,0.5,6.3v0.9c0.1,0.1,0.2,0.3,0.1,0.5c0,0-0.1,0.1-0.1,0.1
	C59.4,45.8,58.9,43.2,61,40.5z"/>
<path class="st0" d="M61.4,48.3c0-0.2,0.1-0.4,0.1-0.6c1.5,1.6,1.9,3.6,2.4,5.6c0.2,0.9-0.1,1.4-1.1,1.5
	C63,52.6,62.5,50.3,61.4,48.3z"/>
<path class="st5" d="M70,13c0.6,0.5,1,1,0.3,1.6c-0.5,0.6-0.9,1.4-0.9,2.2c-0.9-0.4-0.6-1.1-0.8-1.7C68.7,14.2,69.2,13.5,70,13z"/>
<path class="st6" d="M21.8,113.6c0.4,2-0.5,3.9-2.3,4.9C20,116.8,20.8,115.1,21.8,113.6z"/>
<path class="st7" d="M142.2,46.8c-0.3-0.7-0.6-1.3-1-1.9c-1.3-1.6-0.5-2.2,1.1-2.5C142,43.9,141.9,45.3,142.2,46.8z"/>
<path class="st5" d="M80.2,8.8c-0.9,2.2-2.5,1.6-4.1,1L80.2,8.8z"/>
<path class="st5" d="M143.9,234.1v0.4H143c-0.7,0.3-0.9,1-1.2,1.6s-0.5,1.4-1.5,1.1c-0.9-2.1-2.8-1.4-4.2-1.1c-3.1,0.7-6.4,1-9.6,1
	c-3.7,0-7.2,1-10.8,1.2c-2.3,0.1-4.5,0.1-6.6,1.1c-0.4,0.6-0.6,1.6-1.7,0.9c0-1.4-0.4-2.3-2.1-2.1c-0.5,0.1-1.1-0.1-1.3-0.6
	c-0.9-1.9-2.2-1.5-3.4-0.5c-1.3,1.3-3.3,1.3-4.6,0c-1.1-0.9-1.7-0.6-1.7,0.8c0,2.3,0.5,4.5,0.2,6.8c-0.9,0.3-1.2-0.3-1.4-0.9
	s-0.5-1.4-1.2-1.7c-0.2-2.6-0.6-3-3.3-2.8s-5.1,1-7.7,1.1s-5.1,0.2-7.7,0.4c-0.7-1.3,0.3-1.9,1.1-2.5c1-0.5,1.4-1.7,1-2.7
	c-0.1-0.1-0.1-0.2-0.2-0.3c-1.2-2.3-2.5-4.2-5.6-3.7c-0.7,0.1-1.4,0-2-0.2c-0.9-0.2-1.6-1-1.6-1.9c-0.1-0.9,0.5-1.8,1.5-1.9
	c0,0,0,0,0,0c1.9-0.2,2.4-1.2,2-2.9s0.6-2.9,1-4.3c0.7-3.3,0.7-6.8,3-9.6c1.2-1.4,0.5-2.8-1-3.7c-1.2-0.7-1.7-2.1-1.4-3.5
	c0.4-1.5,1.9-2.4,3.5-2.1c1,0.7,2.3,0.5,3-0.4c0.1-0.1,0.2-0.2,0.2-0.3c1.3-2.2,2.8-1.6,4.6-1.1c2.2,0.5,4.6,1,6.8-0.2
	c0.3-0.3,0.5-0.6,0.5-1c0.3-1-0.6-1.5-1.1-2.1c-0.6-1.3-0.6-2.4,1-3c0.6-0.2,0.9-0.8,1.4-1.1c0.4-0.1,0.7-0.5,0.7-0.9
	c0.5-1.2-1-1.7-0.9-2.8c-0.1-1,0.6-1.6,1.1-2.3c0.3-0.2,0.6-0.4,0.9-0.6c0.2-0.1,0.4-0.2,0.7-0.2c0.5,0.1,0.9,0.3,1.2,0.7
	c0.1,0.2,0.2,0.4,0.3,0.6c0.3,0.9,1,0.9,1.8,1c3.5,0.1,7,0.1,10.6,0.2c2.7,0,5.3-0.5,8-0.1c0.8,0.2,1.7-0.1,2.3-0.7
	c0.2-0.1,0.3-0.3,0.5-0.4c1.1,0,2-0.8,2.1-1.9c0-0.2,0-0.5-0.1-0.7c-0.6-3.3-0.5-6.8-1.9-10c-0.7-1.6-0.1-3.4-0.5-5.1
	c-0.2-1-0.4-2-0.5-3c0-0.7,0.1-1.3,0.4-1.9c1.2-1,1.9-2.5,1.9-4.1c0-1.7,1.5-2.5,2.6-3.4c0.9-0.7,1.9,0,2.3,1
	c1.5,3.6,3.5,6.9,3.3,11.1c-0.2,2.1,0.6,4.2,2.2,5.6c0.9,0.7,0.8,1.6,0.7,2.6c-0.3,3.2-0.1,6.2,2.2,8.8c0.5,0.6,0.7,1.4,0.5,2.1
	c-0.6,2.2-0.2,4.5,1.1,6.4c0.3,0.5,0.5,1.1,0.5,1.7c0.4,6.5,1.5,13,3.4,19.2c0.6,2,1.4,3.9,2,5.9c0.5,1.6,0,3.2,0.7,5
	c1-1.1,0.9-2.4,1.3-3.4s0.2-2.8,2-3.1c0.5,0,0.9,0.3,1.1,0.7c1,1.1,0.9,2.3,0.7,3.8c-0.3,2.9-1.9,5.4-1.8,8.3
	C144.3,232.8,143.8,233.4,143.9,234.1z"/>
<path class="st4" d="M73.5,202.4c-2,1.1-2.1,2.6-0.2,3.8c2.3,1.5,2.8,3.3,1.1,5.3c-2.4,2.7-2.2,6-2.8,9.1c-0.5,2.2-1.2,4.4-0.9,6.8
	c0.2,1.2-1.2,1.3-2.2,1.2c-0.6,0-1.6-0.4-1.6,0.6s0.8,1.1,1.6,1.2c1.2,0.2,2.4,0.1,3.5-0.3c0.9-0.4,1.6-0.2,1.9,0.8
	c0.5,1.7,1.7,2.9,2.7,4.2c1.2,1.6,0.7,2.6-0.7,3.4c-1,0.6-2.2,1-2.8,2.1h-1.3c-2.6,0.7-5.2,1.7-7.7,2.8c-1.7,0.2-3.4,0.8-5.2,0.4
	c-2-0.4-2.4-1.5-1.2-3.1c1.4-1.9,1.4-1.9-0.8-3.1c-1.6-1-1.8-2.6-0.2-3.4c0.9-0.4,1.6-1.3,1.7-2.4c0.4-2.3,1.4-4.2,3.7-5.1
	c0.5-0.2,1.1-0.5,1.1-1c0.1-2.8,2.7-4.5,3.2-7.2c-0.6-0.5-1.4-0.8-2.1-0.8c-2.6-0.4-3.8-3-2.1-5c2.7-3.2,2.4-6.8,1.5-10.4
	c-0.2-0.9-0.5-1.7,0.6-2.2c0.2,0,0.5,0,0.7,0c2.2,0.8,4.6,0,6.7,1C72.4,201.4,73.3,201.4,73.5,202.4z"/>
<path class="st0" d="M105.5,263.4c-2.4-0.2-4.6-1.1-6.9-1.7c-0.1,0-0.3-0.1-0.4-0.2c-1.1-2.3-3.2-2.7-5.4-3c-0.5-0.1-1.1-0.4-1-1
	c0.1-0.8,0.9-0.6,1.4-0.6c1,0,1.9-0.1,2.9-0.2c2.5-0.7,4.5-0.8,5,2.5c0,0.3,0.6,0.8,0.7,0.7c2-0.9,4.5,0.4,6.2-1.4
	c0.5-0.6,1-0.8,1.3,0C110,260.1,107.3,263.5,105.5,263.4z"/>
<path class="st4" d="M115.4,256.8c4.5-0.1,8.9,0.9,13.4,1.3c0.3,0.4,1.1,0.7,0.9,1.4s-0.9,0.8-1.5,0.8c-3.2,0-6.5,0.1-9.7-0.3
	c-1.8-0.2-3.6,0-5.3-0.2c-1.1-0.1-2.5-0.1-2.4-1.6c0.1-1.3,1.5-0.9,2.4-0.9S114.8,257.4,115.4,256.8z"/>
<path class="st4" d="M129.6,267.1c-1.2,1.1-2.9,1.3-4.4,0.7c-3-1-6.3-0.8-9.4-1.6c-0.7-0.2-1.7,0-1.7-1s1-1.2,1.8-1.2
	c1.4-0.1,2.8,0,4.2,0.1c0.9,0.2,1.9,0.1,2.8-0.2c0.6-0.3,1.4-0.2,1.5,0.4c0.5,2.7,2.5,2.5,4.5,2.5
	C129.1,266.7,129.3,266.9,129.6,267.1z"/>
<path class="st1" d="M140.4,237.1c0.9-0.9,1.1-2.4,2.7-2.7c-1,5.5-4.7,10.1-9.8,12.3c-1.6,0.8-2.1,3-4.1,3.2c0-0.3,0-0.6,0-0.9
	c2.1-3.6,5.5-5.5,8.9-7.4C140.1,240.8,139.8,238.8,140.4,237.1z"/>
<path class="st2" d="M91.8,242.1c1.2-1.1,1.9-0.9,2.2,0.8c0.1,0.6,0.3,1.3,0.5,1.9c0.9,1.2,2.1,0.8,3.3,0.9c1.8,0,3.5,0,5.3,0
	c0.5,0,1.1,0.1,1.1,0.8c0,0.5-0.5,0.6-0.9,0.5c-3.2-0.6-6.3,0.4-9.5,0c-1.1,0-2-0.8-2-1.8c0-0.1,0-0.2,0-0.3
	C91.8,243.9,91.8,243,91.8,242.1z"/>
<path class="st3" d="M63.7,242.9c0.1-0.3,0.2-0.7,0.4-0.7c2.5-0.9,4.8-2.3,7.6-1.5c-2,0.8-0.6,2.4-0.9,3.6c-0.9,1.9-2.4,0.8-3.7,0.9
	s-2.9,0.6-3.7-1.1C63.3,243.7,63.4,243.2,63.7,242.9z"/>
<path class="st1" d="M67.7,244.3c0.3-0.4,0.7-1.1,1-0.4c0.6,1.2,1.4,0.5,2.1,0.4c0,0.1,0,0.3,0,0.4c-0.5,0.9-0.2,2.4-2.1,2.2
	c-0.7-0.1-0.9,1-1.2,1.7c-0.5,1.3-1.4,2.5-2.5,3.2c-0.1-0.4-0.5-0.7-0.9-0.9c-0.3-0.3-0.3-0.7-0.1-1
	C65.4,248.1,66.1,245.9,67.7,244.3z"/>
<path class="st2" d="M112.8,241.2c1,0.1,2.1,0.3,1.9,1.6c-0.1,1.2-1,2.1-2.2,2.1c-1.4,0-1.6-1.5-1.7-2.5
	C110.8,241.2,112,241.3,112.8,241.2z"/>
<path class="st0" d="M107.4,240.3l1.7-0.9v3.6c-0.4,0.8-0.6,1.8-1.8,0.9L107.4,240.3z"/>
<path class="st2" d="M107.4,243.8c0.7,0,1.3-0.4,1.8-0.9c0,0.4,0,0.9,0,1.3c-0.1,0.7-0.4,1.4-1.2,1.1S107.1,244.5,107.4,243.8z"/>
<path class="st1" d="M132.1,263.1c1.1-0.8,1.8-0.3,2.7,0C133.6,264,133.6,264,132.1,263.1z"/>
<path class="st3" d="M143.9,219.8c-0.5,2.2-1.1,4.5-1.6,6.7c-0.2,1-0.6,2-1.8,1.9s-1.1-1.3-1.3-2.1c-0.4-1.7,0.2-3.4-0.5-5.2
	c-1.5-4.2-2.8-8.5-3.7-12.9c-0.3-1.6-0.6-3.2-0.7-4.8c-0.5-4.7-1.5-9.4-2.9-14c-0.3-0.5-0.2-1.2,0.2-1.6c0.4-0.4,0.4-0.8-0.1-1.3
	c-2.4-2.8-2.5-6.3-2.4-9.8c0-0.5,0.4-1.1-0.1-1.4c-2-1.1-1.8-3.4-2.8-5.1c-0.2-0.3-0.2-0.7-0.2-1.1c0.5-2.1-0.2-4-1.1-5.9
	c-0.6-1.2-0.8-2.9-1.3-4.3c-0.2-0.5-0.3-1.1-1-1.4c-1.3,1.4-2.5,2.6-2.2,4.9c0.3,1.5-1.4,1.4-2.4,1.7c-0.2,0.1-0.5,0.1-0.7-0.1
	c-0.5-0.6-0.7-1.3-0.6-2c-0.2-1.5-0.6-2.9-0.8-4.4c-0.3-2.4-1.1-3-3.5-3.1c-2.1-0.1-4.1,0-6.2-0.2c-0.6,0-1.2-0.2-1.7-0.5
	c-1-1.7-0.3-3.5-0.5-5.2c0.2-1.2,1.3-1.9,1.5-3.1c0.2-0.4,0.4-0.8,0.8-1c1-0.2,1.7-1,1.8-2c0.5-2.1,2.3-3.7,2.1-6.1
	c0.1-0.5,0.4-1,0.9-1.2c2.6-1.6,4.9-3.8,6.5-6.4c0.9-1.3,2.7-1.2,3.9-0.6c1.5,0.7,2.3,0.1,3.2-0.8c2-2,2.5-2,4.4,0.1
	c0.2,0.2,0.3,0.4,0.6,0.5c4.3,1,6.3,3.7,5.9,8c0,1.1,0.3,2.2,0.8,3.2c0.6,1.6,1.1,3.2,0.4,4.9c-0.6,1.4,0.5,2.7,0.4,3.8
	c0-1.5-0.9-3.2,0-5c0.3-0.9,0.2-1.9-0.2-2.7c-1.1-3-0.1-6.2-0.7-9.2c0-0.4,0.1-0.8,0.5-1c0.6-0.2,1.1-0.6,1.5-1
	c0.5-1.6,1.3-3.1,2.2-4.6c0.1-0.2,0.3-0.3,0.4-0.5c1.6-1.5,1.6-3.4,1.6-5.4c0.4-0.9,0.7-1.9,0.8-2.9c0.2-0.4,0.6-0.7,1.1-0.7
	l0.3,0.2c0.1,0.6,0.3,1.3,0.4,1.9c0.6-1.3,1.1-2.6,2.4-3.4c0.7-0.4,0.6-1.3,0.1-2c-0.5-0.6-0.7-1.3-0.7-2c0-0.4,0.2-0.8,0.6-0.8
	c0.3,0.1,0.5,0.2,0.7,0.5c0.8,1.6,1.4,3.2,2.2,4.8c0.3,0.5,0.2,1.2-0.2,1.6c-0.6,0.6-1,1.3-0.4,2.2c0.5,0.6,1.2,0.9,2,0.8
	c1.1-0.2,1.3-1.1,1.3-2c0-1.3,0.5-2.5,1.4-3.4c0.3-0.4,0.8-0.5,1.2-0.2c-1.1,4-0.9,8.2-0.8,12.3c0.1,1.9-1.9,3-1.7,4.9
	c0.1,1.1-0.1,2.4,0,3.5c0.7,0.9,0,1.6-0.2,2.4c-0.6,1.4-0.8,2.9-2.1,3.9c-0.6,0.6-1.1,1.2-1.6,1.9c-3.1,2.8-2.5,6.2-1.8,9.7
	c-0.3,1.6-0.7,3.2-0.2,4.9s-0.9,2.8-3,3.2c-0.4-0.1-0.8-0.2-1.2-0.3c-0.6-0.2-1-1.2-1.9-0.7s-0.5,1.3-0.6,2c0,0.7,0,1.4-0.1,2.2
	c0.2,2.7,0.4,5.3,2.3,7.5c0.5,0.6,0.8,1.4,0.7,2.1c-0.6,0.8-1.8,1.3-1.3,2.6l-0.1,0.7c0.6,5.8,0.9,11.6,1.7,17.4
	c-0.1,1.1,0.8,1.9,0.9,3c-0.2,3.2,0.7,6.3,0.7,9.4c0,2.1,0.1,4.3,0,6.4c0.1,0.8-0.1,1.6-0.6,2.3c-1.4,0.2-2.8-0.7-3-2.2
	c0-0.1,0-0.2,0-0.3c-0.1-1.3-0.6-2.6-0.6-3.9c0.4,2.9,0.5,6,3.6,7.7C144.8,217.1,145.3,218.7,143.9,219.8z"/>
<path class="st5" d="M143.9,119c-0.6,1.9-0.6,4.1-2.6,5.4c-1.2-0.9-1.1-2.3-1.4-3.6c-0.4-2-2.3-3.2-4.2-2.9c-0.1,0-0.2,0-0.2,0.1
	c-1,0.1-1.7,1-1.6,2c0,0.9,0.4,2-0.9,2.5c-1.8,0-2.2-1.4-2.4-2.7c-0.1-1.1-0.7-2.1-1.6-2.7c-0.7-0.4-1.2-1.2-1.3-2
	c-0.1-0.7-0.5-1.3-1.1-1.6c-1.1-0.5-1.7-1.8-1.4-3c0.2-1.1-0.3-2.1-1.2-2.6c-1.6-0.9-1.5-2.3-0.8-3.7s2-1.5,3.3-1.1
	c0.9,0.3,1.7,0.5,2.6,0.7c1.7,0.4,2.2,1.6,1.2,3c-0.7,0.7-0.7,1.8-0.1,2.6c0.4,0.6,0.6,1.2,0.6,1.9c0.1,0.6,0.3,1.2,0.6,1.7
	c0.7,1.1,2,1.6,3.3,1.4c0.6,0,1.2-0.4,1.2-1.1c0.1-1.3,0-2.6-1.3-3.3c-1.1-0.6-1.8-1.7-2-3c-0.5-2.7-2.9-4.7-5.6-4.8
	c-1.8,0.2-3.3,1.3-4,3c-0.3,0.9-0.4,1.9-0.5,2.9c0,1.6-0.4,3.1-1.3,4.4c-0.5,0.7-0.8,1.4-0.9,2.2c-0.3,2.1-1,4-2.2,5.8
	c-1.5,2.2-2.7,4.6-3.5,7.1c-0.6,2-1.6,2.1-3.2,0.6c-0.5-2.6,1.5-4.6,1.6-7.1c0-0.4,0.2-0.8,0.2-1.2c0.6-4,1.4-8,2.4-12
	c1-4.5,1.8-9,2.6-13.5c0.2-1.8,1.6-3.3,1.3-5.2c0.3-1.8,0.7-3.6-0.2-5.3c-0.4-0.6-0.2-1.4,0.3-1.7c0,0,0,0,0,0c1.4,1.6,4,2,4.3,4.5
	c0.9,0,0.9-0.5,1.1-0.9c0.5-1.1,1.1-1.2,1.7-0.2c1.3,2.2,3.8,2.9,5.5,4.7c0.5,0.6,1,0.4,1.4-0.3s1.1-1.3,1.8-0.6
	c0.9,0.7,1.5,1.7,1.6,2.8c0,1.2-1.2,0.6-2,0.7c-0.1,0-0.2,0.2-0.9,0.7c1,1,2.1,1.9,3.3,2.6c2,1.1,1.8,3.6,3.5,4.8
	c1,0.4,0.9,1.5,1.3,2.2c-0.3,1.2,0.6,2.1,0.9,3.1c0.6,1.6,1.1,3.1-1,4.2c-0.7,0.3-1,1-0.7,1.7c0.1,0.1,0.2,0.3,0.3,0.4
	C143.5,114.2,143.4,116.7,143.9,119z"/>
<path class="st1" d="M139,44.1c-1.9,0.4-3.8,0.8-3.9-2.2c0-0.6-0.4-1.1-1-1.2c-0.1,0-0.2,0-0.3,0c-0.8,0.1-0.8,0.7-0.8,1.4
	c0,0.3,0.1,0.7-0.2,1c-0.9,0.3-0.8-1.1-1.7-0.9c0.6,4.1,1.2,8.2,3.6,11.9c0.6,0.8,1.4,1.6,2.1,2.2c1.4,1.4,2.6,2.9,1.9,5.1
	c-0.2,0.6-0.3,1.3,0.2,1.7c1,0.9,0.6,1.3,0.1,2.4c-0.8,2-1.7,3.1-3.9,3.2c-0.7,0-1.3,0.9-1.4,1.8c-0.1,1.4-0.4,2.8-0.5,4.2
	c0,0.6-0.2,1-0.8,1.1c-2.6,0.3-4.1,2-5,4.3c-1.6-0.2-2.9-0.6-1.1-2.4c0.6-0.7,0.1-1-0.4-1.4s-1.2-1.1-0.5-1.8s1.1-0.1,1.7,0.3
	c1.7,1.4,2.4-0.7,3.5-1.3s1.9-2.2,0.9-3c-1.2-1-1.2-2.6-2.5-3.3s-0.5-1.6-0.2-2.3c0.4-1,1.1-0.3,1.6,0c1,0.5,2.2,0.9,2.9,0
	c1.6-1.9,2-1.3,2.2,1.1c1.1-1.5,1.9-2.6,0.6-4s-0.9-2.3,0.9-2.9c-2.7-2.8-4.9-6.1-6.5-9.6c-0.9-1.8-1.3-3.8-1-5.8
	c0.2-1.8,0.6-4.1-1.8-5.1c-0.3-0.1-0.5-0.5-0.7-0.8c-0.4-0.5-0.5-1.7-1.4-1.4c-0.9,0.3-1.4,1.2-1.3,2.1c-0.2,1-0.1,1.9,0.1,2.9
	c0.4,0.8,0.3,1.8-0.2,2.5c-0.2,0.3-0.5,0.7-0.3,1c1.3,2-0.1,3.5-1,5c-0.2,0.5-0.3,1.1-0.3,1.7c0.1,0.7-0.3,0.8-0.8,0.6
	c-0.6-0.2-0.9-0.9-0.7-1.5c0-0.1,0-0.1,0.1-0.2c0.3-1.4,0.5-2.9,0.4-4.3c0.1-1.7,0.3-3.4,0.7-5c0.9-3.8-0.1-7.6-0.5-11.4
	c-0.3-2.9-0.9-5.7-1.6-8.5c-0.3-0.6-0.2-1.4,0.3-1.9c-1.1-1.6,0.3-2.8,0.6-4.1c0.2-0.7,1.1-0.4,1.8-0.3c0.6,0,1.1,0.6,1.1,1.2
	c0,0,0,0,0,0c0,0.7-0.2,1.3-0.4,1.9c-0.5,1.3-0.2,1.9,1.1,2.8c2.4,1.4,4.2,3.5,5.2,6.1c0.4,0.9,0.6,1.7,1.9,1.7
	c1.3,0.1,2.3,1.1,2.4,2.3c0.2,1.5,1.1,2.6,1.5,4l0,0c0.1,1.7,0.9,3.3,2.2,4.5C137.7,41.2,138.1,42.8,139,44.1z"/>
<path class="st4" d="M115.4,75.4c-0.1,1.6,0,3.2,1.4,4.4c0,2-1.6,3-2.8,4.2c-1.2-0.1-1-1.1-1.1-1.8c-0.2-2.3-0.1-4.6-1.3-6.7
	c-0.6-1.3-1.9-2.1-3.4-1.9c-3.6,0.3-4.4-0.7-3.7-4.2c0.3-1.7-0.2-2.5-1.9-2.2c-3.4,0.5-6.6-0.3-9.9-0.7c-0.9-0.2-1.7-0.6-2.4-1.1
	c-2.1-1.3-3.3-0.9-4.3,1.4c-0.5,1-0.6,2.4-2.4,2.1c-1.7-1.5,0-3,0.1-4.4c0.2-2.1,1.2-4,2.9-5.2c2.2-1.7,1.3-4.3,0.9-6.5
	c-0.1-0.7-0.6-1.3,0-2c0.5-0.5,1.3-0.4,1.8,0.1c0.1,0.1,0.2,0.3,0.2,0.4c0.4,0.9,1.5,1.4,2.4,1c1.8-0.5,3.5,0.4,5.3,0.4
	c0.7,0,1.2,0.5,1.2,1.3c-0.7,1.6-0.8,3,1,4c0.9,0.6,1.5,1.7,1.5,2.8c0.3,2.3,1.3,3.5,3.6,3.3c3.3-0.3,5.8,1.6,8.3,3
	c1.9,1.1,2.4,3.6,2.6,5.7C115.7,73.6,115.7,74.5,115.4,75.4z"/>
<path class="st2" d="M115.4,75.4c-0.8-2.2-1.6-4.4-2.4-6.6c-0.1-0.3-0.4-0.9-0.6-0.9c-3.1,0-4.9-3.6-8.5-2.9
	c-2.6,0.5-4.1-1.4-4.2-4.1c0-1.1-0.6-2-1.6-2.4c-2.4-1.3-2.5-2.7-0.2-4.5l0.3-0.2c1.5-1,3.4-0.2,5-0.8c1.1-0.3,2,0.2,3,0.4
	c2.1,1.3,4.3,2.4,6.6,3.3c1.5,0.7,2.7-0.2,4,0.3c1,0.4,1.4,1.4,1.1,2.4c-1.1,2.6-0.5,5.3-0.9,7.9C117.1,70.1,116.5,72.8,115.4,75.4z
	"/>
<path class="st4" d="M161.8,172.5c0.4-1.7,0.4-3.5,0.2-5.3c-0.6-2.5-1.2-5.2-2.9-7.2c-1.5-1.7-3-3.3-3.2-5.7
	c-0.1-0.9-0.4-1.7-0.9-2.5c-1.6-2.4-2.8-5.1-3.4-7.9c-0.4-0.2-0.6-0.8-0.3-1.2c1.5-2.4,1.3-5.2,2.3-7.7c0.8-1.2,2-2.1,3.5-2.4
	c2.6-0.7,3.2-0.8,5.2,2.8l0.4,0.9c-3.7,0.6-5.3,4-8.1,5.8c-0.8,0.6-1.1,1.7-0.8,2.6c0.4,1.9,0.6,4,1.6,5.5c1.6,2.4,2.4,5.2,4.3,7.4
	c1.2,1.2,2,2.8,2.4,4.4c0.1,0.6,0.4,1.1,0.7,1.6C164.4,166.1,163.9,170.3,161.8,172.5z"/>
<path class="st3" d="M117.2,67.3c-0.1-2.4-1.2-4.8,0-7.3c0.3-0.6-0.3-1.7-0.4-2.5c-0.5-0.6-0.5-1.5,0.1-2c0,0,0.1-0.1,0.1-0.1
	c2.5-2.4,3-5.6,4.1-8.6c0.1-0.2,0.3-0.4,0.5-0.5c0.2-0.1,0.5-0.1,0.6,0.1c0.9,1.1,0.2,2.2,0,3.3c-0.1,0.6-1.2,1.7,0.4,2
	c0.5,0.2,0.8,0.6,1.1,1.1c0.8,1.1,1.6,2.2,0.3,3.3s-2.2,0.2-3.1-0.8c-2.1,3-2.7,6.4-3.1,9.8C117.7,65.9,117.5,66.7,117.2,67.3z"/>
<path class="st0" d="M143.9,119c-0.3-0.3-0.5-0.7-0.6-1.2c-0.3-2.8-1.3-4.9-5-4.7c1.1-1.3,2.1-2.1,2-3.6s1.3-0.9,2.2-0.6l0.6-2.8
	c0.8,0.6,1.6,1.4,2.6,0.1c0.2-0.3,0.6-0.4,0.9-0.2c0.1,0.1,0.2,0.1,0.2,0.2c0.3,0.4,0.3,1.1,0,1.2c-3.4,1.7-1.7,4.5-1.7,7
	c0,0.2-0.2,0.4-0.3,0.6l0,0c-0.5-0.2-0.7,0.1-0.9,0.4L143.9,119z"/>
<path class="st0" d="M114.1,83.8c0.2-1.8,0.7-3.5,2.8-4c1,0.7,1.5,1.8,2.6,2.3c0.4,2.4,1.6,4.7,0.5,7.2c-0.8-0.3-1.2-1.1-1.8-1.6
	c-0.6-0.9-0.2-2.6-2-2.5c-0.7-0.1-1.4-0.4-1.9-1L114.1,83.8z"/>
<path class="st4" d="M162.2,135.5c-1.9-1.8-3.9-3.1-6.6-1.3c-0.7,0.4-1.3,1-1.5,1.8c-0.5,0.5-1.3,0.5-1.7,0c0.3-0.7,0.6-1.5,0.9-2.2
	c1.1-0.7,2.2-1.2,3.3-1.8C160.3,130.6,161.6,131.4,162.2,135.5z"/>
<path class="st8" d="M142.1,103c-0.9-0.4-1.4-1.3-1.3-2.2C142.1,100.5,142.4,100.9,142.1,103z"/>
<path class="st5" d="M49.9,193c-2.7-1.1-5.5-0.9-8.3-0.9c-1.1,0.1-2.2,0-3.3-0.4l0.1-0.1c1.5-1.2,1.5-1.2,4.3-0.6
	c-2.2-0.6-3.8-1.4-4.9-2.8c-0.6-1.6-2-2.3-3.4-3c-2.9-1.4-6.1-2.3-8.4-4.4s-5.7-3.5-6.3-7.2c-0.2-1-1.1-1.3-1.9-1.7
	c-0.4-0.2-0.8-0.5-0.5-1s0.7-0.3,1-0.2c1.5,0.4,3,0.9,4.4,1.6c4.3,2.7,9.4,3.3,13.8,5.8c2.1,1.1,4.3,2,6.6,2.6
	c2.1,0.6,4.4,1.6,6.6,2.4c1.3,0.5,1.9,0.3,1.6-1.2c0-0.1,0-0.3,0-0.4c1.1-2.2,0.7-4.9-1-6.7c1.6-1.2,2.9,0.2,4.2,0.7
	c1.8,0.6,3.7,1.1,5.7,1.3c-1.5-0.6-3-1.4-4.7-1c-0.6,0.1-1.2-0.5-1.7-1c-0.6-0.6-1.4-0.9-2.2-0.9c-1.9-0.3-3.7-0.9-5.4-1.9
	c-2.2-1.1-4.6-1.8-6.4-3.6c-0.4-0.4-1-0.7-1.6-0.7c-0.2-0.3-0.2-0.6,0-0.9c0.2-0.4,0.6-0.7,1-0.9c0.8-0.4,1.8-0.2,2.5,0.3
	c1.2,0.7,2.5,1.3,3.7,2c0.9,0.6,2.1,0.9,3.2,0.8c1.7-0.2,3.4-1,5.2-0.4c0.6,0.2,1.1-0.7,1.7-0.9c2.4,0.2,4.5,1.7,5.4,3.9
	c0.3,0.8,0.3,1.8,1.5,2c0.2-1.6-1.2-2.9-0.5-4.7c0.6-1.6,1.5-1.9,2.8-1.5c1.7,0.5,2.7,2.2,2.2,3.9c-0.1,0.3-0.2,0.5-0.3,0.8
	c-0.2,0.4,0,0.9-0.1,1.3c-0.2-1,0.1-1.5,1.2-1.7c2.4-0.2,4.7-0.6,7-1.2c1-0.4,2-0.5,3-0.1c1.8,0.9,2.9,0,3.9-1.1
	c0.2-0.1,0.5-0.1,0.7,0c0.2,0.1,0.5,0.2,0.5,0.4c0.5,3.5,2.9,5.6,5.4,7.8c0.9,0.8,2,1.8,0.6,3.1c-2.4,0.9-5.1,0.3-6.9-1.6
	c-1.3-1.3-3.1-1.4-4.7-2.1c0,0-0.1,0.1-0.1,0.1s0,0.1,0,0.2c2.8,2.2,5.6,4.3,9.3,4.2c0.8-0.2,1.6-0.7,2.4-0.8
	c2.4-0.6,3.1-0.1,4.2,2.8c-0.1,1.3-0.9,1.6-2,1.4c-2.6-0.6-5.2,0.4-7.8,0.4c-1.4,0-2.8,0.1-4.2,0.4c-1,0.2-2.1-0.3-2.7-1.1
	c-1-1.2-2.4-1.8-3.9-1.8c-1.6,0-3.3-0.2-4.9-0.5c-0.6-0.1-1.2-0.3-1.6,0.3s0,1.3,0.4,1.8c0.5,0.6,1.2,1.1,1.9,1.6
	c0.7,0.5,0.9,1.4,0.6,2.2c-0.3,0.7-1,1.1-1.7,1.2c-2.8,0.5-5.4-0.3-8.1-0.9c-3.1-0.8-5.4,1-8,1.9C50,190.6,50.9,192.3,49.9,193z"/>
<path class="st0" d="M27.2,119c-0.3-2-0.5-4.1-0.8-6.1c-0.2-0.9-0.1-1.9,0.3-2.8c4.6-0.8,9.2-1.3,13.8-1.4c5.7-0.2,11.3-1.2,17-1.7
	c4.6-0.4,9.2-1.3,13.9-1.1c1.1-0.1,2.2,0.2,3.1,0.8c0.5,1.9,0.2,2.4-1.8,2.3c-3.8-0.3-7.4,0.8-11,1.4c-1.5,0.3-2.4,1-2.1,2.8
	c0.2,1.2-0.5,2.4-1.6,2.9c-1.1,0.4-1.8-0.2-2.3-1.1c2.1,2.7,2.8,6.3,1.8,9.7c-0.6,1.9-1.9,1.9-3.6,0.1c2.3,2.5,3.7,2.3,5.2-0.5
	c0.8-1.4,1.8-2.7,2.6-4.2c0.3-0.8,1.2-1.3,2.1-1c0.1,0,0.1,0,0.2,0.1c1.1,0.5,0.9,1.4,0.4,2.3c-0.2,1.7-0.8,3.4-1.9,4.7
	c-0.2,0.8,0.1,1.6-0.4,2.4c-0.6,0.7-1.8,0.9-2.7,1.3c-0.6,0.4-1.2,0.8-1.7,1.2c-0.5,2,0.8,3.6,1.2,5.4c0.4,1,0.7,2,1,3
	c-0.5,1.9-1.6,1.4-2.6,0.5c-2-1.8-2.1-1.8-4.2-0.1c-1.5,1.2-2.4,1-3.2-0.8c-0.5-0.9-1-1.8-1.5-2.7c-0.4-0.7-0.9-1-1.5-0.1
	c-0.1,1.1-1.2,1.5-1.9,2.2c-0.8,0.9-1.8,0.7-2.8,0.7c-2.4,0.2-3.3,1.9-2,4.2c0.6,1.1,1.5,2.1,2.2,3.3s1.1,2.3,0.1,3.4
	c-0.2,0.2-0.5,0.3-0.8,0.3c-2.6-0.1-2.9,0.3-2.6,3c0.3,2.9,0.7,5.8,1.1,8.7c0,0.6-0.2,1.2-0.6,1.7c-2.4,1-3.7-1-5.3-2
	c-1.1-4.7-1.9-9.4-2.7-14.2c-0.1-1.3-0.4-2.5-0.9-3.6c-1.1,0.1-1.3-0.8-1.6-1.6c-0.3-4.4-0.9-8.7-1.6-13
	C26.9,126,26.8,122.5,27.2,119z"/>
<path class="st1" d="M30.7,145.8c0.3,2,0.6,4,0.9,6c0.1,1,0.4,2.2-0.9,2.9c-0.5,0.9,1.2,1.8-0.1,2.6c-1.6,0.4-2.8-0.2-3.9-1.4
	c-2-2.1-4.1-4.1-7.2-4.4c-0.3-0.4-1.2-0.5-1-1.3c0.2-0.6,0.8-0.9,1.4-0.8c1.7,0.1,3.1-1,4.8-1.1c1.1-0.1,1.7-1,2.3-1.9
	c0.2-0.5,0.5-0.9,0.8-1.3c0.5-0.5,1-1.1,1.9-1S30.3,145.3,30.7,145.8z"/>
<path class="st5" d="M13.8,152c-1.8-1.2-1.9-2.4-0.3-3.6c0.5-0.3,1-0.6,1.6-0.8c1.7-0.4,3.3-0.8,4.2-2.5c0.3-0.6,1.2-0.9,1.8-1.2
	c3.8-2,3.9-2.2,2-5.8c-0.2-0.2-0.2-0.5,0-0.6c0.4-0.5,1.1-0.5,1.6-0.1c1.4,1.2,3.3,1.8,4.3,3.5c-0.6,4.3-4,7.7-8.3,8.4
	c-1.5,0.2-2.8,0.5-3,2.2L13.8,152z"/>
<path class="st5" d="M38.3,167.6c0.4-0.4,1-0.4,1.4,0c1.8,1.7,4.1,2.2,6.2,3.3c0.8,0.6,1.9,0.9,2.9,0.7c1.2-0.3,1.9,0.5,2.3,1.4
	c1.2-0.2,1-1.6,1.9-1.7c0.7,0.6-0.7,1.3,0,2c0.9,0.2,0.8-1.3,1.9-0.9c0.5,0.7-1.1,2.2,0.8,2.5c1.4,0.2,0.7-1.3,1.4-1.7
	c0.7,0.9,1.5,1.7,2.5,2.3c0.7-0.1,0.1-1,0.8-1.3c0.9,0.7,1.9,1.7,1.3,2.8s-1.9,1.2-3.2,0.8c-2.9-0.7-5.6-1.7-8.3-3l-1.3-0.4
	c-1,0-1.6-0.8-2.2-1.3C43.6,171.7,40.8,169.9,38.3,167.6z"/>
<path class="st1" d="M17.8,151.6c-0.8-1.3-1.7-2.2,0.9-2.6c4.4-0.6,8.1-3.5,9.7-7.6c0.9-0.5,1.2,0.5,1.7,0.8
	c0.2,0.6,0.3,1.2,0.5,1.9c0,0.6,0,1.2,0,1.8c-0.5-0.9-1.1-0.9-1.7-0.1c-0.3,0.5-0.6,1-0.9,1.5c-1.6,3.1-4.5,3-7.3,3.1
	c-0.9,0.1-2-0.3-1.3,1.3L17.8,151.6z"/>
<path class="st1" d="M46.8,173c0.9,0.1,1.7,0.6,2.2,1.3c-0.2,1.4-0.6,2.7-1.4,3.9c-0.4,0.6-0.9,1.1-1.6,0.8
	c-1.2-0.6-2.1-1.6-2.4-2.9c-0.2-0.7,0.6-1,1.3-1.2C45.9,174.6,47.1,174.5,46.8,173z"/>
<path class="st1" d="M34.3,161.8c2-0.4,3.3,1.1,4.9,1.8c0.7,0.2,0.9,0.8,1.1,1.4s-0.3,1.2-0.6,1.7h-1.3
	C36.3,165.6,34.4,164.4,34.3,161.8z"/>
<path class="st0" d="M37.9,188.1c2.6,0.6,4.8,2.1,7.2,3.1c-2.3,0.6-4.5,0.3-6.7,0.4L37.9,188.1z"/>
<path class="st0" d="M30.7,157.3c0-0.9-2.2-1.8,0.1-2.6c2,1.1,1.1,3.1,1.9,5.1C31.1,159.1,31,158.1,30.7,157.3z"/>
<path class="st0" d="M74.4,107.4c-3.5-0.9-7.1-0.5-10.6-0.2c-8.8,1-17.6,2.5-26.5,2.6c-3,0-6.1,1-9.2,0.7c-0.5,0-1,0-1.4-0.5
	c0.3-1.6,1.7-1.5,2.8-1.6c8.5-0.8,16.9-1.6,25.4-2.4c2.5-0.1,5-0.4,7.5-0.9c3.4-0.2,6.8-0.4,10.1-0.8c2-0.2,3.7,0.1,5,1.7
	c0,0.4,0.1,0.8,0.1,1.2c0.2,0.6,0.4,1.3-0.3,1.7c-0.7,0.3-1.5,0.2-2-0.3C74.8,108.4,74.7,107.8,74.4,107.4z"/>
<path class="st2" d="M152.4,136h1.7c-0.1,0.1-0.2,0.3-0.2,0.4c1,3.1-1.7,5.1-2.5,7.6c-1.3,0.9-1.2,2-0.5,3.3
	c2.4,4.6,4.7,9.2,6.8,13.9c0.6,1.4,1.6,2.4,2.3,3.7c1.6,3,0.5,5.7-0.2,8.5c-1,3.5-1.5,7-1.7,10.6c-0.2,3.8,0.5,7.7-1.4,11.3
	c-0.5,0.9-0.2,2.2-0.3,3.3c-0.4,4.5-2.4,8.6-3.4,12.9c-0.9,4.2-2.2,8.3-3.9,12.2c-1.3-1.6-0.2-3.5-0.9-5.1c2-4.6,3.3-9.5,4-14.4
	c0.4-3.4,0.8-6.9,1.3-10.3c0.4-2.6,1.1-5.3,1.5-8c0.1-0.3-0.3,0.1,0,0c0,1-0.4,1.7-1.6,1.5c-1.4-1.1-0.5-2.5-0.3-3.6
	c0.3-2.5,0.1-4.6-1.9-6.3c-0.7-0.8-0.7-1.9-0.1-2.7c1.3-1.1,2.4,0.2,3.6,0.2c0.5,0.2,1,0.5,1.5,0c2-1.9,2.2-5.8,0.6-8.1
	c-3-4.5-6.1-9.1-7.6-14.4c-0.9-3-2.1-6.3,0-9.5c0.5-1.1,0.7-2.2,0.8-3.4L152.4,136z"/>
<path class="st0" d="M149.3,218.4v5.4l-0.5,3.1c-1.3,0.9-2.1,2.4-2,4c0.1,1.8-2,1.8-2.4,3.1l-0.5,0.1c-0.5-0.3-0.8-0.8-0.8-1.4
	c0.6-0.9,0.7-2,1.4-2.9c2.3-2.3,3.5-5.6,3.2-8.9c-0.1-1.1-0.1-2.3,1.3-2.7L149.3,218.4z"/>
<path class="st5" d="M23.1,137.8v0.4c-1.1-0.6-2.2-1-3.5-1.2c-2.6-0.4-3.1-2.6-3.6-4.7l2.6,1.4C21.2,133.7,23.3,135.6,23.1,137.8z"
	/>
<path class="st4" d="M23.1,137.8l-4.5-4c-0.4-2.2,0.7-2.8,3-2.3c-0.8-1.5-1.1-3.2-0.7-4.9c0.5-2.2,2.3-3.6,3.1-5.6
	c0.4-1,1.5,0.1,2.3,0.3c0.3-0.9,0.6-1.6,0.9-2.2c1.2,6.7,2,13.4,2.7,20.1c0.1,1,0.2,2.1,0.4,3.1l-1.7-0.8L23.1,137.8z"/>
<path class="st2" d="M74.4,107.4c1-0.2,2.2,2.1,3.2-0.1c0.9,3.1,0.5,6.4,1.3,9.5c0.4,0.6,0.4,1.3-0.1,1.8c-1.7,1.7-0.6,3.7-0.4,5.4
	c0.6,5.2,0.6,10.4,1.7,15.6c0.7,6.8,1.4,13.6,1.9,20.5c0.1,1.9,0.4,3.8,0.6,5.6c0.2,1.2,0.5,2.5-0.5,3.6c-0.2,3.5-0.5,3.7-3.6,2.2
	c-0.7-0.4-1.6-0.6-2.4-0.3c-2,1.1-4.5,0.4-6.4,1.8c-0.5,0.3-1.2,0.2-1.7-0.2c-0.5-0.4-0.8-0.5-1,0.4s-0.8,1.6-1.7,0.8
	c-1.3-1.1,0-0.9,0.6-1.1c-0.4-1,0.7-1.9,0.2-2.9s-1.2-2.3-2.6-1.9s-1.1,1.8-0.8,2.9c0.5,1.5,1.1,3,1.7,4.8c-0.9-0.2-1-0.8-1.3-1.2
	c-0.8-0.6-1.4-1.4-1.9-2.2c-0.3-1.4-1-2.8-1-4.3c0-1-0.7-1.5-1.7-1.8c-2.7-1-5.5-1.5-8.2-2.5c-2.5-0.9-5.1-1.4-7.4-2.8
	c-1.5-1-2.6,0.1-3.8,0.7c-0.8-3.8-1.3-7.7-1.4-11.6c-0.1-1.7,1.1-1.9,2.5-1.5c0.8,0.3,1.5,0.6,2.2,1c0.6-0.9,0.7-2.2,2.3-2.3
	c-2.4-1.3-3.7-3.4-4.7-5.6c-0.9-1.7,0.1-3.2,2.4-4.1c0.7,0.1,1.3,0.8,2.1,0.5l0.3,0.1c0.2,0.2,0.4,0.4,0.4,0.7
	c0.1,0.6,0.1,1.4,1,1.4s1-0.7,1-1.4c-0.2-1.1-0.6-2.1-1.3-3c0.1-0.6-0.2-1.5,0.5-1.8s1.4,0.4,1.8,1c0.8,1.2,1.4,2.4,2.2,3.6
	c0.5,0.8,0.8,1.2,1.8,0.3c2.7-2.8,3.3-2.7,5.8,0.1c0.3,0.4,0.6,1.2,1.3,0.4c0.3-0.3,0.6-0.4,1-0.4c0.4-0.1,0.8-0.2,1.1-0.3
	c0.9-0.3,1.6-1.1,1.7-2.1c0-0.6,0.4-1.1,1-1.3c0.8-0.2,1.2,0.5,1.6,1s0.5,1.4,1.5,1.4c1.2-0.4,0.8-1.6,1.1-2.5
	c0.3-2.3-0.3-4.7-1.6-6.7c-1.6-2.4-2.3-5.1-3.4-7.8c0.4-0.4,0.4-0.9,0.2-1.4c-1.2,1.8-2.2,3.4-3.2,5c-0.2,0.4-0.4,0.8-0.6,1.2
	c-1.4,2.4-2.5,2.6-4.7,0.8c-1.9-1.7-2.1-3-0.6-5.3c0.8,0.7,1,1.9,0.4,2.8c-0.2,0.4-0.1,0.9,0.3,1.1c0.1,0,0.2,0.1,0.2,0.1
	c0.7,0.2,1-0.4,1-0.9c0.2-1.8,1.3-3.8-0.5-5.4c-0.9-0.8,0.2-2.2-0.2-2.4c-2.1-1.1-0.3-2.4-0.3-3.5c0-0.4,0.1-1.2,0.9-0.9
	s0.5,0.8,0.2,1.3c-0.5,0.8-0.5,1.5,0.5,1.7s1.3-0.7,1.5-1.5c0.2-1.1-1-2.4,0.1-3.4s2.8-1,4.2-1.2c3.4-0.6,6.8-1.7,10.3-1.1
	C73.6,108.2,74.2,108,74.4,107.4z"/>
<path class="st1" d="M67.8,71.7c-0.1-0.7-0.2-1.5-0.4-2.2s0-1.1,0.8-1.2c1.7-0.2,3-1.8,2.7-3.6c0-0.2-0.1-0.5-0.2-0.7
	c-0.1-0.4-0.1-0.9,0.1-1.3c-0.5-1-0.4-2.1,0.2-3c1.9-3.1,2.5-6.8,1.6-10.3c-0.1-0.4-0.1-0.9,0.2-1.3c1.8-2.1,1.7-4.8,2.3-7.3
	c0.2-1.3,1.2-2.2,2.5-2.5c0.9-0.2,1.8-0.3,2.6-0.3c3.2-0.1,5,2.6,3.6,5.5c-0.4,0.8-0.7,1.5,0.2,2.1c0.5,0.3,0.6,0.9,0.3,1.4
	c-1.5,2.1-1.1,4.1,0.1,6.1c0.2,0.4,0.4,0.8,0.4,1.3c0.3,0.9,0.1,1.8-0.4,2.5c-1.2,1.7-0.8,3.8-1.6,5.7c-0.5,1.1,0.9,1.8,0.6,2.8
	c-0.7,2.2-1.2,4.2-0.6,6.7c0.4,1.6-1.1,3-2.4,4.1c-0.1,0.2-0.3,0.3-0.5,0.4c-0.9,0.4-1,1.2-1,2.1c0,0.4-0.3,0.8-0.7,0.9
	c-0.6,2.5-3.1,2.4-4.8,3.2c-0.9,0.4-0.7-0.7-0.3-1.3c0.6-0.9,0.7-1.4-0.6-1.6c-1.6-0.2-1.6-1.8-2-2.9c-0.5-1.4,1.1-1,1.6-1.6
	s1.6-0.4,1.4-1.5c-0.2-0.8-1-0.7-1.7-0.8c-0.5,0-0.9-0.3-1.1-0.7C70.1,71.1,69,71.4,67.8,71.7z"/>
<path class="st4" d="M78.4,118.1l0.5-1.3c0.9,0.3,2-0.2,2.3-1.1c0.1-0.3,0.1-0.7,0-1c-0.8-2.2,0.2-4.2,0-6.3
	c-0.1-1.2,0.1-2.1-0.9-3.1c-0.8-0.8-0.6-2.3-0.2-3.4s0.4-2-0.9-2.5c-1-0.4-1.6-1.1-1.1-2.2s0-3.2,2.3-3.2c0.7-0.1,1.4-0.4,2.1-0.7
	c0.2-0.2,0.4-0.2,0.7-0.1c1.8,1.5,2.2,3.9,3.4,5.7c0.3,5.9,3,11.4,3.3,17.3c0.1,2.6,1.5,4.8,2.5,7.1c0.4,0.9,1.2,1.7,0.9,2.9
	c-0.8,0.8-1.4,1.9-1.7,3c-0.3,1.3-1.2,2.4-2.5,3c-1,0.5-1.9,1.2-2.6,2c-0.5,0.7-1.4,1-2.2,0.7c-0.9-0.2-1.4-1.1-1.1-2c0,0,0,0,0,0
	c0.1,2.5-0.2,5-2,7.1c-1.4,0-1-1.3-1.5-2c-0.1-0.2-0.1-0.4-0.1-0.7c-0.1-3.4-0.3-6.7-0.7-10c-0.7-2.2-0.5-4.6-0.9-6.8
	C77.8,119.6,77.9,118.8,78.4,118.1z"/>
<path class="st4" d="M78.4,79.8l0.1-1.3c0.6-0.6,1.1-1.4,1.3-2.3l0,0c0.6-0.3,1.1-0.9,1.9-0.8c2,0.9,2.7,0.6,2.5-1.5
	c-0.5-4.2,2.7-5.8,5.2-7.6c1.5-1,2.8,0.6,3.5,1.9c1.9,3.4,4.4,6.5,5.3,10.5c0.5,2.6,3.6,3.8,6.2,3s5.1-0.3,7.7-0.5
	c1.5-0.1,2.2,3.1,1.2,4.9c-1.4,1.2-3.1,1.3-4.8,1.3c-2.2,0-4.4,0.2-6.5,0.3c-3.6-0.4-7.1-1-10.6-1.8c-1.7-0.1-3.2-1.2-4.9-1.2
	c-1.2,0-1.4-1.2-2-1.9c-1.4-1.3-2.3-1-2.9,0.9c-0.5,0.8-0.8,2.1-2.1,0.8C78.3,83.2,78.4,81.5,78.4,79.8z"/>
<path class="st0" d="M79.3,84.7c0.6,0,1-0.2,0.9-0.9c1.8-0.2,1.7,1.4,2,2.3c0.6,1.4,1,2.7,2.6,3.2c0.8,0.3,1.2,1.2,0.9,2
	c0,0.1-0.1,0.1-0.1,0.2c-0.5,1.2-1.4,2.1-2.9,1.7l-0.3-0.1C81.6,90.3,79.9,87.7,79.3,84.7z"/>
<path class="st2" d="M117.6,16.6c1.2,0.7,1.3,2,1.8,3.1c1.8,2.3,1.6,5,1.8,7.7c-0.9,1.6-1.6,3.3-4,2.3c-0.4-0.1-0.9,0.2-1.3,0.3
	c-1.3-0.1-2.6-0.6-3.8-1.3c-1-2.2-0.6-3.6,1.5-4.6c0.8-0.3,1.5-1,1.7-1.8c1.6-0.5,2-1.7,1.8-3.2C117.1,18.1,116.6,17.1,117.6,16.6z"
	/>
<path class="st2" d="M117.6,16.6c0.3,1.2,1,2.2,0.7,3.6s-0.9,2.3-2.5,2.1c-0.7,0.6-1.3,0.4-1.7-0.4c0.5-2.6-1.2-4.4-2.6-6.2
	c-1-1.3-2.6-2.2-2.4-4.2c0.1-0.2,0.3-0.3,0.5-0.4l1.3,0.1C113.6,12.5,116.1,13.9,117.6,16.6z"/>
<path class="st3" d="M120.3,27.2c-0.2-2.5,0.4-5.2-0.9-7.6h0.9c2.3,8.8,4.2,17.6,1.8,26.8h-0.5c-1.6-0.4-2.1-1.6-1.3-2.9
	c1.9-3,1.6-5.8-0.3-8.7c-0.6-2.1-0.5-4.4,0.2-6.4C120.5,28,120.7,27.6,120.3,27.2z"/>
<path class="st5" d="M135.5,35.2c-1.5-3-4-5.3-5.8-8c0.4,0.5,0.9,0.8,1.5,1C134.1,29.2,136,32.1,135.5,35.2z"/>
<path class="st5" d="M137.7,39.7c-0.2-0.2-0.5-0.3-0.8-0.4c-1.8-0.4-2.4-1.3-1.5-3c0.1-0.3,0.1-0.7,0.1-1.1
	C136.2,36.7,137.3,38,137.7,39.7z"/>
<path class="st7" d="M140.4,54.8l-0.9-0.4c0.1-1-0.5-2,0-3C139.7,52.6,141.8,53.2,140.4,54.8z"/>
<path class="st1" d="M144.8,257.7c-0.9,0.4-1.8,0.5-2.7,0.5h-0.4c-1.7-0.9-3.7-0.3-5.4-1.3l0,0c-1.1-0.5-2.1-1.1-3.1-1.8l-1.4-0.9
	c2-1,3.4,0.5,5,1.2c2.2,0.8,4.6,1.4,6.9,2C144.1,257.4,144.5,257.6,144.8,257.7z"/>
<path class="st0" d="M136.3,256.8c1.8,0.3,3.8,0.1,5.4,1.3C139.9,257.6,137.8,258.6,136.3,256.8z"/>
<path class="st0" d="M133.2,255c1.8-0.8,2,1.4,3.1,1.8C134.8,257,134,256,133.2,255z"/>
<path class="st5" d="M83.8,54.8c-0.4-2.6-2-5.1-0.2-7.8c0.1-0.3,0-0.6-0.2-0.8c-1.3-1-0.7-2-0.2-3.1c0.8-1.6-0.4-2.8-1.3-3.7
	s-5,0.2-5.3,1.1c-0.4,1.2-0.6,2.4-0.8,3.6c0,0.8-0.2,1.6-0.6,2.3c-1.8,2-1,4.3-0.7,6.5c0.1,0.6,0.1,1.2-0.2,1.7
	c-0.2,0.3-0.3,0.8-0.5,1c-1.5,1.1,2.3,2.9-0.5,3.7c-1.8,0.5-1.6,2.4-2.4,3.5c-1.4-0.7-2.4-2-2.7-3.6c0.1-1.5,0.2-3-1.4-4h-0.4
	c-2.1-3.2-0.1-6.1,1.1-8.9c0.7-1.7-0.5-2.4-0.7-3.5c-0.3-1.6,2.6-0.7,2.3-2.4c-0.2-1.9,0.1-3.8,1-5.5c1-1.9,2.2-3.8,3.2-5.7
	c0.6-1.1,2.5-1.4,3.8-2c0.8-1.5,1-3.1,2.7-4.1c0.9-0.6,1.4-1.1,2.4-0.5s1.9,0.6,2.4-0.8c0.5-1.5,1.6-1,2.5-0.6s0.7,1.1,0.3,1.8
	c-0.4,0.8-0.4,1.7-0.1,2.6c0.5,1.5-0.1,2.9-0.5,4.3c-0.6,1.9-0.5,3.9-1.4,5.7c-0.3,0.6,0.2,1.1,0.3,1.7c0.1,2.3,0,4.5,0,6.8
	c-0.3,2.8-0.9,5.7-0.4,8.6c0.3,1-0.3,2-1.3,2.2C84,54.8,83.9,54.8,83.8,54.8z"/>
<path class="st2" d="M90,20.5l0.8-2.2c0.6-1.6,1-3.4,2.7-4.4c3.3-4.9,12.2-4.9,16.1-2.8l-0.1,0.1c-1.1,1.4-2.6,1.3-4.1,1.1
	c-4.6-1.4-6.2-0.3-6.8,4.7c0.7,1,2.5,0.6,2.6,2.2c-1.4,0.8-2.1,2.6-1.5,4.1c0.4,1.5-0.5,2.5-1.9,3c-0.6,0-1.3,0-1.9-0.1
	c-0.6-0.4-1-0.8-1.5-1.3c-0.8-0.8-1.5-1.8-2.9-0.9c-0.7,0.4-1.5,0.2-2-0.5C88.8,22.4,89.6,21.5,90,20.5z"/>
<path class="st4" d="M90,20.5c0,0.4,0,0.9,0,1.3s-0.1,1.1,0.6,1.2c0.5,0.1,1.1-0.1,1.4-0.5c0.3-0.4,0.5-0.9,0.8-1.3
	c0.2-0.4,0.5-0.8,1-0.7c0.5,0.1,0.9,0.5,0.8,1c0,0,0,0.1,0,0.1c-0.6,1.6,0.6,2.6,1.3,3.8c0.2,0.5-0.2,0.8-0.6,1
	c-1.2,0-1.7,0.9-2.3,1.7c-0.5,0.3-1,0.5-1.6,0.6c-1.5-0.2-2.9,0.7-3.3,2.2c-0.1,0.4-0.6,0.6-1.1,0.6c-1.9-1.5,0.2-3,0.1-4.5
	c0.1-0.6,0.3-1.1,0.7-1.6C88.3,23.7,88.2,21.7,90,20.5z"/>
<path class="st5" d="M75.7,22.3c-1.3-3.3-0.9-3.8,2.7-3.5c0.7,0.1,1.5-0.3,1.8-1c0.5-1,1.5-1.7,2.7-1.8c0.5,0.5,1.4,0.7,1.1,1.7
	s-1.1,0.3-1.6,0.4c-2.2,0.5-3.1,2.5-4.1,4.2c-0.4,0.5-0.4,1.4-1.2,1.5C76,23.9,76.1,22.8,75.7,22.3z"/>
<path class="st2" d="M87.8,25.4c0.1,2-1.8,3.7-0.9,5.8c-0.8,3.8,1.8,7.3,0.7,11.1c-0.2,0.8-0.1,1.7-1.1,2c-1.6-1.5-0.9-3.6-1.2-5.4
	c-0.1-0.6,0.3-1.3-0.1-1.9c-0.9-1.8,0.3-3.3,0.5-5c0.2-2.3,0.8-4.5,1.8-6.6L87.8,25.4z"/>
<path class="st9" d="M93.6,13.8l-2.7,4.4C90.6,16.1,91.6,14.7,93.6,13.8z"/>
<path class="st4" d="M63.7,242.9v0.9c0.4,2.1-1.3,3.8-0.9,5.9c0.1,0.8-0.2,1.6-0.9,2.1c-0.9-0.1-1.8-0.1-2.6,0
	c-2.2,0.5-3.5-0.2-3.9-2.6c-0.2-1.9-1.2-3.7,0.1-5.6c0.5-0.7,0.2-1.1-0.5-1.4c-1.5-0.5-1.6-1.5-1.3-2.8c0.1-0.5,0.1-1,0-1.5
	c-1.3-2.9,0.7-3.8,2.7-4.8c1.8-1.1,2.3-3.4,1.2-5.2c-0.2-0.3-0.4-0.6-0.7-0.8c-0.7-0.5-1-1.5-0.7-2.4c0.3-1.5,0.8-2.8,1.7-4.1
	c1.2-1.4,0.9-2.2-0.9-2.4c-1-1.7,0-3.1,0.6-4.5c0.3-0.4,1-1,0.4-1.5c-0.9-0.8-0.6-2-1.3-2.9c-0.6-1.4-0.1-2.8,0.1-4.1
	c0.5-1.9-0.4-3.9-2.1-4.8c-1.2-1.1-0.7-2.8-1.4-4c1.5-0.6,1.8,1.5,3.1,1.3c0.4-1.5,1.2-1.8,2.7-1.2c1.9,0.7,3.3,2.2,5,3.2
	c0.1,0.2,0.1,0.5-0.1,0.6c0,0.1,0,0.2,0,0.2c2.6,3,0.8,6.4,0.7,9.6c0,1.1-0.6,2-1.4,2.6c-0.8,0.6-1.1,1.6-0.8,2.6
	c0.3,1.4,1.2,0.4,1.8,0.6c1.1,0.4,2.1,0.8,3.3,0.2c0.4-0.2,0.8,0,1,0.3c0.3,0.4,0.3,1.1-0.2,1.4c0,0,0,0,0,0c-1.9,1.4-2,3.9-3.6,5.5
	c-0.2,0.2-0.4,0.6-0.4,0.8c1.2,2.6-0.8,2.9-2.4,3.6c-1.6,0.7-2.7,2.1-3.2,3.8c-0.5,1.3-0.5,2.8-2.1,3.5c-0.3,0.1-0.5,0.5-0.3,0.8
	c0.1,0.2,0.2,0.3,0.4,0.4c1.4,0.3,2.2,1.8,3.7,1.8c0.6,0,1.1,0.1,1.1,0.8s-0.4,1.4-1,1.3c-1.9-0.4-2.1,1.2-3.1,2.1
	C59.8,243.4,61.8,242.6,63.7,242.9z"/>
<path class="st3" d="M52.1,251.4c-2-2.1-0.9-4.8-1.4-7.1c0.4-0.5,0.5-1.1,0.4-1.7c-1.3-3.2-1.1-6.6-1.1-10c-0.1-1.7-0.4-3.4-0.9-5
	c-0.7-2.6,1.2-4.5,2.5-6.5c1.6,0.9,1.5,3.1,3.1,4c0.3,0.7,0.3,1.5,0,2.1c-0.5,0.9-0.6,2-0.5,3c0.7,2.3-0.1,2.7-2.5,1.9
	c1.6,4.1-0.6,8,0.5,11.8c0.8,2.4,1,5,0.7,7.5L52.1,251.4z"/>
<path class="st3" d="M54.8,225.1c-0.9,0.8-1.6,0.8-2.2-0.4c-0.6-1.1-0.9-2.3-0.9-3.6l1.4-5.4c0.1-2.5,1.2-4,3.1-4
	c1.5,0,2.5,0.5,2.2,2.2c-0.2,1.5-0.6,3-1.3,4.4C55.4,220.3,55.8,222.9,54.8,225.1z"/>
<path class="st4" d="M61.9,251.9c-0.5-2.9-0.5-5.7,1.8-8c1.3,0.4,2.6,0.6,4,0.4c-0.1,2.8-1.6,4.9-3.6,6.7
	C63.5,251.5,62.7,251.8,61.9,251.9z"/>
<path class="st1" d="M58.3,214c-1.5-1.7-2.4-1.8-3.9-0.2c-0.5,0.6-1,1.3-1.4,2c-1.5-2.6-0.7-5.4-0.9-8.2c-0.1-2.5,0-4.9,0-8L54,202
	c1.1,0.5,1,1.5,1.1,2.4c0.1,1.9,0.9,3.7,2.3,5.1c1.3,0.8,1.6,2.2,2.2,3.4C59.9,213.6,59.9,214.9,58.3,214z"/>
<path class="st1" d="M57.3,209.5c-1.1,1-1.6-0.1-2.1-0.7c-1.5-2-1.5-4.4-1.3-6.8c0.3-0.4,0.6-0.9,0.9-1.3c2.4-0.4,3.4,0.3,3.4,2.7
	C58.3,205.4,58,207.5,57.3,209.5z"/>
<path class="st2" d="M64.1,200.2c-2-0.3-3.4-1.7-5.2-2.5c-0.9-0.4-1.6-0.8-2.4,0.2c0.1-1.1-0.6-2-1.6-2.4c-1.7-0.8-3.4-1.7-5.1-2.5
	c-1.3-3-0.8-3.4,2-4.6c4.1-1.8,8-1.5,12-0.3c0.4,0.2,0.9,0.2,1.3,0.2c1-0.1,2.4,0.4,2.8-0.6c0.5-1.3-1.1-1.3-1.7-1.9
	c-1-1.1-1.8-2.4-2.2-3.8c-0.4-1.3,0.6-1.7,1.5-1.5c2.9,0.6,5.9,1,8.8,1.2c1.2,0.2,2.3,0.8,2.9,1.9c0.5,0.8,1.4,1.2,2.3,1.1
	c4.3-0.3,8.6-1,13-1.1c1.3,0.6,1.1,1.4,0.5,2.4l-0.1-0.1c-2.9,0.4-5.7,1-8.6,0.5c-0.9-0.2-1.9-0.2-2.8,0.2c-1.1,0.4-1,1.1-0.7,1.9
	c0,0.6-0.4,1.1-0.9,1.4c-1.1,0.7-1.9,1.8-2.3,3.1c-1.3,0.9-2.6,0.5-3.8,0c-1-0.5-2-1.1-3-1.5c-1.6-0.7-3-0.7-4.2,0.8
	c-0.8,1.1-2.8,1-2.8,3.1c0,1.2,0.2,2.3,0.7,3.4C64.9,199.4,65.3,200.1,64.1,200.2z"/>
<path class="st0" d="M66.8,55.3c2.6,0.5,2.8,1.2,1.4,4h-0.5C67.8,57.9,66.9,56.7,66.8,55.3z"/>
<path class="st4" d="M93.2,185.9c0.1-0.8-0.1-1.6-0.5-2.4c-1-1.4-1.8-3.1-4-2.5c-0.7-0.3-0.7-0.3,0.1-0.9c0.3-1.8-1.3-2.3-2.3-3.1
	c-2.4-2-4.5-4.1-4.1-7.6c-0.4-4.7-0.7-9.4-0.9-14c-0.2-4.3-0.7-8.6-1.3-12.9c-0.3-1.1,0.1-2.2,0.9-3c-0.1-1.1,0.1-2.2,0.5-3.3
	c0.7-1.4,0.9-3,0.6-4.5c-0.2-0.8,0.1-1.7,0.9-2.1c0.4-0.2,0.9-0.2,1.2,0.2c0.6,0.6,0.7,1.6,0.1,2.2c-0.3,0.6-0.9,1.3,0,1.7
	c0.7,0.3,1.1-0.3,1.3-0.8c0.4-1.1,1.5-1.3,2.4-1.7c2-0.9,2.5-2.3,1.5-4c-0.5-0.9-0.1-1.3,0.7-1.3c0.7,0,1.5,0.1,2.2,0.3
	c0.6-0.1,1.2,0.2,1.5,0.7c2.7,4.3,5.4,8.7,8.4,12.8c0.2,0.3,0.3,0.7,0.2,1.1c-1.1,2.7-0.8,3.2,1.4,3.1c1.4,0,1.9,0.9,2.3,2
	c0,1-0.7,1.9-1.7,2.2c-1,1.6-0.4,3.4-0.6,5.1c-0.4,1-1.2,0.9-2,0.9c-1.5,0-3,0-4.4,0c-2.8,0.1-3.3,0.9-3.5,3.6c-0.2,3.1,1.2,6,0.9,9
	c0,0.5,0,1,0.1,1.5c-0.4,1.5-0.6,3.1-0.6,4.7c0,0.7,0.1,1.4,0.1,2.1c-0.2,2.6,0.3,5.2,0.2,7.8c-0.3,1.2,0.5,2.7-1,3.5L93.2,185.9z"
	/>
<path class="st0" d="M94.1,166.7c0.1-3.8-0.8-7.5-1-11.2c-0.1-1.8,0.6-2.6,2.4-2.5c2.1,0.1,4.3,0,6.4,0c0.7,0,1.5,0.4,2-0.5
	c0.9-0.3,0.3,1.3,1.2,0.9c3.4-0.5,6.7,0,10.1,0.1c0.8,0,1.4,0.6,1.5,1.4c0.5,2.3,0.8,4.6,0.9,6.9c-1.8,1.6-4,0.7-5.9,0.6
	c-1.7,0-3.4-0.4-4.9-1.1c-0.7-0.4-1.3-0.6-1.4-1.5c0-1.1,0.8-1.4,2.2-1.7c-0.7,0.2-1.5,0.4-2.2,0.6c-0.9,0.2-2-1.8-2.8,0.2
	c-0.4,1.8-1.6,1.8-3.1,1.4c-0.7-0.2-1.5-0.5-2,0.2s0.2,1.2,0.4,1.8c0.9,1.3,2.4,0.7,3.5,0.8c3,0.1,5.9,0.2,8.9,0.3
	c1.7,0.1,3.3,0,5-0.2c0.9,0,1.8,0.3,2.5,0.9l0.4,0.1c0,0.8,0.1,1.5,0.1,2.2c0.2,0.5,0.2,1.1,0.1,1.6c-0.4,0.9-1.2,0.9-2.1,1
	c-2.4,0.2-4.9-0.1-7.3-0.1c-3,0-5.9,0-8.9-0.1C97.8,168.7,95.4,169.2,94.1,166.7z"/>
<path class="st3" d="M73.5,202.4c-3-0.6-6-0.7-8.9-1.8c0.2-3.4,2.4-4.1,5.4-5c3.2-1,6.6-1.6,9.4-3.8c0.2-0.1,0.5-0.2,0.7-0.2
	c3.3,0.2,6.7-0.3,10,0.4c0.8,0.1,1.6,0.2,2.1,1c-0.6,0.8-1.5,0.8-2.3,1.1c-1,0.4-1,0.9-0.3,1.6c-0.6,1.7-2.3,0.7-3.5,1.4
	c1.4,0.8,3.7-0.6,4.4,1.8l-0.5,0.9c-3.9,0.8-7.6,0.1-11.3-1c-0.4-0.3-0.4-0.8-0.6-1.2c-0.2-0.5-0.7-0.7-1.2-0.6
	c-0.1,0-0.2,0.1-0.3,0.1c-0.6,0.5,0.4,0.8,0.4,1.2c-0.2,1.8-0.4,3.6-2.7,4.1L73.5,202.4z"/>
<path class="st4" d="M93.9,186.3c0-1.2,0.1-2.4,0.1-3.6c0.7-0.8,1.7-1.2,2.8-1.1c6.2-0.1,12.4-0.1,18.6,0c1.1,0,2.1,0.2,3,0.8
	c0.9,1.6,1.1,3.2-0.4,4.7H118c-0.5,0.5-1.2,0.8-1.9,0.7c-6.6-0.2-13.3,0.2-19.9-0.1c-0.8,0.1-1.7-0.3-2.2-1
	C94,186.6,94,186.5,93.9,186.3z"/>
<path class="st1" d="M79.8,193h-0.4c-0.5,0.4-1.2,0.3-1.6-0.2c-0.1-0.1-0.1-0.2-0.2-0.3c-1.4-1.1-1.4-2,0.3-2.7
	c1-0.4,1.7-1.2,2.8-1.3c0.6-1.1,1.7-1,2.8-1c2.1,0.2,4.1,0.4,6.2,0.3c0.7-0.1,1.3,0.2,1.8,0.6c1.1,0.6,1.7,1.9,1.3,3.2
	c-1.2,1.1-2.6,0.3-3.8,0.2c-2.3-0.2-4.4-0.3-6.5,0.8C81.5,193.1,80.6,192.6,79.8,193z"/>
<path class="st0" d="M94,186.8l22.2,0.2c0.6,0,1.2,0.1,1.8,0.1c-0.1,1.1-0.9,1.4-1.9,1.4c-6.6,0.1-13.3,0.8-19.9,0.1
	C95,188.5,94,188.3,94,186.8z"/>
<path class="st2" d="M118.1,187.2c0-1.5,0-2.9,0-4.4c-0.7-0.7-1-1.6-0.8-2.6c0.2-3.6,0.2-7.1,0.1-10.7c0-0.6,0.3-1.2,0.7-1.5
	c0-0.6,0-1.2,0.1-1.8c0.2,0.6,0.3,1.3,0.4,1.9c-0.1,2.9,0.4,5.9,1.5,8.6c1.1,2.9,1.2,6,1.4,9.1C121.5,187.6,119.9,188.2,118.1,187.2
	z"/>
<path class="st2" d="M78.9,197.9c3.7,0.9,7.4,1.4,11.1,1.8c-2.5,1.9-5.2,0.8-7.9,0.7c-0.9-0.1-1.7-0.3-2.6-0.6
	c0.4,2.4-1.8,3.4-5.1,2.6l2.2-4C77.1,197,77.9,197.2,78.9,197.9z"/>
<path class="st1" d="M83.8,188.5h-3.1c-0.9-0.9-2.2,0.4-3.1-0.4c1.3-2.1,3.8-3.1,6.2-2.7c1.6,0.5,3.4,0.5,5,0.1
	c1.5-0.5,2.9,0,4.4,0.3l-0.4,0.9c-2.2,1.4-4.5,1.3-6.9,1C84.9,187.7,84.2,187.7,83.8,188.5z"/>
<path class="st4" d="M144.4,220.6c1.7-0.8,1-2.7,1.8-3.9c1.4-0.2,1.8,0.8,1.7,1.7c-0.3,3.1,0.1,6.3-1.5,9.3c-0.5,1-1,1.9-1.6,2.9
	c-0.4,0.9-1,1.7-1.8,2.2c0.1-3.1,1.8-5.9,2-9.1C145.3,222.6,145.1,221.5,144.4,220.6z"/>
<path class="st3" d="M90.4,198.8c-1.1-0.4-2.3-0.6-3.5-0.4c-1.2,0.1-2.4-0.2-3.4-0.8c-0.4-0.2-0.8-0.4-0.7-1s0.5-0.5,0.8-0.6
	c1.9-0.7,4-0.3,6-0.4C90.6,196.5,91.2,197.5,90.4,198.8z"/>
<path class="st1" d="M79.8,193c4-1.9,8.6-2.3,12.9-1.3c-0.2,0.4-0.3,0.9-0.5,1.3C88,192,83.9,192.6,79.8,193z"/>
<path class="st2" d="M83.8,188.5c-1.5-1.9,0-1.9,1.2-1.7c2.6,0.4,5.2,0.4,7.7-0.1c-0.5,0.5-1.2,0.9-1.3,1.7
	C88.9,188.8,86.3,188.8,83.8,188.5z"/>
<path class="st2" d="M77.5,192.6l1.8,0.4c-3.8,1.6-7.3,3.7-11.5,4.3c-0.8,0.1-1.8,0.4-1.6,1.5c0.3,1.5-0.8,1.5-1.6,1.8h-0.5
	c0-0.1,0-0.2,0-0.4c-0.3-0.7-0.6-1.3-0.9-2c-1.6-3-1.1-4.3,1.8-6.3c1.3-0.9,2.1-2.2,3.9-2.2c1-0.1,2,0.1,2.9,0.7
	C73.5,191.5,75.3,192.6,77.5,192.6z"/>
<path class="st4" d="M111.7,128.4c1.1,0.3,1.5-0.5,1.6-1.3c0.5-2.5,1.6-4.9,3.3-6.8c1.4-1.7,2.2-3.8,2.3-5.9c0-0.4,0.1-0.9,0.4-1.2
	c2-2.8,2.5-6,2.3-9.4c-0.1-0.6,0.3-1.2,0.9-1.3c0.1,0,0.3,0,0.4,0c0.7,0,1.5,0,1.6-0.8c0.2-2.2,1-1.8,2.3-0.8
	c0.5,0.4,1.2,0.7,1.8,0.8c3.2,0.6,4.8,2.6,5,5.7c0,0.5,0.2,1.1,0.7,1.3c3,0.9,2.5,3.6,3,5.8c0.2,0.6-0.1,1.2-0.7,1.5
	c-2.7,1.2-6.6-0.8-7.2-3.9c-0.1-0.7,0-1.5-0.5-1.9c-2.1-1.8-1.5-3.2,0.9-4.5c-1.6-1-3.3-1-4.8-1.5c-0.7-0.2-1.2,0.4-1.4,1.1
	c-0.2,0.7,0.1,1.4,0.7,1.6c0,0,0,0,0,0c0.6,0.3,1.6,0.4,1.6,1c-0.1,2.6,1.1,4.4,2.5,6.5c0.7,1,1.1,2,2.2,2.6s1.6,1.2,1.1,2.5
	c-0.5,1.1,0.6,1.9,0.9,2.9c1.1,0.8,0.7,2.1,0.8,3.1c0,1.7,1.1,3.1,2.7,3.6c0.5,0.2,1.2,0.4,1.1,1.2c0.4,3.8,0.6,7.6,0.7,11.4
	c0,2.7-0.5,5.4-0.1,8.1c0.1,0.5,0,1.4-0.8,1.3c-0.6-0.1-0.5-0.8-0.6-1.3c-0.1-2.9-0.3-5.9-0.7-8.8c-0.5-2.4-2.2-4.5-1.6-7.4
	c0.5-2.4-1.8-3.3-3.3-4.6c-0.7-0.6-1.4-0.1-1.4,0.9c0,0.4,0.1,1-0.6,0.9c-0.4-0.1-0.6-0.4-0.6-0.8s0-0.9-0.1-1.3
	c-0.1-0.7-0.3-1.4-1-1.6s-1.2,0.3-1.6,0.9c-0.8,1.1-2.3,1.7-2.4,3.8c-0.4-0.7-0.9-1.3-1.3-1.9c-0.7-0.9-2-1.2-3-0.5
	c-1.5,1.2-2.7,2.7-3.6,4.5c-0.4,1-0.6,1.4-1.6,1.5c-1.8,0.2-2.8,1-2.7,3.1c0.1,1.1-0.4,2.1-1.3,2.7c-0.7,0.5-1.1,1.3-1.1,2.1
	c-0.1,1-0.9,1.8-1.9,1.9c-0.2-0.1-0.4-0.3-0.5-0.5c0.3-2.8,1-5.5,1.9-8.2c0.1-0.2,0.1-0.4,0.2-0.7c0.5-1.6,1-3.2,1.3-4.9
	C110,129.6,110.2,128.3,111.7,128.4z"/>
<path class="st0" d="M106.9,144.4v0.5l-0.4,0.9c-0.6-0.5-1.4-0.9-2.3-0.9c-2.1-0.6-2.1-2.4-2.2-4.1c-2.9-3.9-5.6-8-8-12.2
	c-0.5-0.8-0.9-1.7-1.4-2.5c-3.5-5.4-4.1-11.6-5.4-17.7c-0.7-3.2-1.4-6.3-2.1-9.5c2.1-0.5,2.2,1.4,3,2.3c0-0.7-0.3-1.8,1.2-2
	c1.1,0.4,0.9,1.3,0.9,2.2c0,1.7-0.6,3.5,0.9,5c2.1,2.8,3.4,6.1,5,9.1c2.6,4.9,4.6,10,6.2,15.4c0.9-3.2,1-6.9,2.7-10.2
	c2.1-1.7,2.4,0.7,3.3,1.5c0.5,0.5,1,1.1,1.5,1.5c0.9,1.4,0.8,2.6-0.7,3.8c-2.7,2-2.6,2.3,0.1,4.3c0.5,0.4,0.9,0.9,0.5,1.5
	c-0.5,0.9-0.4,1.9-0.7,2.7l0,0c-0.4,0.4-0.3,1-1.1,1.1c-2.3,0.1-3.5,2.1-2.1,3.9C106.7,142,107,143.2,106.9,144.4z"/>
<path class="st1" d="M155.1,176.1c-1.2,0.1-2.4-0.4-3.2-1.3c-0.9,0.4-1.4-0.2-1.7-0.9c-0.3-0.7-0.7-1.3-1.3-1.7
	c-1-1.4-2.5-2.3-3.4-3.7s-1.8-1.6-3.1-0.6c-2.4-1-1.1-2.6-0.7-4.1c0.7-1.6,0.1-3.8,1.9-5.1l0.9,0.5c0.3,0.4,0.9,0.3,1.4,0.6
	c1,0.6,1,1.6,1,2.5c0.1,1.2,0.6,2.3,1.5,3.1c-0.2-0.5-0.2-1,0-1.4c0.9-0.7,1.2-1.9,0.6-2.9c-1.1-3-2.3-6.1-2.3-9.4
	c-1-3.8-0.7-7.3,2.2-10.3c1.2,0.4,0.9,1.2,0.6,2c-1.8,4.1-0.3,8,1,11.8c1.3,3.9,4.3,7.2,5.3,11.3c0.2,0.6,0.6,1.2,1.2,1.6
	c1.8,1.4,1.9,1.7,0.5,3.8c-0.4,0.5-0.6,1-0.6,1.6C157,174.7,156.2,175.5,155.1,176.1z"/>
<path class="st1" d="M155.1,176.1c0.4-0.8,0.6-1.7,0.5-2.6c-0.4-1.7,0.9-2.6,2.2-3.8c-3.8-1.1-3.3-4.6-4.7-6.9
	c-0.3-0.5-0.3-1.3-0.7-1.8c-4-4.7-4.4-10.3-4.3-16.1c0-1.2,1.3-2.2,0.7-3.6l1.4-1.7c1.4,1.7,0.2,3.2-0.4,4.8s-1.4,2.8,0.1,4.2
	c0.1,0.1,0.3,0.4,0.2,0.6c-1.4,3.1,1.2,5.3,2.2,7.6c1.4,3.5,3.3,6.7,5.7,9.6c1.7,2,1.5,4,0.8,6.2c-0.3,0.7-0.6,1.5-0.9,2.2
	C157.6,176.6,156.3,176.2,155.1,176.1z"/>
<path class="st0" d="M105.1,157.8c1.2-0.1,2.5-0.3,3.7-0.4c0.6,0,1.3,0.1,1.2,0.9c-0.1,0.6-0.7,0.6-1.3,0.6
	c-0.4-0.1-0.9-0.1-1.3-0.1c-0.5,0-1,0.2-1.1,0.8s0.4,0.8,0.7,1c1.8,1,3.9,1,5.8,1.1c1.5,0.1,3.1,0,4.7,0l0.1,2.2
	c-0.7,0.5-1.5,0.1-2.3,0c-0.5-1.1-1.5-0.7-2.3-0.7c-1.2-0.1-2.5-0.1-3.7,0c-4.1-0.5-8.2,0-12.2-0.6c-0.4-0.3-0.8-0.6-1.2-0.9
	c-1.2-1.3-0.9-2.2,0.8-2.7c1.2-0.4,2.5-0.3,3.7,0.3c0.4,0.2,1.2,0.7,0.8-0.6C102.2,157.4,103.8,158.3,105.1,157.8z"/>
<path class="st4" d="M149.7,171.2c-2.3,0.2-4.5,0.6-6.7,1.2c-0.5-0.4-0.8-1.1-0.9-1.7c0.6-1-1-2.2,0.4-3.1c0-1.4,0.7-2.6,1.7-4.3
	C145,167.1,147.4,169.1,149.7,171.2z"/>
<path class="st0" d="M137.4,130.1c-4.5-0.9-4.7-4.3-4.5-7.9c0.1-0.7,0.3-1.4,0.4-2.2c0.2-2.3,0.9-3,3.2-2.8c3.9,0.3,5,1.9,4.8,7.1
	l-0.1-0.1c-0.1,0.1-0.4,0.2-0.6,0.1c-0.6-0.5-0.4-1.2-0.5-1.9c-0.3-1.5-1.6-2.5-3.2-2.6c-1.5,0.2-1.9,1-2,2.5
	c-0.3,3.5-0.1,4,3.2,5.5c0.4,0.5,1,0.9,0.8,1.7L137.4,130.1z"/>
<path class="st4" d="M146.6,151.6c1.2,3.2,2.4,6.5,3.5,9.7c0.4,1.2,0.8,2.6-1.2,2.8c-1.5-0.1-1.8-1.4-2.1-2.4
	c-0.3-0.8-0.5-1.4-1.5-1.6c-0.7,0.1-0.9-0.3-0.9-0.9c1.9-0.3,2-1.9,1.8-3.2C145.8,154.4,146.3,153,146.6,151.6z"/>
<path class="st4" d="M143.5,158.7c0.1,1.8-0.2,3.7-0.9,5.3c-1.7,1.1-2.4-0.1-3.1-1.3c0-1.5,0-3.1,0.1-4.6c0.1-0.7,0.1-1.6,0.9-1.8
	s1.3,0.6,1.8,1.1S143.1,158.2,143.5,158.7z"/>
<path class="st0" d="M144,214.6l-0.1,1.2c-1.9-0.7-3.5-1.5-2.8-4c0-0.6-0.2-1.2-0.6-1.6c-0.7-1-1-2.4-0.7-3.6
	c0.1-0.6-0.3-1.5,0.7-1.7s1.5,0.7,1.6,1.5C142.4,209.2,142.6,212,144,214.6z"/>
<path class="st4" d="M139.5,162.7l3.1,1.3c0,1.2-1.1,2.4,0,3.6c0.4,1.1,1,2.3-0.4,3.1C139.5,168.6,140,165.5,139.5,162.7z"/>
<path class="st2" d="M105.1,153.4c-0.9,0.4-0.9-0.6-1.2-0.9c-0.1-1.5-0.1-3-0.2-4.6c0-0.4-0.1-0.8,0.4-0.8s0.6,0.5,0.7,1
	C104.8,149.8,104.4,151.6,105.1,153.4z"/>
<path class="st5" d="M140.7,124.4h0.5c-1,1.7-0.5,4-2.2,5.4l-1.3-0.8C138.6,127.4,138.7,125.3,140.7,124.4z"/>
<path class="st2" d="M143.9,115.5c-0.1-0.9-1.8-1.9-0.4-2.5c1.1-0.5,0.7,1.4,1.3,2L143.9,115.5z"/>
<path class="st0" d="M109.2,124.4c-1.1-0.1-1.3-0.9-1.3-1.8c-0.3-1-0.4-2.1-0.1-3.2c0.4-2.1,0.8-4.1-0.6-6c-0.1-0.6-0.2-1.1-0.4-1.7
	c1.5-6.2,2.9-12.3,4.4-18.5c0.1-0.7,0.4-1.4,0.9-2c0.7-0.5,1.6-0.4,2.2,0.2c0.7,0.6,1.7,1,2.6,0.9c1.1,0.3,2.5,0.3,2.1,2.1
	c-1.3,8.6-3.1,17-5.4,25.4c-1.1,0.7-1.1,2-1.4,3.1C111.6,125.6,111.3,125.7,109.2,124.4z"/>
<path class="st2" d="M109.2,124.4c1.3,0.4,2.1,0.1,2.3-1.4s0.7-2.8,1.1-4.2c0.9,0,0.7,0.8,1.1,1.2c-0.6,2.8-1.2,5.6-1.9,8.4
	c-1,2.5-1.3,5.2-2.5,7.6c0-0.6,0-1.2,0.1-1.8c0.2-0.9,0.1-1.3-1-1.5c-1.3-0.1-2.4-1.1-2.6-2.4c-0.2-1.5,0.7-2.2,1.8-3
	C108.4,126.6,110.5,126.3,109.2,124.4z"/>
<path class="st0" d="M119,94.5l-2.2-1.4c-0.4-0.4-1-0.7-1.4-1.1c-0.7-0.7-0.8-1.7,0.1-2c1.7-0.5,2.2-2.2,3.5-3.1
	c0.8,0.5,0.9,1.4,0.9,2.3C119.9,91,119.6,92.8,119,94.5z"/>
<path class="st3" d="M113.2,85.5c0-3.3,0-3.2-3.1-3c-2.4,0.2-4.8-0.1-7.1,1.1c-1.4,0.7-5.4-2.2-5.9-4.2c-0.4-1.8-1.2-3.3-1.6-5.1
	c-0.1-0.7-0.5-1.3-1.1-1.6c-1-0.7-1.7-1.7-1.9-2.9c-0.9-2.8-1.7-2.8-4.1-1.3c-2.5,1.6-3.6,3.5-3,6.5c0.2,0.8,0.4,2.6-1,2.8
	c-1.3,0.2-2.5-0.7-2.8-2c0.8-1.7,1.6-3.3,1.1-5.3c-0.2-0.9,0-1.8,1.2-1.9c0.7-0.9,1.1-1.9,1.4-3c0.9-2.3,2.8-3.1,5-1.8
	c3.6,2.3,7.6,2.4,11.7,2.1c0.8-0.1,1.6-0.1,2.4,0c1.8,0.3,2.5,1.6,1.8,3.2c-0.5,1-0.9,2.1-0.3,2.9c0.8,1,2.1,0.6,3.1,0.1
	c1.6-0.7,2.4-0.1,3.1,1.3c1.4,2.7,2.7,5.3,1.8,8.4c-0.1,0.6,0,1.2,0.4,1.7l0,0c0.5,0.7,0.6,1.4-0.2,1.9
	C113.6,85.8,113.3,85.7,113.2,85.5z"/>
<path class="st2" d="M120.8,34.3c1.8,3.2,2.6,6.3,0.5,9.7c-0.5,0.8,0.3,1.5,0.4,2.3c0,0.2,0,0.3,0,0.4c-0.9,3.1-2.5,6.1-4.6,8.6
	c-1.2,1.4-2.1,1.9-3.9,1.2c-2.3-0.8-4.7-1.4-7.1-1.8c-0.8-0.5-1.7-0.8-2.7-0.9c-1.1-0.7-2.4-0.7-3.5-0.1c-0.6,0.2-1.2,0.6-1.8,0.1
	l0,0c-2-0.9-3.9-1.8-6.1-0.7c-1.2,0.6-2-0.1-2.6-1c-0.4-0.6-0.7-1.3-1.6-1.5c-1.8-1.1-2.2-2.4-1.4-4.9c1.8-0.6,3.7,0.4,4.3,2.1
	c0.5,1.4,1.4,1.7,2.6,2c2.7,0.8,5.3,1.3,8.2,0.3c2-0.7,4.2,0.1,6.2,1c2.8,1.3,3.2,1.2,5.1-1.3c1-1.4,2.9-1.7,3.6-3.6
	c0.8-2.2,1.8-4.4,3-6.4c0.5-0.9-0.1-1.9-0.2-2.8c-0.2-1.2-0.5-2.3,0.7-3.2C120.2,34,120.5,34.1,120.8,34.3z"/>
<path class="st2" d="M86.9,45.9c-0.3,1.7,0,3.4,0.9,4.9c0.4,1.9,1.4,3.6,1.1,5.8c-0.2,1.5-0.5,2.6-1.6,3.4c-3.1,2.1-3,5.5-3.5,8.7
	c-0.8,1.5-0.4,3.3-0.8,4.9c-0.2,0.9-0.4,1.9-1.4,2.3l-1.8,0.4c0.3-0.7,0.9-1.1,1.4-1.7c0.9-0.9,1.3-2.2,0.8-3.4
	c-0.8-1.9-0.5-4,0.9-5.6c-0.7-2.7,0.3-5.2,1.2-7.6s1.9-4.3,1.3-6.9c-0.5-2.2-0.3-4.6-0.3-6.9s-0.5-4.7,0-7.1
	c0.9,2.3,0.1,4.9,1.4,7.1C87.6,44.5,87.4,45.1,86.9,45.9z"/>
<path class="st3" d="M106,54.8c2.6,0.5,5.3-0.6,7.8,0.8c1.2,0.7,1.8,0,2.6-0.9c2.1-2.4,3.9-5,5.3-7.9c-0.4,3.1-1.6,6-3.4,8.5
	c-0.5,0.7-1,1.5-1.5,2.2l-1.4,0.7c-1.1,0.5-1.7,1.9-3.1-0.3C111.2,56.2,108.2,55.8,106,54.8z"/>
<path class="st3" d="M98,54c0.9-0.3,1.8-0.5,2.7-0.8s2-0.4,2.6,0.8C101.6,53.6,99.8,54.7,98,54z"/>
<path class="st0" d="M119,86.9c-0.1,1-0.2,2-0.4,3.1c-0.1,0.6-0.3,1.2-1.2,0.9c-0.5-0.2-1.2-0.7-1.6,0.1s0.5,1,0.6,1.6
	c0.1,0.2,0.1,0.4,0.2,0.6c-1.4-0.4-3.4,0.5-4-1.8c-0.6-0.4-0.8-1.2-0.4-1.8c0,0,0.1-0.1,0.1-0.1c1.3-0.4,2.2-1.5,2.2-2.9
	c0-1.2,1.1-1.8,1.6-2.8C117.7,84.4,119.5,84.7,119,86.9z"/>
<path class="st0" d="M116.3,83.8c0.2,1.9-0.7,3.5-1.1,5.3c-0.2,1-1.2,0.8-2,0.5c-1.8-1.6-0.6-2.8,0.5-4c0.3-0.5,0.5-1.2,0.5-1.8
	L116.3,83.8z"/>
<path class="st0" d="M39.2,161.8c0.2-3.2,0.6-3.5,3.4-2.1c5.4,2.8,11.2,4,16.9,5.6c1.6,0.4,2.6,1,2.1,2.9c-0.3,1.4,0.3,2.6,0.8,3.8
	c-0.6,0.7-1.2,0.5-1.8,0c-1.2-1.7-2.9-2.9-4.9-3.6c-1.8,0.3-3.7-0.3-5.6,0.4c-0.6,0.2-1.2,0.1-1.7-0.2c-2.8-1.4-5.9-2.5-8.8-3.7
	l-0.4-1.3L39.2,161.8z"/>
<path class="st5" d="M39.6,164.9c1.1-0.6,2.4-0.5,3.4,0.1c2.1,1,4.3,1.6,6.3,2.8c1.2,0.8,2.5,0.1,3.7,0.1c1,0,1.9-0.3,2.7,0.5
	c-3.6,0.4-7,2.8-10.8,0.6c-1.2-0.7-2.4-1.4-3.6-2.1c-0.5-0.4-1.1-0.5-1.7-0.4C39.6,166.1,39.6,165.5,39.6,164.9z"/>
<path class="st1" d="M86.9,182.3c-3.3,0-6.1-1.6-8.8-3.3c-0.6-0.4-1.3-0.7-1.9-1.1c-0.3-1.7,0.5-2.1,1.8-1.4
	c1.7,0.8,3.3,1.7,4.9,2.7c1,0.8,2.2,1.2,3.4,1.2c0.6,0,1.3,0,1.5,0.7S87.3,182,86.9,182.3z"/>
<path class="st10" d="M86.9,182.3c0.4-0.6,0.9-1.6-0.3-1.6c-3.2-0.2-5.5-2.2-8.1-3.6c-1.1-0.6-1.8-0.4-2.2,0.7
	c-0.7-0.6-2.2-0.8-1.8-1.9s1.8-0.4,2.6-0.2c1.8,0.4,3.5,1.1,5,2.2c1.9,1.6,4.3,2.4,6.7,2.2c0,0.3,0,0.6-0.1,0.9
	C88.5,182.1,87.8,182.3,86.9,182.3z"/>
<path class="st0" d="M39.6,111.9c2.1,0.1,4.3-0.2,6.4-0.6c0.8-0.3,1.6-0.2,2.4,0.2c1,0.7,1.9,1.1,2.6-0.3c0.3-0.4,0.8-0.5,1.2-0.3
	c0.5,0.2,0.7,0.8,0.5,1.3c-1.7,4.9-1.3,10.2-3,15.1c-0.2,0.8-0.8,1.4-1.6,1.6c-1,0.2-1.3-0.4-1.4-1.3c-0.2-0.8-0.4-1.3-1.3-1
	c-1.2,0.3-1.3-0.6-1.6-1.4c-0.5-1.8-0.9-3.7-1.1-5.6c-0.3-2.3-1.3-4.5-2.8-6.4C39.5,112.9,39.4,112.4,39.6,111.9z"/>
<path class="st2" d="M39.6,111.9c2.8,1,3.2,3.4,3.6,6c0.5,3,0.6,6,2.2,8.8c0.3,4.6,0.3,4.6-4,5.4c-3.7,0.7-3.8,0.7-4.4-3.1
	c-0.7-4.2-1.8-5.1-6.1-4.8c-1,0.1-1.4-0.4-1.4-1.2c-0.3-1.5,0.7-2.9,2.2-3.2c0.1,0,0.1,0,0.2,0c1.8-0.2,1.8-1.2,1.6-2.5
	c-0.1-0.4-0.1-0.9-0.2-1.3c-0.6-3.4,0.8-4.7,4.2-4.2C38.2,111.8,38.9,111.8,39.6,111.9z"/>
<path class="st3" d="M67.7,139.5c-0.9,0.4-1.4-0.1-1.7-0.8c-0.4-0.9-0.9-1.7-1.5-2.5c-0.1,2-1.5,2.8-3,3.4c-0.9,0.2-1.3-0.2-1.2-1.1
	c0.2-2.8,0.1-5.5-1.8-7.9c-0.4-0.5-0.1-1,0.3-1.4c0.7-0.9,1.7-0.8,2.7-0.9c2-0.6,2.5,1.2,3.1,2.4c0.9,1.7,1.6,3.5,2.7,5.1
	C68,137,68.1,138.3,67.7,139.5z"/>
<path class="st3" d="M63.3,120.9c0.9,0.2,1.2,1.1,1.6,1.8c1.1,2.1,2,4.3,3.3,6.3c1.4,1.9,1.7,4.4,0.9,6.6c-0.4,0.4,0.1,1.3-0.7,1.4
	c-0.6,0.1-0.7-0.6-1-1c-1.8-2.7-2.9-5.8-4.6-8.5c-0.4-0.6-0.5-1.4-1.2-1.8C62.1,124,63.9,122.9,63.3,120.9z"/>
<path class="st3" d="M42.3,137.7c-2.2,1.9-2.3,2.6-0.6,5c2.8,4,2.8,4,5,2.8c-0.2,2.8-2.7,3.1-4.3,4.2c-0.6-1.9-1.5-3.7-2.8-5.2
	c-0.6-0.8-1.9-1.3-1.2-2.7C39.3,140.1,39.5,137.6,42.3,137.7z"/>
<path class="st3" d="M61.5,125.6c1.6-0.7,2,0.6,2.3,1.6c0.8,2.9,2.8,5.2,3.8,7.9c0.2,0.6,0.6,1.7,1.4,0.3c-0.1,1.4-0.1,3-1.4,4
	c-0.7-3.1-2.8-5.5-3.7-8.5c-0.4-1.3-1.8-1.7-2.5-2.7L61.5,125.6z"/>
<path class="st1" d="M58.8,129.2c2.6,2,1.5,5.4,2.9,7.8c0.5,0.9-1.5,1.6-0.1,2.5l-1.4,0.8c-1.6-2.9-1.6-6.4-3.2-9.4
	c-0.1-0.2,0.1-0.6,0.1-0.9C57.4,129.6,58.1,129.3,58.8,129.2z"/>
<path class="st3" d="M57,130.1c2,1.9,2.9,4.7,2.6,7.4c0,0.9,0.2,1.9,0.5,2.8l-0.9-0.9c-0.9-2.3-1.9-4.6-2.8-6.9
	C56.1,131.7,55.9,130.8,57,130.1z"/>
<path class="st3" d="M45.9,136c2.3-0.2,2.4,1.7,3.1,3.1c-0.1,0.1-0.2,0.2-0.4,0.3c-2.5,2.1-2.9,2-4.1-1.2h-0.1
	C45.1,137.6,45.6,136.8,45.9,136z"/>
<path class="st3" d="M35.6,157.1c0.4,1.2,1.2,2.3,0.4,3.5c-0.2,0.1-0.4,0.1-0.6,0C34.5,159.4,35.4,158.3,35.6,157.1z"/>
<path class="st1" d="M148.4,204.2c0.8-1.4,0-3.1,0.8-4.5c0.8-3.9,2-7.8,3.3-11.6c0.2-0.5,0.3-1.2,1.1-0.9c1.3-1.2,1.2-3.5,3.3-4.3
	c-2.3,3.4,0.2,7.6-2.3,11c0.9,3.5-1.9,6.4-1.3,9.9c0.2,2.4-0.4,4.8-1.7,6.7c-0.8,1.4-1.1,2.9-1.1,4.5c0.1,1.3-0.4,2.5-1.4,3.4l0,0
	c-0.9-0.4-1-1.2-1-2c0.2-3.4,0.8-6.9,1.8-10.1c0.4-1.4,0.2-2.8,0.6-3.6c-0.3,1.2-0.2,3-1.2,4.6c-0.4,0.6-0.6,1.4-1.6,1
	C148,206.8,147.8,205.5,148.4,204.2z"/>
<path class="st1" d="M153.7,187.2l-4.5,12.5c0.1-1.3,0.3-2.7,0.4-4c0.1-0.4,0.3-0.9,0.4-1.3c0.4-0.5,0.5-1.1,0.4-1.7
	c-0.8-3.4,1-6.3,1.4-9.4c0-0.2,0.3-0.3,0.5-0.5c0-1.8,0-3.6,0-5.3c2.2,1.8,3.2,3.9,1.9,6.8C154,185.2,153.8,186.2,153.7,187.2z"/>
<path class="st4" d="M147.9,208.2c1.7-2.4,1.4-5.3,2.4-7.9c0.2-0.5,0.1-1.4,0.9-1.3c0.9,0,0.8,1,0.8,1.6c-0.1,2.3-0.4,4.6-1,6.9
	c-0.8,3.6-1.7,7.3-1.6,11c-0.6,1-0.8,2.2-0.7,3.4c0.2,3.5-1.3,6.3-3.7,8.6c1.4-3.9,2.1-8,1.9-12.2c-0.1-0.6-0.3-1.1-0.6-1.6
	C146.5,213.8,147.1,210.9,147.9,208.2z"/>
<path class="st3" d="M57.9,149.8c0,1.2,0,2.4,0.1,3.5c0.3,2.1-1,4-3.1,4.4c-0.1,0-0.3,0-0.4,0c-1.8,0.2-3.1-1.3-3.3-3.6
	c0-0.2,0-0.4,0-0.7c-0.2-4.3-0.1-4.4,4-5.2C56.6,147.9,57.1,149.1,57.9,149.8L57.9,149.8z"/>
<path class="st5" d="M57.9,149.8c-0.1-2.2,0.1-4.3,1.5-6.1c1.2-1.9,3.8-2.4,5.7-1.2c0,0,0,0,0,0c3.2,2,4.6,5.9,3.5,9.4
	c-0.6,1.8-1.6,3.3-3.8,3.6c-2.1,0.5-4.3-0.5-5.3-2.4C59,152.1,58.5,150.9,57.9,149.8L57.9,149.8z"/>
<path class="st5" d="M71.4,163.6c-1.8-1.3-3.2-3.3-5.7-2.5c-0.4,0.1-0.5-0.2-0.6-0.5c-0.2-0.6,1.3-3.6,1.9-3.8
	c0.2-0.1,0.4-0.1,0.6,0c0.4,0.3,0.5,0.8,0.2,1.2c-0.3,0.8-0.9,1.8,0.2,2.3s1.9-0.1,2.6-0.7c0.9-0.8,1.7-1.6,2.6-2.4
	c0.5-0.5,0.8-0.9,1.4-0.2c0.4,0.5,0.9,1.1,0.2,1.8C72.2,161.2,72.2,161.2,71.4,163.6z"/>
<path class="st5" d="M76.4,161.9c1,0.5,1.2,1.3,0.8,2c-0.9,1.5-1.9,3-2.9,4.4c-0.2,0.4-1,0.6-1.1,0.3c-0.3-2.3-2.6-2.5-4.4-4.1
	c2.1,0,3.5-0.3,4.4,1.3c0.4,0.9,1,0.7,1.5,0C75.5,164.8,76.2,163.4,76.4,161.9z"/>
<path class="st11" d="M44.6,138.2c0.2,0.1,0.5,0.2,0.6,0.3c1,1.8,2.4,1.6,3.9,0.6c-0.8,0.7-0.7,2.2-1.8,2.4
	C45.3,142,44.4,140.6,44.6,138.2z"/>
<path class="st12" d="M74.8,162.7c-0.1,0.4-0.2,0.8-0.6,0.9s-0.6-0.4-0.6-0.8s0.1-1,0.6-0.9C74.7,161.9,74.7,162.4,74.8,162.7z"/>
<path class="st2" d="M85.1,44.1c1,3,0.9,6.2,1.7,9.3c0.2,0.8-0.3,1.6-0.4,2.3c-0.1,1.6-1.2,2.5-1.9,3.7c-1,1.8-1.2,4-1.8,6
	c-2-2.4,0.2-4.8,0.2-7.1c0-1.2,0.9-2.3,0.7-3.5c1.1-2.9,0.3-6,0.7-9C84.6,45.1,84.5,44.6,85.1,44.1z"/>
<path class="st13" d="M79.8,76.2c0.6,1.3,1,2.6-1.3,2.3C78.4,77.6,78.9,76.7,79.8,76.2z"/>
<path class="st2" d="M89.2,99.3v4.7c-2-1.6-2.4-3.8-4-5c-0.8-1.9-2-3.7-2.4-5.7c0.4-0.3,0.8-0.7,1.2-1s1.2-0.9,0.8-1.7
	s-1-0.4-1.6-0.3c-1.1,0.2-1.1-0.8-1.3-1.4c-0.6-1.7-1.1-3.4-1.6-5.1c-0.7-1.3-0.3-2.4,1.1-2.7s2.9-1,3.9,0.8
	c0.4,0.8,0.8,1.6,1.2,2.4c1,0.3,1.7,1.1,1.8,2.1c0.9,3.2,1.5,6.5,1.9,9.8C90.3,97.2,90.4,98.5,89.2,99.3z"/>
<path class="st4" d="M107.9,112l-0.1,1.6c0.7,2.7,0,5.5-1.8,7.6c-1.5,4.3-2,8.9-3.5,13.3c-1-3.2-2.1-6.4-3.2-9.5
	c-2.3-6.2-5.6-11.9-8.4-17.8c-1-2.6-0.9-5.5,0.2-8.1c0.6-1.5-0.3-3-1-4.2c-1.5-2.9,0.2-5.8-0.4-8.6c-0.1-0.7,0.5-1.2,1.3-1
	c3.6,0.2,7.1,1.4,10.7,1.4c1.1,0.3,2.2,0.4,3.2,0.2c0.8,0,1.8,0,1.8,0.8c0,1.7,1.2,2.1,2.1,2.9c0.9,0.7,1,2,0.3,2.8c0,0,0,0,0,0
	c-0.5,0.5-0.4,1.3,0.1,1.8c0,0,0.1,0.1,0.1,0.1c0.8,0.8,1,2,0.4,3c-2,3.5-2,7.5-2.6,11.3C107,110.6,108.2,111,107.9,112z"/>
<path class="st1" d="M107.9,112c-1.7,1.1-2.4-0.1-2.1-1.3c0.8-4.2,0.5-8.7,2.8-12.6c0.6-1,0.9-1.6-0.8-1.9c-2.1-0.5-1-1.8-0.4-2.9
	c0.3-0.6,1.6-0.7,1-1.7s-1.4-0.6-2.2-0.5c-0.6,0.1-1.2,0.5-1.6-0.2s0.1-1.1,0.5-1.6s1.1-1,0.6-1.7s-1.2-0.4-1.8-0.2
	c-0.9,0.2-1.5-0.3-2.2-0.7c3.9-0.1,7.8,0.3,11.5-1l0.5,0.1l-0.5,4c-0.4,0.5-0.5,1.2-0.4,1.8c-1.4,6-2.8,12-4.2,18
	C108.4,110.3,108.1,111.1,107.9,112z"/>
<path class="st5" d="M90.9,85.1c-0.4,0.7-0.5,1.6-0.1,2.3c0.4,1.2,0.8,2.3-0.4,3.4c-0.4,0.5-0.4,1.2,0,1.7c1.1,1.5,1.2,3.3,1.9,5
	c0.2,0.6,0.5,1.4,0,1.9c-1.9,2-1.8,4.4-1.3,6.8c0,0.3-0.2,0.6-0.2,0.8c-1.2-1.1-1.3-2.6-1.3-4.1c0.1-1.3,0-2.5-0.3-3.7
	c-0.1-5.1-1.1-10.2-2.8-15C88.1,83.6,89.5,84.5,90.9,85.1z"/>
<path class="st2" d="M120.8,34.3h-0.9c-2.2,0.9-4.3,0-6.1-0.9c-2.2-1.1-4.4-2.5-5.4-5.1c-0.1-0.3-0.1-0.5,0-0.8
	c0.1-0.9,0.1-1.8,0.2-2.6c0.3-3.3,2.4-4.7,5.7-3.9l0.2,0.3c0.2,0.5,0.8,0.9,1.3,0.9c0.6,1.4,0.4,2.4-1.3,2.7s-2.3,1.4-1.8,3.1
	c0.8,1.5,1.7,1.8,3.1,0.9c1.5-0.6,3.7,0.6,4.5-1.8C121.2,29.5,121.3,32,120.8,34.3z"/>
<path class="st4" d="M115.8,29c0.5,0.8,1.6,1,2,2.5c-2.3-0.6-4.5-1.4-6.7-2.4c-0.3-0.1-0.4-0.4-0.3-0.7c0,0,0-0.1,0-0.1
	c0.5-0.7,1.2-0.2,1.8-0.3L115.8,29z"/>
<path class="st4" d="M105.6,10.7c1.2,0.9,2.6,0.4,4,0.5c1.9,2.8,3.7,5.6,5.8,8.2c1.1,1.4,0.8,1.9-0.9,2l0,0
	c-3.7-1.3-5.8,0.2-5.8,3.9c0,0.9-0.2,1.9,0.5,2.8l0,0c0.4,1.6-0.3,2.2-1.9,2.1c-1.9-0.2-3.8-0.2-5.4,1.1c-0.2,0.2-0.4,0.3-0.5,0.5
	c-3,0.9-5.7,2.4-8.1,4.4c-1.4,1-3.1,1.2-4.6,0.6c-1.5-0.4-2-1.2-1.9-2.8c0.2-2.8,2.4-5.5,5-5.8c0.5-0.1,1-0.2,1.2,0.2
	c1,1.8,2.2,0.9,3.4,0.3c0.3-0.3,0.8-0.4,1.2-0.4c2.3,0.4,4.6-0.9,5.5-3.1c0.5-0.5,0.5-1.3,1-1.9c1.2-1.5,1-2.2-0.8-3.1
	c-0.7-0.2-1.4-0.5-2-0.8c0-0.1-0.1-0.2-0.1-0.3c-1.1-0.7-2.4-0.3-3.6-0.5s-2-0.5-0.8-1.7c4.2,0.2,8.4,1.1,13.2,1.4
	C104.9,16.9,104,15.1,105.6,10.7z"/>
<path class="st4" d="M105.6,10.7c0.7,1,1,2.2,0.7,3.4c-0.5,1.6,0.4,2.3,1.8,2.6c1,0.2,2.1,0.2,3.1,0.4c0.7,0.1,1.5,0.6,1.5,1.4
	s-1,0.8-1.6,0.9c-1.9,0.4-3.8-0.1-5.7-0.3c-2.2-0.4-4.5-0.7-6.8-0.8c-1,0-1.8-0.2-2-1.3c0.6-0.7,0.9-1.6,1.1-2.5
	c0.4-2.6,1.8-3.7,4.5-3.7L105.6,10.7z"/>
<path class="st4" d="M98,25.4c0.9-0.8,1-2.2,0.4-3.2c-1.3-2.5-1.1-3,1.9-3h0.8c0.9,0.8,2.8,0.6,2.8,2.5c-0.6,1.4,0,3-0.9,4.4
	c-0.5,0.7-0.7,1.5-1.7,1.5c-0.9-0.4-1.5-1-2.5-1.1c-0.4,0-0.8-0.3-0.8-0.8C98,25.6,98,25.5,98,25.4z"/>
<path class="st3" d="M98,25.4c1,0.7,2.7,0,3.1,1.8c-0.1,0.5-0.5,0.9-1,0.9c-1.2-0.2-2.4-0.2-3.6,0c-0.6,0.1-1.3,0.1-1.9-0.1
	c-0.6-0.3-1.6-0.1-1.5-1.2s1.1-0.8,1.8-0.9l0.9-0.4L98,25.4z"/>
<path class="st2" d="M101.1,30.8c1.4-1.7,3.4-1.5,5.3-1.4c1.1,0,2.3,0.2,2.7-1.2c1.5,2.9,4.3,4.8,7.6,5.1c1.1,0.3,2.1,0.7,3.1,1.2
	c0.4,1.5,0.1,3.1,1.4,4.3c0.4,0.4,0.2,1-0.1,1.4c-1.5,1.8-2.6,3.9-3.4,6.2c-0.5,1.1-1.2,2-2.2,2.8c-0.9,0.8-1.7,1.8-2.4,2.9
	c-1,1.7-2.4,2.3-4.3,1.3c-3.1-1.6-6.2-2.7-9.7-1c-1,0.5-2.2,0.4-3.2-0.1c-1.3-0.8-2.9-1.2-4.5-1c-0.8,0.1-1.8-0.1-1.7-1
	c0.4-2.4-1.5-3.1-2.9-4.2c0-0.6-0.1-1.3-0.4-1.8c0.2-2.8,0.1-5.7-0.4-8.5c-0.3-1.5-0.1-3.1,0.8-4.5c0.8-3,3.3-3.2,5.8-3.5
	c1.1-0.1,2,0.5,3,0.7c0.5,0.1,0.9,0.6,1,1.1c-1.5,0.6-2.9,2.2-4.4-0.3c-0.6-1-2.2-0.2-2.9,0.9c-0.3,0.6-0.5,1.2-0.9,1.8
	c-0.8,1-1.8,2.2-0.6,3.3c1.1,1.1,2.8,1.3,4.1,0.5c1.1-0.6,2-1.5,3.1-2.1C97.1,32.4,99.1,31.6,101.1,30.8c0.5,1.4-0.4,2.3-1.4,3.1
	c-0.3,0.8-1.7,0.9-1.3,2c0.2,0.7,1,0.8,1.8,0.7c0.1-0.9-1-1.6-0.4-2.6c0.8-0.7,1.6-1.3,2.5-1.8c0.4-0.3,0.8-0.4,1.3-0.4
	c1.6,0.6,3.3,1,5,1.2c0.7-0.1,1,0.6,1.7,0.8c-0.1-0.8-0.8-0.8-1.1-1.2c-0.4-0.5-0.9-0.8-1.5-0.9c-1-0.4-2,0.5-3,0
	c-0.3-0.1-0.6-0.2-0.9-0.2C102.8,31.7,101.8,31.4,101.1,30.8z"/>
<path class="st4" d="M95.3,29c-1-0.2-1.9-0.7-2.7-1.3c0-0.5,0.1-1,0.2-1.5c0.5-1.5,1.2-1.6,2-0.2c-0.3,0.4-1,0.4-1.2,1.1
	c1.4,0.7,2.9,0.3,4.3,0.2c0.8,0,1.6-0.2,2.2,0.5c0.5,0.8,0,1.1-0.7,1.2C98.2,29.3,96.7,29.4,95.3,29z"/>
<path class="st0" d="M118.1,169.4v13.4h-24v-8.5c-0.2-0.2-0.3-0.6,0-0.9c0,0,0,0,0,0c0-1.8,0-3.6,0.1-5.3c1.8,0,1.5,1.8,2.2,2.6
	c0.1,1.7,1.1,2.4,2.8,2.5c2.5,0.4,5.1,0.1,7.4-0.8c0.8-0.2,1.6-0.2,2.4,0c2.2,0.2,4.4,0.9,6.4-0.6
	C116.1,171,116.3,169.3,118.1,169.4z"/>
<path class="st3" d="M118.1,169.4c-1.2,1.1-0.6,2.8-1.3,4c-1.7-2.4-4.2-2.7-6.8-2.6c-4.9,0.2-9.7-0.8-14.6-0.1
	c-1.1-0.5-0.5-2-1.3-2.7c0-0.4,0-0.9,0-1.4c2.2,0.7,4.6,1.1,7,1.1c2.9,0.1,5.8-0.4,8.6-0.1c2,0.2,4.2,0.8,6.3,0
	c0.8-0.3,1.4,0.1,2.1,0.2L118.1,169.4z"/>
<path class="st2" d="M102,140.9c1.3,1,1.2,2.9,2.2,4.1C100.6,144.6,100.4,144.2,102,140.9z"/>
<path class="st4" d="M89.8,168.2c-0.1,0.7-0.4,1-1,1s-0.9-0.2-1-0.8c-0.1-0.7,0.5-0.8,1-0.9c0.4-0.1,0.8,0.1,0.9,0.5
	C89.8,168.1,89.8,168.2,89.8,168.2z"/>
<path class="st4" d="M94,173.4c0,0.3,0,0.6,0,0.9c-0.7,0.1-1.4,0.6-1.9-0.3c-0.2-0.3-0.1-0.8,0.2-1c0,0,0,0,0,0
	C93,172.5,93.4,173.1,94,173.4z"/>
<path class="st0" d="M97.1,162.7c3.5-0.9,7-0.3,10.5-0.5c0.6,0,1.3,0,2,0c0.7,0.4,1.1,1,0.4,1.8c-3.2,0.2-6.5,0.1-9.7-0.3
	C99.3,163.6,97.7,164.6,97.1,162.7z"/>
<path class="st4" d="M110.1,164c-0.1-0.6-0.3-1.2-0.4-1.8h4.5c1.2,0,1.8,0.5,1.2,1.8C113.6,164.4,111.8,164.9,110.1,164z"/>
<path class="st4" d="M105.1,157.8c-1.1,1.1-2.6,0.8-4,1c-0.5-1-0.3-1.5,0.9-1.5C103,157.3,104.1,157.4,105.1,157.8z"/>
<path class="st1" d="M78.9,197.9c-0.8-0.1-1.5,0.1-2.2,0.4c-0.6-0.1-1.1-0.2-1.7-0.4c-0.6-0.2-1-0.8-0.9-1.4
	c0.1-0.6,0.8-0.6,1.2-0.8c1.2-0.3,2.5-0.1,3.6,0.5C80,196.9,80.1,197.5,78.9,197.9z"/>
<path class="st3" d="M95.8,184.7c2.8-1.7,5.3-0.8,7.8-0.6c0.4,0,0.6,0.4,0.5,0.8c-0.1,0.5-0.5,0.8-0.9,0.8
	C100.8,185.9,98.3,186.3,95.8,184.7z"/>
<path class="st2" d="M106.9,144.4c-0.5-0.4-0.3-1.1-1.2-1.5c-1.8-0.9-1.4-3-1.4-4.7c-0.1-1.7,1.1-3.2,2.9-3.4c1.9-0.5,0.1,2,2,1.2
	C109.1,139,108,141.7,106.9,144.4z"/>
<path class="st2" d="M105.9,121.1c0.4-2.6,1-5.1,1.8-7.6c0.6,0.3,1.3-1,2.1,0.1c0.5,0.7,0.5,1.7,0,2.4c-1.1,2-0.9,4.4-2,6.5
	C107,122.3,107.3,120.7,105.9,121.1z"/>
<path class="st4" d="M145.3,160.1c0.9-1,1.6-0.9,2.1,0.3s1,2.4,1.5,3.6c0.3,1,0.7,2.1,1,3.1c0.1,0.5,0.1,1.1-0.6,1.2
	c-0.4,0.1-0.9-0.2-1-0.6c0,0,0-0.1,0-0.1c-0.1-0.4-0.1-0.9-0.3-1C145.2,165.2,145.7,162.5,145.3,160.1z"/>
<path class="st2" d="M140.7,124.4c-0.5,0.6-0.8,1.4-0.8,2.2c-0.2,1.2-0.8,2.2-2.2,2.3c-3.7-1.3-5.3-6.7-2.9-9.8
	c0.8-1.1,2.1-0.7,3.1-0.4c1.3,0.4,2.9,0.7,3,2.5C140.8,122.3,140.8,123.3,140.7,124.4z"/>
<path class="st4" d="M43.2,122.2c0,2.7-3.6,4.3-6,3c-2-1-3.9-2.4-6.4-2c-1,0.2-1-0.7-0.7-1.4c0.4-1,1.4-1.6,2.5-1.6
	c1.9,0,1.8-1,1.5-2.4c-0.2-0.7-0.2-1.5-0.4-2.2c-0.4-2.3,1.4-3.7,3.6-3c0.4,0.1,0.8,0.2,1.3,0.3c2.2,0.4,3.7,1.5,3.8,4.1
	C42.5,118.7,42.8,120.5,43.2,122.2z"/>
<path class="st3" d="M59.3,148.4c0-2.6,1-4.3,2.9-4.7c2.1-0.5,3.7,0.4,4.9,2.9s0.9,5-0.6,6.5c-0.9,1.1-2.5,1.5-3.9,1
	C60.6,153.3,59.3,150.9,59.3,148.4z"/>
<path class="st4" d="M109.2,28.1c-1.4-1.8-1.2-4-1.3-6.1c0-0.5,0.2-1,0.7-1c2-0.1,4.1-1.2,5.9,0.5C110.2,21.5,109.2,22.8,109.2,28.1
	z"/>
<path class="st3" d="M95.3,29c1.7-0.1,3.6,0.3,4.9-1.3l0.9-0.5c1.4-0.4,1.6-1.6,1.7-2.8c0-1,0.2-2,0.5-3c1.1-0.2,1.6,0.5,1.4,1.4
	c-0.2,1-0.2,2.2-1,3.1c-1.4,2.6-4.2,4-7.1,3.6L95.3,29z"/>
<path class="st3" d="M103.8,25.9c0.3-1.5,1-3.1-0.4-4.5c-0.8-0.7-1.5-1.5-2.2-2.2c1.7,0.1,3.6,0.4,4.4,2S104.7,24.4,103.8,25.9z"/>
<path class="st4" d="M111.4,41.9c1.2,0.1,2.6-0.8,3.5,1s1.5,3.2-0.5,4.8c-1.1-2.3-2.5-2.3-4.7-1.1c-2.4,1.3-5.2,0.9-7.7-0.3
	c-0.9-0.3-1.4-1.3-1.1-2.2c0-0.1,0-0.1,0.1-0.2c0.5-1.2,1.2-0.8,2.2-0.5c1.6,0.5,3.3,0.7,5,0.5c1.1-0.1,1.1-0.7,0.9-1.5
	C109.8,41.7,110.8,42.6,111.4,41.9z"/>
<path class="st4" d="M111.4,41.9c0.3,1,2.1,1.9,1.1,2.7c-1.2,1-1.8-0.8-2.6-1.5c-0.3-0.2-0.6-0.5-0.9-0.7c-2.7-1.6-5.9-1.9-8.9-1
	c-1.2,0.3-2.5,0.9-3.9-0.1c4.3-2.8,8.5-3.6,13.1-1.8C110.4,40,111.1,40.9,111.4,41.9z"/>
<path class="st3" d="M100.3,34.3c0.7,1.4,2.1,2,3.4,2.9c-2.4,1.9-4.7,0.3-6.9,0.2c-0.7,0-0.6-1.3-0.2-1.9c0.7-1,1.4-2,2.8-2
	C99.9,33.5,100.4,33.5,100.3,34.3z"/>
<path class="st5" d="M104.8,31.2c1-0.4,2.1-0.4,3.1,0.1c0.3,0.8,1.6,1.2,1.1,2.4c-0.1,0.1-0.1,0.2-0.2,0.2c-1.7,0.4-3.5,0-4.9-0.9
	C103.4,32,103.9,31.5,104.8,31.2z"/>
<path class="st3" d="M100.3,34.3l-0.9-0.9l1.8-2.7l0,0c1-0.2,2.1-0.7,3.1,0c-0.3,1-1.5,1.3-1.8,2.3
	C102.1,33.9,101.2,34.4,100.3,34.3z"/>
<path class="st3" d="M109.6,31.7c1,0.2,1.9,1,2.2,2c0.3,0.8,0.7,1.6-0.3,2.2s-1.4-0.1-1.8-0.7c-0.3-0.4-0.7-0.8-1-1.2l0.1-0.1
	C109.3,33.2,109,32.3,109.6,31.7z"/>
<path class="st1" d="M109.6,31.7c1,1.2,1.6,2.3-0.8,2.2c-0.3-0.8-1.3-1.5-0.9-2.6L109.6,31.7z"/>
<path class="st3" d="M102.5,33c-0.9-1.9,0.4-2.2,1.8-2.3l0.5,0.5l-1,1.8L102.5,33z"/>
<path class="st0" d="M95.3,170.7c0.1-0.8,0.8-1.4,1.6-1.3c0,0,0.1,0,0.1,0c6,0.1,12.1,0.2,18.1,0.5c2.3,0.1,1.3,2.2,1.6,3.5
	c-2.6,0.9-5.2,0.4-7.9,0.3c-0.9-0.1-1.9,0-2.8,0.2c-3.2,1.1-6.4,0.3-9.6,0.4c-0.7,0-1-0.5-1-1.2C95.4,172.4,95.4,171.6,95.3,170.7z"
	/>
<path class="st5" d="M106.2,175.2c2.8,0,5.6,0,8.4,0c0.5,0,1,0.1,1.5,0.2c0.5,0.1,0.8,0.5,0.8,0.9c0,0.7-0.5,0.9-1,0.9
	c-4.2,0.1-8.3,1.6-12.5,0.9c-2-0.2-4-0.2-6-0.1c-0.9,0-1.8-0.1-1.8-1.4s0.8-1.5,1.9-1.5C100.4,175.2,103.3,175.2,106.2,175.2
	L106.2,175.2z"/>
<path class="st0" d="M116.4,179.5H95.8C97.3,178.6,114.1,178.4,116.4,179.5z"/>
<path class="st0" d="M135.7,124.6c0-0.5,0.1-1,0.2-1.4c0.2-0.7-0.2-1.8,0.8-1.8c1-0.1,2,0.4,2.7,1.2c0.4,0.9,0.2,2-0.4,2.7
	c-0.2,0.3-0.6,0.4-0.9,0.2c-0.2-0.1-0.3-0.3-0.3-0.5C137.3,123.9,136.6,124.4,135.7,124.6z"/>
<path class="st14" d="M66.3,148.3c-0.1,0.7-0.3,1.2-0.9,1.1c-0.6-0.1-1-0.6-0.9-1.2c0,0,0,0,0-0.1c0-0.5,0.4-0.8,0.8-0.8
	c0,0,0,0,0,0C66,147.3,66.2,147.9,66.3,148.3z"/>
<path class="st15" d="M64.9,151.6c-0.1,0.5-0.4,0.8-1,0.7c-0.5-0.1-0.9-0.6-0.8-1.1c0,0,0,0,0-0.1c0-0.4,0.4-0.7,0.8-0.7
	c0.1,0,0.1,0,0.2,0C64.6,150.5,65,151,64.9,151.6z"/>
<path class="st9" d="M62.3,149.3c0,0.5-0.1,1-0.6,1.1s-0.9-0.4-1-0.9s0.1-0.9,0.6-1C62,148.3,62.2,148.8,62.3,149.3z"/>
<path class="st16" d="M63.6,146.6c0,0.4-0.2,0.7-0.7,0.7c-0.5,0-0.8-0.4-0.8-0.9c0,0,0,0,0,0c0-0.5,0.2-0.9,0.8-0.8
	C63.3,145.7,63.6,146.1,63.6,146.6z"/>
</svg>
