<?xml version="1.0" encoding="utf-8"?>
<!-- Generator: Adobe Illustrator 24.0.1, SVG Export Plug-In . SVG Version: 6.00 Build 0)  -->
<svg version="1.1" id="Layer_1" xmlns="http://www.w3.org/2000/svg" xmlns:xlink="http://www.w3.org/1999/xlink" x="0px" y="0px"
	 viewBox="0 0 3830.9 3024" style="enable-background:new 0 0 3830.9 3024;" xml:space="preserve">
<style type="text/css">
	.st0{fill:#035949;}
	.st1{fill:#FFFFFF;}
	.st2{fill:none;}
	.st3{fill:#FFBA00;}
	.st4{fill-rule:evenodd;clip-rule:evenodd;fill:#FFBA00;}
</style>
<title>hero</title>
<path class="st0" d="M3548.4,3010.9c-54.8-137.3-104.2-276.9-166.4-411.1c-58.6-126.3-129.7-247.9-245.7-339.1
	c-4.5-3.5-8.9-7.8-11.5-12.6c-16.2-30.6-44.7-39.8-78.3-48.8c-203.2-54.5-401.7-125.5-593.4-212.2c-19.8-9-39.1-21.2-54.5-35.8
	c-24.6-23.2-45.6-49.6-66-72.3c8.8-4.2,28.1-7.5,31.1-15.9c15.9-44.6,49.3-34.2,84.2-29.7c11.9,1.6,27.8-4.5,35.6-13.1
	c19-21.1,33.9-45.5,50.2-68.3c25.3,10,63.1,0.8,63-19c-0.2-22.5-16.4-44.9-25.4-67.4c4.6-3,4-2.6,8.6-5.7
	c13.5,11.2,26.7,22.5,40.5,33.3c5.1,4,13.3,10.7,16.7,9.2c27-11.5,54.6-22.7,78.6-38.5c8.1-5.3,5-24.3,9-36.5
	c4.1-12.5,10.7-24.3,14-31.4c20.6,2.4,33.6,3.2,46.3,5.6c6.8,1.3,15.7,3.5,19,8.1c15.1,21.1,28.2,15.4,41.3-1.1
	c7.6-9.5,14.7-19.3,21.9-28.7c32.9,18.8,33.2,19.5,26.7,57.8c10.3-27.3,20.6-54.6,33.6-89.1l27,39.1l18.8-33.7l37.8,23.8
	c0-25.7,0.1-48.2,0-70.8c-0.2-52.1-0.3-52.1,11.7-57.6c3.2,11.3,6.4,22.3,12.5,43.7c8.2-17.2,17.7-28.3,15-33
	c-10.4-17.7-24.8-33.3-37.6-49.7c-34,15.5-35.1,14.1-44.8-20.5c-2.7-9.4-14-17.5-23.1-24.3c-13.7-10.2-31.1-16.6-42.8-28.2
	c-15.2-15.2-27.4-33.4-38.8-51.4c-5.8-9.2-11.9-22-9.3-31c3.2-11.2,15.2-20.2,24.8-31.8l13,18.4c12.1-6.1,23.8-10.3,33.4-17.1
	c46.4-32.7,86.9-117.9,57.8-122c-3.3,7-6.8,14.2-10.2,21.3l-10.6,1.8c19-38.5,1-60.1-26.2-83.9c-27.6-24.2-17.9-66,15.2-87.8v45.7
	l39.4-29.5c-66.7-62.6-132.9-117.6-222.1-142.3c27.5-26.5,70.8,7.5,92-29.3l-62.2-7.3c-0.2-34.3-26.6-33.7-57.8-29.4
	c-12.2-49-24.1-96.2-38.8-155.1c-17.6-15.4-49.5-31-90.5-13.1c-3.8,1.7-12.9-0.9-15.6-4.3c-18.3-22.5-39-44.1-52-69.2
	c-10.4-20.1-5.7-47.2-16.6-66.8c-25.9-46.9-11.2-84.8,16.7-124.9c14.4-20.8,21-46.7,29-70.9c1.7-5-4.6-14.5-10.1-18.7
	c-3.1-2.4-15.4-0.3-17.6,3.2c-15.4,23.7-32.5,47.1-42.7,72.9c-9.1,23.1-20.6,29.8-47,20.9c-30.7-10.3-59.8-33.4-95.6-3.2
	c-17.5,14.7-45.3-4-42.9-30.7c4.6-51.2-25.5-77.3-68.9-96.2c-17.5-7.7-37.4-11.7-53.1-21.7c-22.8-14.5-44.1-31.3-63.6-50
	c-11-10.4-18.6-23.9-21.9-38.6c-5-23.2-16.1-33-41.3-29.4c-13.2,1.9-26.9,1.2-40.3,2.2c-11.9,1-23.8,2.8-35.7,4.2
	c2.3,9.9,4.6,19.8,7,29.8c0.9,3.8,2,7.5,3.8,14.3c-17.6-6.2-31.4-14.8-45.5-15.1c-12.8-0.3-32.8,5-37.5,13.6
	c-21.2,39.2-26.9,41.5-83.2,21.5l23.8-14.6H1793c4.8,40.4,4.8,40.4-15.7,42.7c1.5-34.8-12.3-57.5-42.1-53.9
	c-30.7,3.7-39.8-9.8-55-28.8c-10.6-13.3-33.9-17.8-55.5-28.1c1.3,16.3,1.9,24.2,2.2,27l-72.5-20.9c-16-25.9-22.2-25.6-56.7,9.8
	l73.7,26.8l-3.5,12.4c-24.6-5.8-49.4-11.1-73.8-17.8c-17.9-4.9-35-16.3-52.8-16.9c-28.2-0.9-30.3-11.3-20.7-31.1
	c2.8-5.9,6.6-11.4,11.9-20.5c-48.8,0.8-89.8-37.4-141-16c35.6,12.5,67.3,23.5,99.9,34.9c3.3,7.5,8.1,17.7,12.4,28.1
	c4.6,11,8.7,22.2,13.3,34.2c50.4-0.8,56.6,1.1,74.2,48.8c4.3,11.6-9.4,29-14.8,43.8c-11.6-8.8-12.2-15.8-15.8-21
	c-17.2-24.7-28.7-51.1-74.2-32.7c-22,8.9-59.1-4.9-84.6-17.2c-26.8-12.8-61.2-22.5-68.1-58.8c-1.1-5.7-14.3-9.5-21.7-13.9
	c-20.8,22.6-23,64.6-1.5,89.2c29.5,33.7,62.6,64.6,95.1,97.7c-3.8,1.5-15.3,3.9-24.2,9.9c-9.8,6.6-17.2,16.4-19,18.2
	c-22.1-2.5-41.7-10.6-51.8-4.7c-32.9,19.6-39.8,55.1-22.8,89.6c-3.7,0-7.2-0.2-10.6,0c-60.7,3.6-70.3,15.3-63.2,70.8
	c1.4,10.7-5.3,22.4-8.2,33.6l-46.8-19.2c-2.6,4-1.8,2.8-4.4,6.9l44.2,33.6c15.9-13.6,29.1-32.1,47.2-38.6c18.3-6.6,41.5-1.5,56-1.5
	c5.6,19.3,11.9,32.3,12.4,45.6c0.4,9.9-4.9,21.2-11.1,29.5c-5,6.6-19.1,7.9-22.6,14.6c-18,34-49,27.1-80.7,29.3
	c-42.4,2.9-90.9-4.1-120.9,37.2c-10.8-7.7-21.5-15.5-33.8-24.4c-11.1,14.2-20.4,25.9-26.2,33.4c14.4,3,28.9,6.9,43.8,8.9
	c15.6,2.1,34.8,13.7,41.5-12.8c4.7-18.5,14.5-17.7,26.2-4.1c13.2,15.3,25.2,24.8,39.2-1c2.8-5.3,24.2-8,31-3.6
	c8.8,5.6,10.2,20.4,17.2,29.6c4,5.2,12.9,7.2,19.6,10.6c1.5-2.1,3-4.2,4.4-6.3c7.2,14.5,14.5,28.9,23.8,47.5
	c-42,4.3-91.4-6.2-92.8,40c-21.8,12.4-36.1,27.4-50.5,27.5c-50.2,0.1-77.2,39.1-116.9,56.2c-33.5,14.5-40.8,46.8-26,76.3
	c4.5,9,2.8,26.2-3.8,33.7c-25.8,29.6-79.5,33.8-86.1,82.4c-0.3,2.3-14.6,1.2-19.3,5.1c-11.3,9.4-21,20.5-31.2,31
	c2.1,2.4,1.5,1.7,3.5,4l75.3-43.6c3,2.7,2.7,2.4,5.7,5.1l-20.6,34.7c5,1.1,11.5,1.1,16.3,3.8c26.6,14.7,53,29.6,78.7,45.6
	c4.6,2.9,9.4,14.1,7.4,16.4c-19.7,23.1-39.2,46.8-62.4,66.7c-8.1,6.9-26.4,3-39.9,4.9c-16,2.3-33.6,2.7-47.2,9.5
	c-6.5,3.3-8.3,19.9-7.2,30c0.8,7.8,12.2,22,14,21.3c44.1-16.1,57.4,28.5,91,35.6l-66.4,45.1c6.1,11.9,15,23.1,17.6,35.5
	c7.2,34.3,10.8,69.4,17.6,103.8c6.2,31.4,49.5,44.5,74.4,23c8-7,13.6-16.5,21.1-25.8c16.3,30.7,44,40.2,80.3,22.8
	c30.1-14.4,40.4,0,44.2,21.7c2.5,14.9-4,31.1-5.7,42.2l-47.4,9.5c24.8,16,49.2,24.9,73.8,33.3c53.3,18.1,58.2,62.7,63,105.3
	c3.2,28.7,27.8,59-2.9,87.1c-31.8,29.1-7,70.2-23.7,103.4c-3.1,6.2,11,25.9,21.6,30.8c12.4,5.8,37.9,7.8,43.1,1.3
	c8-10.2,4.5-28.9,4-44c-0.2-7.7-8.3-20.5-6.2-21.9c7.8-5.1,19.3-9.9,27.9-8.2c9.8,2,25.7,11.6,25.4,17.1c-2,34,22.2,47.2,48.2,59.2
	c34.5,16,69.7,30.7,110.4,48.5c-56.4,37-105.9,78.5-163.2,105.3c-153.7,71.8-308.5,142.1-467.4,202.6
	c-58.5,22.2-95.9,54.4-133.3,97.6c-110.5,127.7-181.3,272.2-227.2,429.8c-23.7,81.3-56.1,160.4-84.5,240.5h3251.6
	C3549.7,3019.6,3550,3014.9,3548.4,3010.9z M913,1016.7c-2.4,3.7-4.8,7.3-7,10.8l-1.8,2.8c-0.1,0.1-0.2,0.3-0.2,0.4
	c-1.1,1.7-2.2,3.5-3.4,5.2c-2.7,4.1-5.3,8.2-8.1,12.5l-2.3,3.5c-0.9,1.4-1.8,2.7-2.7,4.1c-18.6-12.3-52.1-22-40-46.5
	c0.5-0.9,1-1.8,1.4-2.7c0.1-0.2,0.2-0.4,0.3-0.6c0.4-0.6,0.8-1.2,1.1-1.8c0.2-0.4,0.5-0.7,0.8-1.1c0.1-0.2,0.3-0.4,0.4-0.5
	c0.1-0.2,0.2-0.3,0.3-0.5c0.3-0.3,0.5-0.6,0.8-0.9s0.5-0.6,0.8-0.8l0.6-0.6c0.2-0.2,0.5-0.5,0.8-0.7l0.8-0.6l0.7-0.5
	c0.2-0.2,0.5-0.3,0.7-0.5c0.9-0.6,1.8-1,2.7-1.4l1-0.4l0.2-0.1l0.4-0.1c0.1,0,0.2-0.1,0.3-0.1c0.1-0.1,0.3-0.1,0.5-0.1l0.2,0
	c0.3-0.1,0.7-0.2,1-0.2s0.8-0.1,1.3-0.2c0.6-0.1,1.2-0.1,1.8-0.1c0.6,0,1.2,0,1.8,0h0.1c0.3,0,0.6,0,0.9,0.1l0,0c0,0,0,0,0.1,0h0.3
	c0.5,0,1.1,0.1,1.6,0.2l1,0.2c0.7,0.1,1.3,0.2,2,0.4c1,0.2,2,0.5,3,0.8c0.3,0.1,0.5,0.2,0.8,0.2c1.1,0.3,2.2,0.7,3.4,1.1l1,0.4
	c0.3,0.1,0.7,0.3,1.1,0.4c0.8,0.3,1.6,0.6,2.3,0.9l1.3,0.5c1.9,0.8,3.9,1.6,5.8,2.4l2.4,1c0.6,0.2,1.2,0.5,1.8,0.7l1.8,0.7l1.9,0.7
	l1.8,0.7c0.4,0.2,0.9,0.3,1.3,0.5l1.2,0.4l1.2,0.4c0.7,0.2,1.3,0.4,2,0.6l1.8,0.4c0.8,0.2,1.6,0.4,2.3,0.5s1.3,0.2,2,0.3
	c1,0.2,2,0.3,3,0.3l0,0C916,1012.2,914.5,1014.4,913,1016.7z M1400.2,1373.2c-3.4,12.7-18.8,22.6-36.4,42.2
	c-5.2-5.7-10.5-10.9-15.5-15.7l-3-2.9c-15.3-14.4-28.3-26-32.7-40c-1.4-4.6-1.7-8.4-1.1-11.6c0.1-0.2,0.1-0.5,0.2-0.7
	c0-0.1,0.1-0.3,0.1-0.4c0.2-0.7,0.5-1.4,0.8-2.1c0.1-0.2,0.2-0.4,0.3-0.6c0.2-0.3,0.3-0.6,0.5-0.9c0.4-0.7,0.9-1.3,1.5-1.9
	c0.2-0.2,0.3-0.4,0.5-0.6l0.4-0.3c1.1-1,2.3-1.9,3.6-2.6l0.8-0.4l0.8-0.4c0.3-0.1,0.6-0.3,0.9-0.4c0.7-0.3,1.4-0.6,2.2-0.9
	c0.4-0.2,0.9-0.3,1.3-0.4s0.9-0.3,1.4-0.4l1.2-0.3c0.3-0.1,0.6-0.1,0.8-0.2l0.8-0.2c0.8-0.2,1.7-0.3,2.5-0.5s1.7-0.3,2.6-0.4
	l1.7-0.2l1.8-0.2c0.3,0,0.6-0.1,0.9-0.1c0.6-0.1,1.2-0.1,1.8-0.2l2.6-0.2l1.7-0.1l1.8-0.1l1.1-0.1c1.5-0.1,3-0.2,4.5-0.2
	C1377.8,1327.6,1405.6,1352.4,1400.2,1373.2z M2403.2,1375.2c8.4,9.4,14.9,16.7,23,25.7c3.5-5.5,6.5-10,9.4-14.6l10.1,2.8
	c-1.9,6.9-2.7,14.6-4.2,21.9c-0.2,0.9-0.4,1.8-0.6,2.7s-0.4,1.8-0.7,2.6c-0.2,0.6-0.4,1.3-0.6,1.9c-0.1,0.3-0.2,0.6-0.3,0.9
	s-0.3,0.8-0.5,1.3s-0.3,0.8-0.5,1.2s-0.4,1-0.7,1.5s-0.4,0.8-0.6,1.2c-0.1,0.3-0.3,0.5-0.4,0.8s-0.3,0.5-0.5,0.8
	c-0.3,0.5-0.6,1-1,1.5c-0.2,0.2-0.4,0.5-0.6,0.7c-0.3,0.4-0.6,0.8-1,1.1c-0.1,0.1-0.1,0.2-0.2,0.2c-0.2,0.2-0.4,0.4-0.5,0.6
	c-0.4,0.4-0.8,0.8-1.2,1.1s-0.8,0.8-1.2,1.2s-1.1,1-1.6,1.5c-0.2,0.2-0.4,0.4-0.6,0.5c-0.3,0.3-0.6,0.5-0.9,0.8
	c-0.6,0.5-1.2,1-1.8,1.5l-0.7,0.5c-0.5,0.4-1,0.8-1.5,1.2s-1.1,0.8-1.6,1.2l-1.1,0.8c-0.5,0.4-1.1,0.8-1.6,1.1s-1,0.7-1.6,1
	s-1,0.7-1.6,1s-1.1,0.7-1.6,1l-1.6,0.9c-0.3,0.2-0.7,0.4-1,0.6s-0.7,0.4-1,0.5c-1.5,0.8-3,1.5-4.5,2.1c-0.5,0.2-1,0.4-1.5,0.7
	l-0.2,0.1c-0.9,0.4-1.9,0.7-2.8,1c-0.5,0.2-0.9,0.3-1.4,0.5c-0.4,0.1-0.7,0.2-1.1,0.3c-0.3,0.1-0.7,0.2-1,0.3
	c-1,0.3-2.1,0.5-3.1,0.7c-0.3,0.1-0.6,0.1-0.8,0.2c-0.1,0-0.2,0-0.3,0.1l-0.3,0.1c-0.9,0.2-1.8,0.3-2.7,0.3l-0.8,0.1h-0.3h-0.6
	c-0.6,0-1.2,0-1.8,0s-1.2,0-1.8-0.1c-0.4,0-0.7,0-1.1-0.1c-0.8-0.1-1.6-0.2-2.3-0.3c-0.3,0-0.6-0.1-0.9-0.2
	c-0.4-0.1-0.9-0.2-1.3-0.3s-0.6-0.2-1-0.2c-0.7-0.2-1.4-0.4-2.1-0.7l-1.2-0.4c-0.4-0.2-0.8-0.3-1.1-0.5c-1.4-0.6-2.7-1.4-4-2.3
	c-0.6-0.4-1.2-0.9-1.7-1.4c-8-7.2-9.2-19.4-1.3-32.2C2376.3,1400.4,2390,1389.4,2403.2,1375.2L2403.2,1375.2z M1581,140l33.9,40.4
	c24.2-6.4,44.2-2.8,50.4,29.6c2.7,14,16.1,26.1,23.2,37c-22.9,11.9-44.2,23-71.6,37.2c-0.5-67.2-61.4-81.1-92-121.9L1581,140z
	 M2255,1775.6l-0.3,2.4c-0.1,0.8-0.2,1.6-0.3,2.4c-0.3,2.1-0.7,4.2-1,6.3l0,0c-0.4,2.1-0.8,4.2-1.3,6.2c-0.1,0.3-0.1,0.6-0.2,0.8
	s-0.1,0.6-0.2,0.8c-0.1,0.6-0.3,1.1-0.4,1.7c-0.2,0.8-0.5,1.7-0.7,2.5s-0.5,1.7-0.8,2.6c-0.4,1.1-0.8,2.3-1.2,3.4
	c-0.2,0.6-0.4,1.2-0.7,1.8c-0.3,0.9-0.7,1.8-1.1,2.7c-0.8,1.8-1.6,3.7-2.4,5.5c-0.4,0.9-0.9,1.8-1.3,2.7c-0.7,1.5-1.5,3-2.3,4.4
	c-0.3,0.6-0.6,1.1-0.9,1.7s-0.8,1.4-1.2,2s-0.7,1.1-1,1.7s-0.7,1.1-1,1.7c-1.9,3-3.9,6-6,9c-0.4,0.6-0.8,1.1-1.3,1.7s-1,1.3-1.5,2
	s-1.1,1.4-1.6,2.1c-0.4,0.5-0.8,0.9-1.2,1.4s-0.9,1.2-1.4,1.7c-0.1,0.1-0.2,0.2-0.2,0.3c-0.4,0.5-0.8,0.9-1.2,1.4
	c-1.4,1.6-2.8,3.1-4.2,4.6c-2.2,2.2-4.4,4.4-6.6,6.4c-0.8,0.7-1.5,1.4-2.3,2s-1.5,1.3-2.3,1.9s-1.6,1.2-2.3,1.9
	c-2.4,1.8-4.7,3.5-7.1,5.1c-113.4,73.3-237.1,130.7-377.6,127.7c-104.4-2.3-208.9-20.4-303-70.3c-31.8-16.8-51.4-38.2-42-75.4
	c2-8.1,1.6-19.3-3-25.9c-38.8-55.4-19.2-116.5-18.4-175c0.2-14.3,20.1-30.8,35-41.2c4.2-2.9,26.3,10,34,19.9
	c27.6,35.1,50.2,73.8,79.1,107.8c27.5,32.4,59.1,62.2,92.1,89.8c9.4,7.8,29.9,4,45,5.5c-2.5-18.4-8.4-34.3-4.3-37
	c10.5-7,25.4-11,38.6-11.1c8.2,0,16.3,0,24.6,0.2c2.5,0.1,5,0.1,7.5,0.2s5,0.2,7.5,0.3l2.6,0.1l6.2,0.4c1.5,0.1,2.9,0.2,4.4,0.3
	l1.3,0.1l3.9,0.3c1.3,0.1,2.7,0.2,4,0.3l1.8,0.2l2.7,0.2c2,0.2,4,0.4,5.9,0.6c1.1,0.1,2.2,0.2,3.3,0.4c1.4,0.2,2.8,0.3,4.2,0.5
	l2.6,0.3c1.4,0.2,2.8,0.4,4.1,0.6c4.5,0.7,9.1,1.3,13.6,2l13.7,2c6.1,0.9,12.1,1.8,18.2,2.8c5.6,0.9,11.3,1.8,16.9,2.8
	c2,0.3,3.9,0.7,5.9,1c6.2,1.1,12.5,2.2,18.7,3.3c1.8,0.3,3.5,0.7,5.3,1c2.8,0.5,5.7,1.1,8.5,1.6s5.6,1.1,8.5,1.7s5.8,1.2,8.6,1.8
	c9,1.9,17.9,4,26.8,6.2c24.7,6.1,44.9,8.7,66.6-6.2c52.6-36.2,102-74.8,132.5-130.8c0.9-1.5,1.7-3.1,2.7-4.6
	c0.5-0.8,0.9-1.5,1.4-2.3c0.4-0.6,0.7-1.1,1.1-1.7c3.4-5.2,7.4-10.5,12.1-16.8l2.1-2.8c1.1-1.5,2.2-3,3.4-4.5
	c2.3-3.1,4.8-6.5,7.4-10.1l0,0v55.3c0.6-0.9,1.3-1.8,1.9-2.6c1.4-1.9,2.7-3.7,3.9-5.4c0.3-0.5,0.7-0.9,1-1.4
	c1.6-2.2,3.1-4.3,4.5-6.2c0.4-0.6,0.8-1.1,1.2-1.7s0.9-1.3,1.4-2s0.8-1.2,1.2-1.7c2.1-3,4.1-5.7,6-8.4
	C2254.4,1701.2,2259.5,1739.4,2255,1775.6L2255,1775.6z M2316.2,1488.2c-1,2.2-2,4.3-3,6.5c-1.5,3.3-3.1,6.5-4.7,9.7
	c-1.8,3.6-3.6,7.2-5.4,10.8c-5.7,11.4-11.5,22.8-16.9,34.3c-9.4,19.8-36.2,37.4-97.4,66.3c-0.6-2.1-1.2-4.1-1.8-6.2
	c-0.2-0.7-0.4-1.4-0.6-2.1l-3.1-10.6c-0.5-1.8-1.1-3.6-1.6-5.5c-0.2-0.6-0.4-1.2-0.6-1.8l0,0c-0.6,0.5-1.1,0.9-1.6,1.3l-1.4,1.2
	l-1.9,1.6c-1.5,1.2-2.9,2.5-4.3,3.8c-9.8,10.2-20.7,19.2-32.5,26.9c-1.4,0.9-2.8,1.8-4.3,2.7s-2.9,1.7-4.4,2.6s-3,1.7-4.5,2.5
	c-2.3,1.2-4.6,2.4-7.1,3.6c-1.6,0.8-3.2,1.5-4.9,2.3c-3.3,1.5-6.8,3-10.4,4.4s-7.1,2.7-10.6,3.9c-2.7,0.9-5.3,1.7-8,2.4
	s-5.3,1.4-7.9,2c-1.8,0.4-3.6,0.8-5.3,1.2c-18.6,3.8-37.2,5-55.7,5.4l-5.3,0.1h-2.6l-5.3,0.1l-7.9,0.1c-2.6,0-5.3,0-7.9,0.1
	c-1.8,0-3.5,0-5.3,0.1l-5.3,0.1c-0.9,0-1.8,0-2.6,0.1c-1.8,0-3.5,0.1-5.3,0.2l-5.3,0.2c-9.7,0.5-19.3,1.2-28.9,2.6
	c-25,3.6-52.1-5.2-78.1-8.6c-1.4-0.2-2.7-0.6-4-1.2c-0.5-0.2-1.1-0.4-1.6-0.7c-1.3-0.6-2.7-1.1-3.9-1.5c-0.5-0.2-1-0.3-1.5-0.4
	c-0.8-0.1-1.6-0.2-2.4-0.1c-2.9,0.4-5.8,0.7-8.7,0.8c-65.1,4.3-101.2-42.1-142.3-78.1c-7.4-6.5-11.5-16.2-15.8-27.3
	c-0.6-1.7-1.3-3.4-1.9-5.1c-0.9-2.3-1.8-4.6-2.8-7c-0.5-1.2-1-2.4-1.5-3.6s-1.1-2.4-1.6-3.6c-0.3-0.6-0.6-1.2-0.9-1.8l-1.8-0.6
	c-0.7-0.2-1.4-0.5-2.3-0.8l-1.5-0.5l0,0c-1.3-0.5-2.7-1-4.3-1.5c-0.8-0.3-1.6-0.6-2.4-0.9l-2.6-0.9l0,0c-1.3-0.5-2.7-1-4.2-1.5
	c-0.5-0.2-1-0.3-1.5-0.5l-10-3.5c-1.1,21.5-2.3,44.1-3.7,71c-44.2-21.1-70.2-49.4-77.5-92.2l-8.5,7.2l-1-0.9
	c-0.7-0.6-1.5-1.3-2.2-1.9c-8.2-6.9-17.2-13.3-24.6-20.7c-0.5-0.5-1-1-1.4-1.5c-0.7-0.8-1.4-1.5-2-2.3c-0.5-0.6-1-1.1-1.4-1.7
	l-0.5-0.6c-0.1-0.2-0.3-0.3-0.4-0.5s-0.2-0.3-0.4-0.5c-1.2-1.6-2.5-3.2-3.7-4.8c-0.3-0.4-0.6-0.8-0.9-1.2c-1.4-1.9-2.8-3.9-4.2-5.8
	c-1-1.4-1.9-2.9-2.9-4.3c-0.5-0.8-1.1-1.6-1.6-2.5c-1.4-2.2-2.7-4.4-4-6.6c-0.4-0.7-0.9-1.5-1.3-2.2c-0.8-1.5-1.7-2.9-2.4-4.4
	c-3.9-7.2-7.4-14.7-10.4-22.4c-0.6-1.5-1.2-3-1.7-4.5c-0.8-2.3-1.6-4.5-2.4-6.8c-0.5-1.5-1-3-1.5-4.6c-0.7-2.3-1.4-4.6-2-6.9
	c-0.4-1.4-0.8-2.9-1.1-4.3c-0.7-2.9-1.4-5.8-2-8.6c-1.5-7.2-2.7-14.5-3.5-21.8c-0.2-1.6-0.4-3.1-0.5-4.7c-2.1-21-1.6-42.4,0.4-64.1
	c1.9-20,5.1-40.2,9-60.5c5.4-28.4-8.2-60.3-1.4-88c9.1-36.7,19.7-68.1,44-89.1c1.2-1.1,2.5-2.1,3.8-3.2s2.7-2,4.1-3
	c2.1-1.5,4.3-2.8,6.6-4.2c0.8-0.4,1.5-0.9,2.3-1.3c1.6-0.9,3.2-1.7,4.8-2.5c1.6-0.8,3.3-1.6,5.1-2.3s3.5-1.4,5.3-2.1
	s3.7-1.3,5.6-1.9s3.9-1.2,5.9-1.7c1-0.3,2-0.5,3.1-0.8c2.1-0.5,4.2-1,6.4-1.4c4.4-0.9,8.9-1.7,13.7-2.3
	c43.2-5.5,85.7-15.3,133.9-24.1l-33.8-12.4c-2.8-1-5.4-2-8.1-3c-0.5-0.2-1.1-0.4-1.6-0.6l-5-1.8l-2.9-1.1c0.8-3.1,1.6-6.3,2.4-9.4
	c0.7-2.5,1.3-5.1,1.9-7.6l0,0l178.9,12.6l0,0c0.6,5.2,1.3,10.4,1.9,15.6l0,0l-51.4,9.6l-2,7l77.5,13.7
	c-7.1,15.5-14.4,31.4-21.9,47.5l0,0c2.3,0.4,4.7,0.7,7.1,0.8c16.8,1.1,31.6-4.2,43.3-14.9c0.8-0.7,1.5-1.4,2.2-2.2
	c12.5-12.7,21.2-32,24.4-56.8l-7.3-0.8l-14-1.2l-6.1-0.7l17.2-33.2l10.4-20.2c-3.3-3-6.5-6-9.8-9l-31.8,15.1c-1.4,0.7-2.7,1.3-4.1,2
	c-3.5,1.7-7.2,3.4-11,5.2c-2.2-3.7-4.4-7.5-6.6-11.3c-0.7-1.2-1.5-2.5-2.2-3.8s-1.3-2.2-2-3.3c-1.3-2.2-2.7-4.4-4.1-6.6
	c-2.1-3.3-4.2-6.5-6.4-9.6c-0.7-1-1.5-2.1-2.2-3.1l0,0c-2.6-3.6-5.3-7-8.2-10.2l-1.2-1.4c-1.1-1.1-2.1-2.2-3.2-3.3
	c-0.7-0.6-1.3-1.3-2-1.9c-0.9-0.8-1.8-1.6-2.7-2.4c-0.7-0.6-1.4-1.2-2.1-1.7c-0.5-0.4-1-0.8-1.6-1.2c-6.1-4.7-13-8.4-20.4-10.9
	c-0.6-0.2-1.2-0.4-1.9-0.6c-9.1-2.7-18.6-3.7-28.1-3.1c-1.8,0.1-3.6,0.2-5.4,0.5c-0.9,0.1-1.9,0.2-2.8,0.3c-2.8,0.4-5.8,0.9-8.8,1.5
	l-9.4,1.9l-4.7,1c-4.7,1-9.4,2-14,3c-3.1,0.7-6.2,1.4-9.3,2.2c-4.6,1.1-9.2,2.3-13.8,3.6c-3,0.9-6.1,1.7-9.1,2.7
	c-1.7,0.5-3.4,1.1-5.1,1.6l-4.3,1.5c-3.6,1.3-7.1,2.6-10.6,4c-1.4,0.6-2.9,1.2-4.4,1.8c-2.2,0.9-4.3,1.9-6.5,2.9
	c-2.2,1-4.3,2-6.4,3.1c-2.8,1.4-5.6,3-8.4,4.5c-1.4,0.8-2.8,1.6-4.1,2.5s-2.7,1.7-4.1,2.6s-2.7,1.8-4.1,2.7
	c-7.6,5.3-14.8,11.1-21.5,17.5c-2.3-5.5-3-10.4-5.9-13.7c-22.8-26.1-20.8-44.5,8.7-66.5c20.8-15.5,42.2-30.4,65.3-46.9
	c-36.4-24.6-47.8,24.7-83.5,20.8l40.4-46.3l-7.3-9.1c-4.6,3-9.5,5.8-14.6,8.6l-3.3,1.8c-2.2,1.2-4.4,2.5-6.6,3.7s-4.3,2.5-6.4,3.9
	c-6.7,4.3-12.7,9.1-16.8,15c-26.2,37.5-46,79.1-71.6,117c-2.7,3.8-5.7,7.4-9.2,10.6c-0.9,0.8-1.8,1.6-2.7,2.4
	c-5.4,4.8-11.6,9.1-17.7,13.5c-3.1,2.2-6.1,4.4-9.1,6.6c-1.7,1.3-3.4,2.7-5.1,4c-0.1,0.1-0.2,0.2-0.4,0.3l-0.4,0.3l-4.8-2.4
	c-1.6-0.8-3.2-1.6-4.8-2.4c15.9-32.5,30-65.8,48.2-97.1c12.2-21.1,31.2-38.7,45-59.1c0.8-1.2,1.6-2.5,2.3-3.8c0.6-1,1.1-2.2,1.6-3.2
	s1-2.2,1.4-3.4c2.1-5.8,3.8-11.8,5.3-17.8c0.3-1.2,0.7-2.4,1-3.6c0.2-0.7,0.4-1.5,0.6-2.2c8.9-29.8,13.6-61.3,27.3-88.9
	c9.1-18.2,29.3-33,47.5-45.5c31.8-21.7,64.8-41.7,98.8-59.9c12.9-7,29.4-9.4,44.6-10.8c41-3.8,81.9-7.9,123-11
	c9.2-0.7,18.5-1.3,27.7-2l9.2-0.6c12.3-0.7,24.6-1.3,37-1.8c11.6-0.4,23.2,1.4,34.9,4l4,0.9c1.9,0.5,3.8,0.9,5.7,1.4l5.7,1.5l10,2.6
	c2.8,0.8,5.7,1.5,8.5,2.2c2.3,0.5,4.5,1.1,6.7,1.6c16.9,3.8,33.7,7.8,50.5,12c6.7,1.7,13.4,3.4,20.2,5.1l10,2.6
	c0.6,0.2,1.3,0.3,1.9,0.5l2,0.4c2,0.4,4,0.9,6.1,1.3c1.4,0.3,2.7,0.6,4.1,0.9c2,0.5,3.9,1,5.8,1.7c0.9,0.3,1.8,0.7,2.7,1
	c0.3,0.1,0.6,0.3,0.8,0.4c0.7,0.3,1.4,0.7,2.1,1.1c0.6,0.4,1.2,0.8,1.7,1.3l0.6,0.5l0.5,0.5c0.2,0.2,0.4,0.4,0.6,0.6
	c29.6,32.2,58.4,65.1,87.2,98.1l14.4,16.5l14.4,16.5c0.4,0.4,0.8,0.9,1.2,1.3c0.6,0.7,1.1,1.3,1.6,2c0.3,0.4,0.6,0.9,0.8,1.4
	c0.1,0.2,0.2,0.5,0.3,0.8c23.2,74.1,46.4,148.1,68.9,222.4c1.9,6.3-1.6,14.1-2.7,21.2l-7.2,1.5c-4.4-10.9-8.8-21.7-13.2-32.6
	l-39.4-97.4c-2.2,2.6-4.5,5.1-6.6,7.6l-3.2,3.7l-4.6,5.3l-4.3,4.9c-0.6,0.7-1.2,1.4-1.8,2.1l-2.6,2.9c-2.5,2.8-4.7,5.3-6.5,7.4
	c2.7,3.1,5.6,6.1,8.6,9.2c2,2,4,4,6,6c11,10.9,21.9,21.8,27.7,34.7c15.2,34,23.8,70.5,38.1,114.9c-1.9-0.9-3.8-1.8-5.6-2.6l0,0
	c-3.1-1.4-6.3-2.6-9.4-3.8c-1.2-0.5-2.5-1-3.7-1.4l-3.6-1.4c-11.8-4.5-21.8-8.5-25.2-15.5c-2.5-5-5.1-9.9-7.8-14.7
	c-1.1-1.9-2.2-3.8-3.3-5.7c-2.2-3.7-4.5-7.4-6.8-11c-0.6-0.9-1.2-1.8-1.8-2.7c-1.8-2.7-3.6-5.2-5.5-7.8c-1.2-1.7-2.5-3.3-3.8-5
	c-1.9-2.5-3.9-4.9-5.9-7.2c-1.3-1.6-2.7-3.1-4.1-4.6c-2.8-3-5.6-5.9-8.5-8.7c-0.4-0.3-0.7-0.7-1.1-1s-0.7-0.7-1.1-1
	c-11.2-10.4-23.9-18.9-37.7-25.4c-1.9-0.9-3.8-1.7-5.7-2.5l-2.9-1.2c-3-1.2-6-2.2-9.1-3.2c-16.4-5.3-34.9-8.1-55.7-8.1h-1.8l6.4-3.6
	c2.1-1.2,4.2-2.4,6.3-3.5l12.5-7l14.1-7.9c2.3-1.3,4.7-2.6,7-3.9c22.2-12.5,44.7-25,70.1-39.3c-39,0-68.9,0-98.9,0
	c-5.9,0-11.9-1-17.7-0.4c-5.3,0.5-10.6,1.1-15.9,1.7c-3.5,0.4-7,0.8-10.5,1.3c-5.3,0.7-10.6,1.3-15.8,2l1.9,7.7
	c0.2,0.9,0.4,1.8,0.6,2.6c0.4,1.5,0.8,3.1,1.1,4.7l1.2,5c0.1,0.5,0.2,1,0.4,1.5c0.2,1,0.5,2,0.7,3c0.5,2,1,4.1,1.5,6.3l0,0
	c0.3,1.1,0.5,2.2,0.8,3.3l0,0c0.4,1.7,0.8,3.5,1.3,5.3l0,0c0.4,1.8,0.9,3.7,1.4,5.6c0.3,1.3,0.6,2.6,1,4l0,0l-93.2,55
	c7.8,20.3,15.1,43.3,25.8,64.8c0.2,0.4,0.4,0.8,0.7,1.2c0.3,0.4,0.6,0.8,0.9,1.1c0.2,0.2,0.3,0.3,0.5,0.5
	c4.9,4.6,14.9,7.1,21.9,10.9c0.2-7.8,0.6-15.7,0.8-23.5c0.1-4.1,0-8.3,0-18.5l44.5,17.9l4.2,1.7c0.7,0.3,1.4,0.6,2.2,0.9l6.8,2.8
	l0,0c-0.3-0.6-0.6-1.3-0.9-1.9c-9.2-19.1-14.6-30.4-22.6-46.9c10.1-2.9,24.6-11.8,33.6-8.3c9.6,3.8,14.1,19.2,23.8,34
	c56.5,7.6,103,38.5,150.1,71.5c6.2,4.3,12.3,8.7,18.5,13c2,1.5,4.1,2.9,6.2,4.3c4.2,2.9,8.3,5.8,12.5,8.6c6.3,4.3,12.6,8.5,19,12.6
	l0,0c1.6-7.2,3.5-15.2,6.9-30c3.4,18.4,4.9,30.2,7.9,41.6c0.7,2.5,1.3,5,1.9,7.5c0.6,2.5,1.1,5,1.7,7.5c0.8,3.7,1.5,7.5,2.1,11.2
	c2.4,13.9,3.3,27.9,2.6,42c0,1-0.1,2-0.2,3c-0.4,5-1,9.9-1.9,14.8l0,0c-0.4,2.5-0.9,4.9-1.5,7.3c-0.6,2.4-1.2,4.9-1.9,7.3
	c-0.3,1-0.6,1.9-0.9,2.9c-0.6,1.9-1.3,3.8-2,5.8c-1.1,2.9-2.2,5.7-3.5,8.6c-0.9,1.9-1.8,3.8-2.7,5.7s-2,3.8-3,5.6
	c-1.4,2.5-2.9,4.9-4.5,7.3c-1.1,1.6-2.1,3.2-3.3,4.8c-1.7,2.4-3.5,4.8-5.4,7.2c-0.7,0.9-1.5,1.8-2.2,2.7c-0.4,0.5-0.8,0.9-1.1,1.5
	s-0.7,1.1-1.1,1.6s-0.5,0.9-0.8,1.4c-0.1,0.2-0.3,0.5-0.4,0.7c-0.5,0.9-0.9,1.9-1.2,2.8l-0.2,0.5c-0.4,1-0.7,2-1,3
	c-0.8,2.8-1.2,5.6-1.2,8.5c0,0.5,0.1,0.9,0.1,1.4c0,0.1,0,0.1,0,0.2c0.1,0.4,0.1,0.8,0.2,1.1c0.2,0.7,0.4,1.4,0.7,2
	c0.5,1,1,2,1.5,3.1s1,2,1.4,3l0,0c0.5,1,0.9,2,1.3,3c0.2,0.5,0.4,1,0.6,1.5c0.3,0.8,0.6,1.5,0.9,2.3s0.5,1.5,0.8,2.3
	c0.2,0.5,0.3,1,0.5,1.5l0,0c7.6,24,5.2,46.9-0.9,69.4c-1.5,5.7-3.3,11.4-5.2,17.1l0,0c-0.8,2.3-1.5,4.5-2.3,6.8l0,0
	c-0.8,2.2-1.6,4.5-2.4,6.8c-0.4,1.1-0.8,2.3-1.2,3.4c-1.2,3.4-2.5,6.8-3.7,10.1s-2.5,6.8-3.6,10.1c-1,2.8-1.9,5.6-2.9,8.4
	s-1.8,5.6-2.6,8.4c-3.9,12.9-8.6,25.5-14.2,37.7C2317.8,1484.7,2317,1486.5,2316.2,1488.2L2316.2,1488.2z M2827.3,1056.7
	c-0.5,0.5-0.9,1-1.4,1.5l-2.8,3l-2.9,3l-7.6,8l-2.5,2.6c-1.4,1.5-2.9,3-4.4,4.6c-1.2,1.3-2.5,2.6-3.8,4l7.6,9.2l18.4,22.2l0,0l0,0
	c0.2-0.3,0.4-0.5,0.6-0.8l0.9-1.3c3.1-4.2,6.6-8.4,9.8-12.6c0.5-0.6,0.9-1.2,1.3-1.8c0.6-0.8,1.2-1.6,1.8-2.5
	c0.4-0.6,0.9-1.2,1.3-1.9c2-3,3.6-6.2,4.9-9.6c0.1-0.3,0.2-0.7,0.3-1c0.2-0.6,0.3-1.2,0.5-1.8c0.1-0.4,0.2-0.8,0.2-1.1
	C2850.6,1073.8,2835.2,1064.7,2827.3,1056.7L2827.3,1056.7z M2784.2,1548.7l-1.4,2.2l-2.3,3.4l-2.8,4.2c-2.9,4.4-6,8.9-9.1,13.5
	c-0.6,0.9-1.2,1.7-1.8,2.6l0,0l4.4-1.9l6.1-2.6c1.3-0.6,2.6-1.1,3.8-1.6l3.6-1.5l1.7-0.7l3.3-1.3l3.8-1.5c0.6-0.2,1.2-0.5,1.8-0.7
	s1.2-0.4,1.7-0.6l2.7-0.9l2.5-0.8l0.9-0.3l0.9-0.2c0.6-0.2,1.2-0.3,1.8-0.4s0.9-0.2,1.3-0.3s0.8-0.2,1.1-0.2l1.1-0.2
	c0.4-0.1,0.9-0.1,1.3-0.2l0.9-0.1l0.9-0.1c0.4,0,0.9,0,1.3,0s0.8,0,1.3,0l1.2,0.1l0.8,0.1c0.6,0.1,1.2,0.2,1.8,0.4l0.4,0.1
	c0.4,0.1,0.8,0.2,1.2,0.4l0.9,0.3l0.9,0.4l0.3,0.2l0.2,0.1l0.3,0.2c0.3,0.2,0.6,0.3,0.8,0.5s0.5,0.4,0.8,0.6s0.6,0.4,0.8,0.6
	c0.8,0.7,1.7,1.4,2.4,2.1c0.6,0.6,1.2,1.2,1.7,1.8c0.3,0.3,0.6,0.7,0.9,1c0.6,0.7,1.2,1.4,1.8,2.2c0.8,1.1,1.6,2.2,2.5,3.4l0.7,1
	l0.8,1.2l1.7,2.6c0.8,1.1,1.5,2.3,2.3,3.5l2.5,3.8L2784.2,1548.7z"/>
<path class="st1" d="M1478.8,966l-4.8-2.4L1478.8,966l0.4-0.3L1478.8,966z M1514.4,1468.9c-0.1-0.2-0.3-0.3-0.4-0.5
	C1514.1,1468.5,1514.2,1468.7,1514.4,1468.9c0.1,0.2,0.3,0.4,0.5,0.6L1514.4,1468.9z M1668.7,980.2L1668.7,980.2
	c0.8-3.1,1.6-6.3,2.4-9.4C1670.3,974,1669.5,977.1,1668.7,980.2z M1711.4,1303.2c-0.1-0.2-0.1-0.4-0.2-0.6
	C1711.3,1302.8,1711.3,1303,1711.4,1303.2c0.1,0.5,0.3,1,0.5,1.4C1711.7,1304.2,1711.5,1303.7,1711.4,1303.2L1711.4,1303.2z
	 M1786.8,1355.5c0.4-0.6,0.8-1.2,1.3-1.7C1787.6,1354.3,1787.2,1354.9,1786.8,1355.5L1786.8,1355.5z M1856.1,1069.3L1856.1,1069.3
	c2.3,0.4,4.7,0.7,7.1,0.8C1860.9,1070,1858.5,1069.7,1856.1,1069.3L1856.1,1069.3z M1872.1,1424.6c-0.1-0.7-0.2-1.3-0.3-1.9
	C1871.9,1423.3,1872,1423.9,1872.1,1424.6c0,0.1,0,0.2,0,0.4C1872.1,1424.8,1872.2,1424.7,1872.1,1424.6L1872.1,1424.6z M1870.2,942
	c2.2,3.8,4.4,7.6,6.6,11.3l0,0C1874.5,949.6,1872.3,945.8,1870.2,942z M1905.9,993.3L1905.9,993.3l6.1,0.7L1905.9,993.3z
	 M2032.6,1338.2c2.1,0.2,4.2,0.4,6.2,0.7C2036.7,1338.7,2034.6,1338.4,2032.6,1338.2L2032.6,1338.2z M2035.6,1321l-4.4-0.1
	C2032.6,1320.8,2034.1,1320.9,2035.6,1321l1.6,0C2036.7,1321,2036.2,1321,2035.6,1321L2035.6,1321z M2085,1149.3
	c1.2,1.2,2.3,2.6,3.4,4C2087.4,1151.9,2086.2,1150.6,2085,1149.3L2085,1149.3z M2088.5,1153.3c0.6,0.7,1.1,1.4,1.7,2.1l0,0
	C2089.6,1154.7,2089.1,1154,2088.5,1153.3L2088.5,1153.3z M2104,1642.6c-3.5,1.4-7.1,2.7-10.6,3.9
	C2096.9,1645.3,2100.5,1644,2104,1642.6c3.6-1.4,7-2.9,10.4-4.4C2111,1639.6,2107.6,1641.1,2104,1642.6L2104,1642.6z M2125.7,1011.5
	l0.9,1.9l0,0C2126.3,1012.7,2126,1012.1,2125.7,1011.5L2125.7,1011.5z M2141.9,910.3L2141.9,910.3h1.8H2141.9z M2176.3,1593.8
	c0.6-0.5,1.2-1,1.9-1.6L2176.3,1593.8z M2179.6,1591.1c0.5-0.4,1-0.9,1.6-1.3l0,0C2180.6,1590.2,2180.1,1590.6,2179.6,1591.1
	L2179.6,1591.1z M2346.1,1042.2c1.9,0.8,3.8,1.7,5.6,2.6l0,0C2350,1043.8,2348.1,1043,2346.1,1042.2z M2340.6,943.6l13.2,32.6l0,0
	C2349.4,965.3,2345,954.4,2340.6,943.6L2340.6,943.6z M2356.6,1263.1c-0.4,0.5-0.8,0.9-1.1,1.5
	C2355.9,1264.1,2356.3,1263.6,2356.6,1263.1c0.8-0.9,1.5-1.8,2.2-2.7C2358.1,1261.3,2357.4,1262.2,2356.6,1263.1L2356.6,1263.1z
	 M2364.3,1253.2c1.1-1.6,2.2-3.2,3.3-4.8C2366.6,1250,2365.5,1251.6,2364.3,1253.2L2364.3,1253.2z M2347.7,1087.8
	c6.3,4.3,12.6,8.5,19,12.6l0,0C2360.3,1096.3,2354,1092.1,2347.7,1087.8L2347.7,1087.8z M2375.1,1235.5c1-1.9,1.9-3.8,2.7-5.7
	C2377,1231.7,2376.1,1233.6,2375.1,1235.5z M2381.4,1221.3c0.7-1.9,1.4-3.8,2-5.8C2382.7,1217.4,2382.1,1219.3,2381.4,1221.3
	L2381.4,1221.3z M2384.3,1212.6c0.7-2.4,1.4-4.8,1.9-7.3C2385.6,1207.8,2384.9,1210.2,2384.3,1212.6L2384.3,1212.6z M2387.7,1198
	c0.9-4.9,1.5-9.8,1.9-14.8C2389.1,1188.2,2388.5,1193.1,2387.7,1198L2387.7,1198z"/>
<path class="st1" d="M2222.5,1651.3c1.1-1.5,2.2-3,3.4-4.5C2224.7,1648.4,2223.6,1649.9,2222.5,1651.3z"/>
<path class="st1" d="M2252,1792.8c0.5-2.1,0.9-4.1,1.3-6.2C2252.9,1788.7,2252.5,1790.8,2252,1792.8c0,0.3-0.1,0.6-0.2,0.8
	C2251.9,1793.4,2251.9,1793.1,2252,1792.8z"/>
<path class="st1" d="M2253.3,1786.6c0.4-2.1,0.7-4.2,1-6.3C2254,1782.4,2253.7,1784.5,2253.3,1786.6z"/>
<path class="st1" d="M2433.3,1429.6c0.1-0.1,0.2-0.1,0.2-0.2C2433.5,1429.4,2433.4,1429.5,2433.3,1429.6c-0.2,0.2-0.3,0.4-0.5,0.6
	C2433,1429.9,2433.1,1429.7,2433.3,1429.6z"/>
<path class="st1" d="M2784.1,1548.7l-1.4,2.2l-2.3,3.4l-2.8,4.2c-2.9,4.4-6,8.9-9.1,13.5l-1.8,2.6l0,0l0,0c1.5-0.6,2.9-1.2,4.4-1.9
	l6.1-2.6l3.8-1.6l3.6-1.5l1.7-0.7l3.3-1.3l3.8-1.5c0.6-0.2,1.2-0.5,1.8-0.7l1.7-0.6l2.7-0.9c0.9-0.3,1.7-0.5,2.5-0.8l0.9-0.3
	c0.3-0.1,0.6-0.2,0.9-0.2c0.6-0.2,1.2-0.3,1.8-0.4s0.9-0.2,1.3-0.3s0.8-0.2,1.1-0.2s0.7-0.1,1.1-0.2s0.9-0.1,1.3-0.2l0.9-0.1
	c0.3,0,0.6-0.1,0.9-0.1c0.4,0,0.9,0,1.3,0s0.8,0,1.3,0s0.8,0.1,1.2,0.1s0.5,0.1,0.8,0.1c0.6,0.1,1.2,0.2,1.8,0.4l0.4,0.1
	c0.4,0.1,0.8,0.2,1.2,0.4c0.3,0.1,0.6,0.2,0.9,0.3c0.3,0.1,0.6,0.2,0.9,0.4l0.3,0.2c0.1,0,0.2,0.1,0.2,0.1l0.3,0.2
	c0.3,0.2,0.6,0.3,0.8,0.5s0.5,0.4,0.8,0.6s0.6,0.4,0.8,0.6c0.8,0.7,1.7,1.4,2.4,2.1c0.6,0.6,1.2,1.2,1.7,1.8c0.3,0.3,0.6,0.7,0.9,1
	c0.6,0.7,1.2,1.4,1.8,2.2c0.8,1.1,1.6,2.2,2.5,3.4c0.2,0.3,0.5,0.7,0.7,1l0.8,1.2c0.6,0.8,1.1,1.7,1.7,2.6c0.8,1.1,1.5,2.3,2.3,3.5
	s1.6,2.5,2.5,3.8L2784.1,1548.7z"/>
<path class="st1" d="M859.8,996.4c1.6-0.7,3.2-1.1,4.9-1.3C863,995.3,861.3,995.7,859.8,996.4z"/>
<path class="st1" d="M2829.4,1112.7l-19.9-20.1c-2.4-2.8-4.9-5.9-7.6-9.2l3.8-4c1.5-1.6,3-3.1,4.4-4.6l2.5-2.6L2829.4,1112.7z"/>
<path class="st1" d="M2820.1,1064.2l2.9-3l2.8-3c0.5-0.5,0.9-1,1.4-1.5c7.9,8,23.4,17.1,22.2,23.7c-0.1,0.4-0.1,0.8-0.2,1.1
	c-0.1,0.6-0.3,1.2-0.5,1.8c-0.1,0.3-0.2,0.7-0.3,1c-1.2,3.4-2.8,6.6-4.9,9.6c-0.4,0.6-0.8,1.2-1.3,1.9c-0.6,0.8-1.2,1.7-1.8,2.5
	c-0.4,0.6-0.9,1.2-1.3,1.8c-3.2,4.2-6.7,8.4-9.8,12.6L2820.1,1064.2z"/>
<path class="st2" d="M2828.5,1114l0.9-1.3L2828.5,1114c-0.2,0.3-0.4,0.5-0.6,0.8l0,0l0,0C2828.2,1114.6,2828.3,1114.3,2828.5,1114"
	/>
<path class="st0" d="M2177.2,1378.4l-6,5.7l-0.1,0.1l-5.6,5.3c-0.1,0.1-0.1,0.1-0.2,0.2l-5.2,4.9l-8,7.5l-2.4,2.3
	c-0.7,0.6-1.4,1.2-2,1.9l-2.7,2.5c-0.8,0.7-1.5,1.4-2.3,2.1l-2.7,2.5c-1.2,1.1-2.4,2.2-3.6,3.3l-1.7,1.6l-2.5,2.3
	c-3.7,3.4-7.2,6.4-10.4,9.2c-0.5,0.4-0.9,0.8-1.4,1.2l-4,3.3c-0.5,0.4-1,0.8-1.5,1.2l-1.5,1.2c-7.4,6-13.4,10.1-18.8,12.8
	c-0.3,0.2-0.6,0.3-0.9,0.5s-0.7,0.3-1,0.5s-0.7,0.3-1,0.5c-3.6,1.6-7.4,2.7-11.2,3.2l-0.6,0.1c-0.2,0-0.4,0-0.6,0.1h-0.4h-0.2
	c-0.2,0-0.5,0-0.7,0c-5,0.3-10.2-0.3-16.4-1.3c-0.3-1.2-0.7-2.4-1-3.6c-0.4-1.5-0.8-3-1.2-4.4s-0.8-2.9-1.2-4.4s-0.8-2.9-1.2-4.4
	c-1.2-4.4-2.4-8.7-3.6-13.1c-0.4-1.5-0.8-2.9-1.2-4.4c-0.3-0.9-0.5-1.8-0.8-2.8c-1.8-6.5-3.6-13.2-5.6-20.4c7.3,0,20.2,1.1,32.7-0.4
	c2.4-0.3,4.8-0.9,7.1-1.7c0.4-0.1,0.8-0.3,1.2-0.4s0.6-0.2,0.9-0.4s0.7-0.3,1.1-0.5c1-0.4,1.9-0.9,2.8-1.5c0.3-0.2,0.6-0.3,0.9-0.5
	c0.1-0.1,0.2-0.1,0.4-0.2c0.3-0.2,0.6-0.3,0.8-0.6c0.3-0.2,0.6-0.4,0.9-0.7c0.3-0.2,0.6-0.4,0.8-0.7c0.3-0.3,0.6-0.5,0.9-0.8
	l0.1-0.1c0.2-0.2,0.5-0.5,0.7-0.7l0.2-0.2c0.2-0.3,0.5-0.6,0.7-0.9c0.1-0.2,0.2-0.3,0.3-0.5c0,0,0,0,0-0.1c0.2-0.4,0.3-0.9,0.3-1.3
	c0.4-4.2-3-11.4-6.1-15.6c-1.4-1.9-2.9-3.7-4.4-5.3c-0.8-0.8-1.5-1.6-2.3-2.4c-0.6-0.6-1.1-1.1-1.7-1.6c-0.3-0.3-0.6-0.6-1-0.9
	l-0.9-0.8c-0.5-0.5-1.1-0.9-1.6-1.4s-1.2-1-1.8-1.4l-1.1-0.8c-0.8-0.6-1.5-1.1-2.3-1.6c-0.4-0.2-0.7-0.5-1.1-0.7l-1.2-0.7
	c-0.8-0.5-1.6-0.9-2.3-1.3s-1.5-0.8-2.3-1.2l-1.8-0.9c-1.8-0.9-3.7-1.6-5.6-2.3c-0.9-0.3-1.7-0.6-2.6-0.9c-0.1,0-0.1,0-0.2-0.1
	l-1.4-0.5c-3.7-1.2-7.6-2.1-11.4-2.8c-0.4-0.1-0.8-0.2-1.3-0.2c-0.7-0.1-1.4-0.3-2.2-0.4c-1-0.2-2-0.3-3.1-0.4
	c-2.1-0.3-4.1-0.5-6.2-0.7c-1.2-0.1-2.4-0.2-3.6-0.3s-2.2-0.2-3.3-0.2c-1.4-0.1-2.7-0.2-4-0.2s-2.5-0.1-3.7-0.1l-2.5-0.1h-2
	c-1.9,0-3.8-0.1-5.7-0.1h-2.4c-1.6,0-3.2,0-4.9,0c-36.1,0-72.3-4.7-108.1-2.3c-34.4,2.3-68.4,10.6-102.2,17.8l-0.2,0.1
	c-0.1,0-0.2,0-0.2,0.1l0,0c-0.1,0.1-0.3,0.1-0.4,0.2c-0.2,0.1-0.3,0.2-0.4,0.3c-0.2,0.1-0.4,0.3-0.5,0.4c-0.5,0.5-0.9,1.1-1.3,1.7
	c-0.2,0.3-0.4,0.7-0.6,1s-0.3,0.5-0.4,0.8s-0.2,0.4-0.3,0.6c-1.8,3.8-3.4,8.9-5.4,12.8l0,0l25.7,1.9l0,0l16.7,1.2l49.9,3.7l14.8,1.1
	l2,0.1l13.9,1l7.9,0.6l-1.8,0.9l-0.3,0.2c-0.7,0.4-1.4,0.7-2.1,1l-0.2,0.1c-0.6,0.3-1.2,0.6-1.8,0.9l-4,1.9l-1.3,0.6
	c-2.9,1.4-5.8,2.7-8.5,4.1l-1.1,0.6c-0.7,0.4-1.4,0.8-2,1.1s-1.5,0.9-2.3,1.4c-0.4,0.2-0.8,0.5-1.1,0.8c-0.1,0.1-0.2,0.1-0.3,0.2
	c-0.4,0.3-0.8,0.5-1.2,0.8l-0.7,0.5c-0.1,0.1-0.2,0.2-0.3,0.3l-0.4,0.3c-0.5,0.4-0.9,0.7-1.3,1.1c0,0,0,0-0.1,0.1
	c-0.4,0.4-0.8,0.7-1.2,1.1c-0.2,0.2-0.4,0.4-0.6,0.6s-0.2,0.2-0.3,0.3c-0.2,0.2-0.4,0.4-0.6,0.7c-0.2,0.2-0.4,0.4-0.6,0.7
	c-0.4,0.5-0.7,1-1.1,1.4s-0.6,0.9-0.9,1.4s-0.4,0.8-0.7,1.2s-0.3,0.7-0.5,1c-0.3,0.6-0.5,1.2-0.7,1.8c-0.3,1-0.6,1.9-0.9,2.9
	c-0.1,0.5-0.2,1.1-0.3,1.7s-0.2,1.2-0.2,1.8s-0.1,1-0.1,1.5c0,0.2,0,0.3,0,0.4s0,0.5,0,0.8c0,0.8,0,1.7,0,2.5c0,0.6,0.1,1.2,0.1,1.8
	s0.1,1.2,0.2,1.9s0.2,1.3,0.3,1.9c0,0.1,0,0.2,0,0.4c-0.1,0.2-0.1,0.3-0.3,0.5c0,0.1-0.1,0.1-0.1,0.2c-0.4,0.5-0.9,1-1.4,1.3
	l-0.4,0.3l-0.9,0.6l-0.9,0.6c-0.3,0.2-0.7,0.4-1,0.6c-0.3,0.2-0.6,0.3-0.9,0.5l-0.3,0.2c-0.6,0.3-1.2,0.6-1.8,1s-1,0.5-1.4,0.7
	l-1.2,0.5c-0.4,0.2-0.9,0.4-1.4,0.6l-0.7,0.3c-0.2,0.1-0.4,0.2-0.7,0.3c-0.4,0.2-0.9,0.3-1.4,0.5s-0.9,0.3-1.4,0.5l-0.9,0.3
	c-0.6,0.2-1.2,0.3-1.9,0.5s-1.2,0.2-1.8,0.3s-0.9,0.1-1.3,0.1h-0.1c-0.4,0-0.7,0.1-1.1,0.1h-0.5c-3.5-0.2-6.9-0.4-10.2-0.8l-2.5-0.3
	l-2.4-0.3l-2.6-0.4c-0.7-0.1-1.4-0.2-2.1-0.4h-0.2c-1-0.2-2.1-0.4-3.1-0.6l0,0l-1.3-0.3c-0.9-0.2-1.8-0.4-2.6-0.6
	c-1.5-0.4-3.1-0.8-4.6-1.2c-0.8-0.2-1.5-0.4-2.2-0.7c-1.5-0.5-3-1-4.4-1.5c-0.7-0.2-1.5-0.5-2.2-0.8l-2.2-0.8l-2.1-0.8
	c-1.4-0.6-2.8-1.2-4.2-1.8c-2.8-1.2-5.5-2.6-8.2-4c-1.1-0.6-2.1-1.2-3.2-1.8c-0.7-0.4-1.4-0.8-2.2-1.2s-1.7-1-2.5-1.5
	s-1.8-1.1-2.6-1.6c-1.1-0.7-2.2-1.4-3.3-2.1s-2.2-1.5-3.3-2.3l-0.6-0.4c-1.1-0.8-2.2-1.6-3.3-2.4s-2.2-1.7-3.3-2.5
	c-2.3-1.8-4.6-3.7-6.8-5.6c-1-0.9-2-1.7-3-2.6c-0.7-0.6-1.3-1.2-2-1.8c-1-0.9-2-1.9-3.1-2.8c-0.4-0.4-0.8-0.7-1.2-1.1
	c-0.9-0.9-1.8-1.7-2.7-2.6c-0.1,0-0.1-0.1-0.2-0.1c-1.1-1.1-2.2-2.1-3.2-3.2l-0.3-0.3c-1.1-1.1-2.2-2.2-3.2-3.3
	c-2.1-2.1-4.1-4.3-6.1-6.5c-0.9-0.9-1.7-1.8-2.5-2.8c-2.8-3-5.5-6.1-8.2-9.2c-0.1-0.2-0.3-0.3-0.3-0.5c-0.1-0.2-0.2-0.4-0.2-0.6
	c-0.1-0.2-0.1-0.4-0.1-0.6c-0.2-1.7,0.3-3.9,1.3-6.6l0.5-1.2c0.2-0.4,0.4-0.9,0.6-1.3c0.1-0.2,0.2-0.5,0.3-0.8
	c0.3-0.6,0.6-1.3,0.9-1.9s0.7-1.3,1-2c0.1-0.3,0.3-0.5,0.4-0.8c0.5-0.9,1-1.9,1.4-2.8c0.3-0.7,0.7-1.4,1.1-2
	c0.9-1.7,1.8-3.4,2.6-5.1c0.5-1,1-2,1.4-3c0.2-0.5,0.4-1,0.6-1.4c0.1-0.2,0.2-0.3,0.2-0.5c0.1-0.3,0.3-0.6,0.4-0.9l0,0
	c-0.1-0.1-0.2-0.2-0.3-0.3c-0.1-0.1-0.2-0.2-0.3-0.3c-0.4-0.4-0.8-0.7-1.3-1.1s-0.9-0.7-1.3-1s-1.2-1-1.8-1.4l-1.8-1.4
	c-0.8-0.6-1.6-1.2-2.4-1.9c-0.3-0.2-0.5-0.4-0.8-0.6c-1-0.8-1.9-1.5-2.9-2.4c-0.5-0.4-0.9-0.8-1.3-1.2l-1.2-1c-1.1-1-2.1-2-3.1-3.1
	c-0.3-0.3-0.6-0.7-0.9-1s-0.7-0.8-1-1.1c-0.6-0.7-1.1-1.4-1.6-2.1c-0.2-0.3-0.4-0.6-0.6-0.8c-0.7-1-1.2-2-1.7-3.1
	c-0.1-0.2-0.2-0.5-0.3-0.7s-0.2-0.4-0.3-0.7c-0.2-0.4-0.3-0.9-0.5-1.4c-0.1-0.2-0.1-0.4-0.2-0.6c-0.1-0.3-0.1-0.6-0.1-0.8
	c-0.1-0.6-0.1-1.2,0-1.8c0-0.2,0-0.4,0-0.6l0,0c0,0,0,0,0-0.1c0-0.2,0-0.4,0.1-0.6c0.1-0.5,0.1-0.9,0.3-1.4c0-0.2,0.1-0.5,0.2-0.7
	s0.1-0.5,0.2-0.7s0.2-0.5,0.2-0.7c0.2-0.5,0.3-1,0.5-1.4c0-0.1,0-0.1,0.1-0.2c0.2-0.4,0.4-0.9,0.6-1.3c0-0.1,0.1-0.1,0.1-0.2
	c0.2-0.5,0.5-1,0.8-1.5c0.1-0.2,0.2-0.4,0.3-0.7c1-1.9,2.2-3.7,3.4-5.4c0.3-0.4,0.7-0.9,1-1.3c0.1-0.1,0.2-0.3,0.3-0.4
	c0.4-0.5,0.8-1,1.2-1.5s0.7-0.8,1.1-1.2s0.6-0.7,1-1.1c0.7-0.7,1.4-1.4,2.1-2.1s1.1-1,1.7-1.5c0.4-0.3,0.8-0.7,1.2-1
	s0.6-0.5,0.9-0.7s0.7-0.5,1-0.7s0.8-0.5,1.1-0.7c8-4.9,24.2-1.8,34.5,2.5c0.1,0.1,0.3,0.1,0.4,0.2l0,0c0.1,0.1,0.3,0.2,0.4,0.3
	l0.3,0.2c0.2,0.2,0.3,0.3,0.4,0.5c0.1,0.2,0.3,0.4,0.4,0.6c0.1,0.2,0.2,0.3,0.3,0.5s0.2,0.4,0.2,0.5s0.2,0.4,0.2,0.6
	c0.3,0.9,0.6,1.8,0.8,2.7c0.2,0.6,0.3,1.2,0.4,1.9c0.1,0.4,0.1,0.8,0.2,1.2c0.1,0.6,0.2,1.3,0.2,1.9s0.1,1.3,0.1,2
	c0,0.2,0,0.4,0,0.7c0,0.3,0,0.6,0,0.9c0,0.8,0,1.6,0,2.5c0,0.3,0,0.6,0,0.9c0,0.9-0.1,1.8-0.2,2.7c0,0.2,0,0.4-0.1,0.6
	c-0.1,1-0.3,2-0.5,2.9c-5.4,24.3,4.2,36.8,28.4,28c1.5-0.6,3-1.1,4.5-1.6l3.1-1l0.3-0.1c1.2-0.4,2.5-0.8,3.8-1.2l3.2-0.9
	c0.9-0.3,1.8-0.5,2.7-0.8l0.4-0.1c0.9-0.3,1.8-0.5,2.8-0.7c2-0.5,4-1,5.9-1.5c1-0.2,2-0.5,3-0.7s2-0.4,3-0.6l3-0.6
	c1.9-0.4,3.8-0.7,5.7-1c4.2-0.7,8.4-1.3,12.6-1.8l2.6-0.3c7-0.8,14-1.3,21-1.7l3-0.1c1,0,2-0.1,3-0.1c6.2-0.2,12.5-0.2,18.7-0.1
	l3.4,0.1c1.2,0,2.4,0,3.6,0.1c5.5,0.2,11,0.4,16.5,0.7l2.8,0.2l2.8,0.2c2.1,0.1,4.1,0.3,6.2,0.4l7.2,0.5l8.9,0.7c2,0.2,4,0.3,6,0.5
	c2.5,0.2,4.9,0.4,7.4,0.6l8.9,0.8c8.5,0.8,17.1,1.5,25.6,2.1l2.8,0.2c2.4,0.2,4.8,0.3,7.3,0.5l4.4,0.3c4.5,0.3,8.9,0.5,13.4,0.7
	l4.4,0.2l4.4,0.1c0.5,0,1.1,0,1.6,0.1l1.6,0.1c0.5,0,1.1,0,1.6,0.1s1.3,0.1,1.9,0.2s1,0.1,1.5,0.1l0.9,0.1l1.6,0.2
	c3.7,0.5,7.5,1.2,11.2,2l2.7,0.7l1.6,0.4c2.9,0.8,5.7,1.6,8.6,2.6c0.9,0.3,1.9,0.6,2.8,0.9h0.1c1,0.3,2,0.7,3,1.1
	c0.2,0.1,0.5,0.2,0.8,0.3c1.2,0.4,2.4,0.9,3.6,1.4c0.7,0.3,1.4,0.6,2.2,0.9c0.9,0.4,1.8,0.7,2.7,1.1l3.4,1.4
	c1.6,0.7,3.1,1.4,4.7,2.1l3.2,1.5c1.1,0.5,2.2,1,3.3,1.5c7.3,3.5,14.6,7.3,22,11.1c2.9,1.6,5.9,3.1,8.9,4.7c3.7,2,7.5,4,11.3,5.9
	c1.9,1,3.8,2,5.7,3s3.8,2,5.8,2.9c3.1,1.6,6.2,3.1,9.3,4.6l3.8,1.8c1.1,0.5,2.2,1,3.3,1.5
	C2172.5,1376.4,2174.8,1377.4,2177.2,1378.4z"/>
<path class="st0" d="M1963.2,1175.7l-118.8-35.7C1885.4,1098.7,1938.2,1120.5,1963.2,1175.7z"/>
<path class="st0" d="M1854.6,851.1c-13.2,4.2-26.9,13-39.4,11.6c-26.3-2.9-51.9-11.1-82.2-18.2c19.4-10,32.6-20.1,47.5-23.4
	c12.8-2.9,28.9-0.8,41.1,4.3C1834.2,830.7,1843.7,842.3,1854.6,851.1z"/>
<path class="st0" d="M2090.2,1155.4L2090.2,1155.4c-26.9,13-52.4,25.3-78.7-5c5.3-5.2,11.4-9.6,18-13.1l1.2-0.6
	c0.4-0.2,0.9-0.4,1.4-0.6c1.6-0.7,3.2-1.3,4.8-1.9c0.6-0.2,1.1-0.3,1.7-0.5s1.1-0.3,1.7-0.4s1-0.2,1.5-0.3h0.1
	c0.5-0.1,1.1-0.2,1.6-0.3l1.3-0.2c0.8-0.1,1.5-0.2,2.2-0.2c0.3,0,0.7,0,1-0.1h0.6c0.9,0,1.9,0,2.8,0c0.4,0,0.9,0,1.4,0.1
	c0.8,0.1,1.7,0.1,2.5,0.2l0.7,0.1c0.6,0.1,1.2,0.2,1.8,0.3c0.3,0,0.6,0.1,1,0.2c0.1,0,0.1,0,0.2,0l1,0.2c1,0.3,2.1,0.6,3.1,0.9
	l0.6,0.2h0.1c0.3,0.1,0.6,0.2,0.9,0.3c0.4,0.2,0.9,0.3,1.3,0.5s1.1,0.5,1.6,0.8s1.2,0.6,1.8,0.9s1.1,0.6,1.6,0.9
	c0.9,0.5,1.7,1,2.5,1.6c0.3,0.2,0.6,0.4,0.8,0.6l1,0.7c0.5,0.4,1,0.7,1.5,1.1c0,0,0,0,0.1,0c0.5,0.4,1,0.8,1.5,1.2s0.8,0.7,1.2,1
	s0.8,0.7,1.2,1.1s0.8,0.7,1.2,1.1s0.8,0.8,1.2,1.2c0.6,0.6,1.2,1.2,1.8,1.8c1.2,1.2,2.3,2.6,3.4,4
	C2089.1,1154,2089.6,1154.7,2090.2,1155.4z"/>
<path class="st0" d="M2194.8,1347.9c-14.8-2.8-29.6-6.1-43.5-11.5c-0.2-0.1-0.5-0.2-0.7-0.3c-0.1-0.1-0.3-0.1-0.4-0.2
	c-0.3-0.2-0.5-0.3-0.8-0.5s-0.7-0.5-1-0.8l-0.5-0.5c-0.2-0.2-0.3-0.3-0.5-0.5s-0.3-0.3-0.5-0.5c-0.3-0.3-0.6-0.7-0.9-1.1
	s-0.8-1-1.2-1.6l-0.6-0.9c-0.2-0.3-0.4-0.6-0.6-0.9c-0.5-0.8-1.1-1.7-1.6-2.6c-1.4-2.2-2.9-4.5-4.7-6.9c10.1-2.2,18.6-6.7,25.2-5.1
	c13.4,3.3,26.2,9.5,38.3,16.1C2202.3,1330.9,2195.7,1348,2194.8,1347.9z"/>
<path class="st0" d="M1870.6,1174.4c-0.1,2.3-0.2,4.7-0.3,7c-19.9-3-41.4-2.8-59.1-10.3c-8.8-3.8-11-21.5-15.7-31.9L1870.6,1174.4z"
	/>
<path class="st3" d="M384.9,115.5c-24.8-11.4-54.2-0.4-65.6,24.4c-11.4,24.8-0.4,54.2,24.4,65.6c0.3,0.2,0.7,0.3,1,0.4
	c18.1,8.1,38.3,3.8,53.7-2.1c7.2-2.8,14.1-6.3,20.7-10.3c1.4,7.6,3.5,15.1,6.2,22.3c5.9,15.4,16.2,33.2,34.4,41.3
	c25,10.9,54.2-0.5,65.1-25.5c10.8-24.8-0.3-53.7-24.9-64.9c-18.2-8.1-38.3-3.8-53.7,2.1c-7.2,2.8-14.1,6.2-20.7,10.2
	c-1.3-7.5-3.4-14.9-6-22.1C413.7,141.5,403.4,123.7,384.9,115.5z M381.2,123.7c15.2,6.8,24.5,22.3,29.9,36.5
	c3,7.7,5.1,15.7,6.3,23.9c-7,4.5-14.5,8.2-22.3,11.1c-14.3,5.5-32,9-46.8,2.4c-20.4-9.1-29.6-33-20.5-53.4
	C336.9,123.8,360.8,114.6,381.2,123.7L381.2,123.7z M496.2,174.9c20.4,9.1,29.6,33,20.6,53.4c-9.1,20.4-33,29.6-53.4,20.6
	c-14.7-6.5-24-22.1-29.5-36.3c-3.1-7.7-5.3-15.8-6.7-24c7-4.5,14.5-8.2,22.3-11.1C463.8,171.8,481.6,168.3,496.2,174.9L496.2,174.9z
	 M483,193.6l-5.5,12.3l-12.3-5.5l-3.7,8.2l12.3,5.5l-5.5,12.3l8.2,3.6l5.5-12.3l12.3,5.5l3.7-8.2l-12.3-5.5l5.5-12.3L483,193.6z
	 M350.2,149.3l-3.6,8.2l32.9,14.6l3.6-8.2L350.2,149.3z"/>
<path class="st3" d="M3816.4,1557.9c19.7-19,20.2-50.3,1.3-69.9c-19-19.7-50.3-20.2-69.9-1.3c-0.3,0.3-0.6,0.6-0.9,0.9
	c-14.1,14-17.4,34.3-17.5,50.8c0,7.7,0.7,15.5,2.1,23.1c-7.6-1.4-15.3-2.2-23-2.3c-16.5-0.1-36.8,3.1-50.9,17.1
	c-19.1,19.5-18.9,50.8,0.6,69.9c19.1,18.8,49.7,18.9,69,0.3c14.1-14,17.4-34.3,17.5-50.8c0-7.7-0.7-15.4-2-23
	c7.5,1.5,15.1,2.3,22.7,2.4C3781.7,1575.3,3802,1572.2,3816.4,1557.9z M3810,1551.5c-11.8,11.7-29.7,14.7-44.9,14.6
	c-8.3,0-16.5-0.9-24.5-2.8c-1.6-8.2-2.4-16.5-2.3-24.8c0.1-15.3,3.3-33.1,14.7-44.4c15.9-15.7,41.5-15.6,57.2,0.2
	C3826.1,1510.1,3825.9,1535.8,3810,1551.5L3810,1551.5L3810,1551.5z M3720.6,1640.1c-15.9,15.7-41.5,15.6-57.2-0.2
	s-15.6-41.5,0.2-57.2l0,0c11.4-11.3,29.3-14.4,44.6-14.3c8.3,0,16.7,0.8,24.8,2.5c1.6,8.2,2.4,16.5,2.3,24.8
	C3735.3,1611,3732.1,1628.8,3720.6,1640.1z M3708,1621l-9.5-9.6l9.6-9.5l-6.3-6.4l-9.6,9.5l-9.5-9.6l-6.4,6.3l9.5,9.6l-9.6,9.5
	l6.3,6.4l9.6-9.5l9.5,9.6L3708,1621z M3797.5,1513.3l-6.3-6.4l-25.6,25.3l6.3,6.4L3797.5,1513.3z"/>
<path class="st4" d="M263.4,1545.1l-30.9,51.5l-54.4,25.5L69.3,1519.8l103.4-93.4L263.4,1545.1z M171.9,1438.9l-90.2,81.4l97.6,91.6
	l47.1-22.1l26.7-44.6L171.9,1438.9z M160.6,1567.1l12.2-11l7.6,7.9l16.6-6.7l8.4-15.8l-12.3-15.4l-26.8,24.2l-12.4-12.4l28-25.3
	l-10.8-13.8l-42,37.9l-12.7-12.2l55.7-50.3l22,27.4l31.6,39.3l-16.4,30.2l-31.7,13.2L160.6,1567.1z"/>
<path class="st4" d="M3780.9,543.8l-30.8,51.5l-54.3,25.5l-109-102.3l103.5-93.5L3780.9,543.8z M3689.5,437.5l-90.2,81.5l97.6,91.6
	l47.1-22.1l26.7-44.6L3689.5,437.5z M3678.1,565.8l12.2-11l7.6,7.9l16.6-6.7l8.4-15.8l-12.3-15.4l-26.8,24.2l-12.4-12.5l28-25.3
	l-10.8-13.8l-42,37.9L3634,523l55.7-50.3l22,27.4l31.6,39.3l-16.4,30.2l-31.7,13.2L3678.1,565.8z"/>
<path class="st3" d="M144.5,2132.9c1.3,1.4,3.5,1.5,5,0.2l111.4-92c1.1-1,1.5-2.5,1-3.9l-19.2-57.6c-0.2-0.7-0.6-1.3-1.2-1.7
	l-46.8-38.7c-1.1-0.9-2.7-1.1-4-0.4l-125.9,70.7c-1.8,1-2.4,3.2-1.4,4.9c0.1,0.1,0.1,0.2,0.2,0.3l80.5,117.5l0.2,0.3L144.5,2132.9z
	 M147.8,2124.9l-76-111l120.2-67.6l44,36.6l18.2,54.2L147.8,2124.9z M153.8,2094.4c1.4,1.4,3.5,1.5,5,0.2l41.7-34.5
	c1.5-1.2,1.8-3.3,0.8-4.9l-32.9-48.1l14.7-8.2l12.3,11.6l6.6,15.8l-4.6,3.8c-1.5,1.2-1.9,3.4-0.8,4.9l10,14.7
	c0.6,0.9,1.5,1.4,2.5,1.6c1,0.1,2.1-0.2,2.9-0.8l17.3-14.3c1.2-0.9,1.6-2.5,1.2-3.9l-11.4-36.2l-0.2-0.4c-0.2-0.7-0.6-1.3-1.2-1.7
	l-30-24c-1.2-1-2.8-1.1-4.1-0.4l-47.9,27c-0.9,0.5-1.5,1.3-1.8,2.3c-0.2,1-0.1,2,0.5,2.9l35.1,51.2l-8.8,7.1l-36.5-53.3
	c-1.1-1.6-3.1-2.1-4.8-1.1l-15.5,8.7c-0.9,0.5-1.5,1.4-1.8,2.4c-0.2,1,0,2.1,0.6,2.9l50.6,73.9
	C153.5,2094,153.6,2094.2,153.8,2094.4L153.8,2094.4z M157.1,2086.4l-46.1-67.3l9.1-5.1l36.9,53.9c1.1,1.7,3.4,2.1,5.1,1
	c0.1-0.1,0.2-0.1,0.3-0.2l14.4-11.9c1.4-1.2,1.7-3.2,0.7-4.8l-34.7-50.7l42.5-23.8l27,21.8l10.5,33.1l-12.4,10.2l-5.9-8.7l4.2-3.4
	c1.3-1,1.7-2.7,1.1-4.2l-8-19.1c-0.2-0.5-0.5-0.9-0.8-1.2l-14.7-14.1c-1.2-1.1-2.9-1.3-4.3-0.5l-20.7,11.5c-1.7,1-2.3,3.3-1.3,5
	c0,0.1,0.1,0.1,0.1,0.2l33.3,48.6L157.1,2086.4z"/>
<path class="st3" d="M3604.4,988c-1.9-0.3-3.7,0.9-4.1,2.7l-36.9,139.7c-0.3,1.4,0.2,2.9,1.4,3.8l49.2,35.6c0.6,0.4,1.2,0.6,1.9,0.7
	l60.6,4.1c1.5,0.1,2.9-0.7,3.5-2l61.1-130.9c0.9-1.8,0.1-4-1.7-4.9c-0.1-0.1-0.2-0.1-0.4-0.1l-134-48.5l-0.3-0.1L3604.4,988z
	 M3606.3,996.5l126.5,45.8l-58.2,125l-57.1-4l-46.4-33.4L3606.3,996.5z M3619.2,1024.7c-1.9-0.3-3.7,0.9-4.1,2.8l-13.7,52.4
	c-0.5,1.8,0.4,3.7,2.2,4.4l54.8,19.8l-7.2,15.2l-16.7-2.3l-14.6-9l1.5-5.8c0.5-1.9-0.5-3.8-2.3-4.5l-16.7-6.1
	c-1.9-0.7-4,0.3-4.7,2.1c0,0.1-0.1,0.2-0.1,0.4l-5.7,21.7c-0.4,1.4,0.1,2.9,1.3,3.8l30.3,22.7l0.4,0.3c0.6,0.4,1.2,0.7,1.9,0.7
	l38.3,2c1.5,0.1,2.9-0.7,3.6-2.1l23.2-49.9c0.4-0.9,0.5-2,0.1-2.9c-0.4-0.9-1.1-1.6-2.1-2l-58.4-21.2l3-10.9l60.8,22
	c1.8,0.7,3.8-0.2,4.6-1.9l7.5-16.1c0.5-0.9,0.5-2,0.1-3c-0.4-0.9-1.2-1.7-2.1-2l-84.2-30.5
	C3619.7,1024.8,3619.5,1024.7,3619.2,1024.7L3619.2,1024.7z M3621.2,1033.1l76.8,27.8l-4.4,9.4l-61.4-22.2c-1.9-0.7-4,0.3-4.7,2.2
	c0,0.1-0.1,0.2-0.1,0.3l-4.7,18.1c-0.5,1.8,0.5,3.6,2.2,4.3l57.8,20.9L3662,1138l-34.7-1.9l-27.9-20.8l4.1-15.5l9.9,3.6l-1.4,5.2
	c-0.4,1.6,0.2,3.2,1.6,4.1l17.6,10.9c0.4,0.3,0.9,0.4,1.4,0.5l20.2,2.8c1.6,0.2,3.1-0.7,3.8-2.1l10-21.3c0.8-1.9-0.1-4-1.9-4.8
	c-0.1,0-0.1,0-0.2-0.1l-55.4-20L3621.2,1033.1z"/>
<path class="st3" d="M3274.7,126c-4.3-2.2-9.5-0.6-11.8,3.7L3207.4,236c-2.2,4.3-0.5,9.5,3.7,11.8l106.3,55.5
	c4.3,2.2,9.5,0.6,11.8-3.7l55.5-106.3c2.2-4.3,0.6-9.5-3.7-11.8L3274.7,126z M3271.7,131.8l106.3,55.5c1.1,0.6,1.5,1.9,0.9,2.9
	c0,0,0,0,0,0l-55.5,106.3c-0.5,1.1-1.9,1.5-2.9,0.9c0,0,0,0,0,0l-106.3-55.5c-1.1-0.5-1.5-1.9-1-2.9c0,0,0,0,0-0.1l55.5-106.3
	C3269.3,131.6,3270.6,131.2,3271.7,131.8L3271.7,131.8z M3293.3,205.8l-19,36.4c-2.9,5.6-5.8,5.9-9.5,4c-3.9-2-5.3-5.8-5.4-9.8
	l-12,0.8c-0.3,7,3.1,16.4,12,21c9.9,5.2,19.5,3.5,25.5-8.1l19.9-38.2L3293.3,205.8z M3329.4,224.6c-9.9-5.2-19.5-2.1-23.8,6.2
	c-4.7,9-1.6,16,4.6,23.6l2.1,2.6c3.9,4.8,5.7,7.5,3.7,11.3c-1.6,3.1-5.2,4.2-9.8,1.8c-5.5-2.9-6.1-7.9-6.4-13l-11.7,1.3
	c-0.1,8.1,3,16.3,13.3,21.7c10.5,5.5,21.2,4.1,26.4-5.8c4.8-9.2,1.7-16.1-5.6-25.1l-2.1-2.6c-3.7-4.5-5-6.9-3.3-10.3
	c1.4-2.7,4.5-3.7,7.8-2s4.5,4.1,4.6,8.4l11.5-1C3340.1,233.4,3336.4,228.3,3329.4,224.6L3329.4,224.6z"/>
<path class="st3" d="M1.4,1100.9c-2.6,4.1-1.5,9.5,2.6,12.1l100.7,65c4.1,2.6,9.4,1.4,12.1-2.6l65-100.7c2.6-4.1,1.4-9.4-2.6-12.1
	l-100.7-65c-4.1-2.6-9.4-1.4-12.1,2.6L1.4,1100.9z M6.9,1104.5l65-100.7c0.6-1,2-1.3,3-0.7c0,0,0,0,0,0l100.7,65c1,0.6,1.3,2,0.7,3
	c0,0,0,0,0,0l-65,100.7c-0.6,1-2,1.3-3,0.7c0,0,0,0,0,0l-100.7-65C6.5,1106.8,6.2,1105.5,6.9,1104.5
	C6.9,1104.5,6.9,1104.5,6.9,1104.5L6.9,1104.5z M82.5,1089.7l34.5,22.3c5.3,3.4,5.4,6.3,3.1,9.8c-2.4,3.7-6.3,4.7-10.3,4.5l-0.3,12
	c6.9,0.9,16.6-1.5,22-10c6.1-9.4,5.2-19.1-5.8-26.2l-36.2-23.4L82.5,1089.7z M104.6,1055.5c-6,9.4-3.9,19.2,3.9,24.3
	c8.5,5.5,15.8,3.1,23.9-2.4l2.8-1.9c5.2-3.4,8-5,11.6-2.6c3,1.9,3.7,5.6,0.9,9.9c-3.3,5.2-8.4,5.4-13.6,5.2l0.2,11.8
	c8.1,0.8,16.5-1.5,22.8-11.2c6.4-9.9,6-20.7-3.4-26.8c-8.8-5.7-15.9-3.2-25.5,3.3l-2.8,1.9c-4.9,3.2-7.4,4.4-10.5,2.3
	c-2.5-1.6-3.2-4.8-1.2-7.9s4.5-4.1,8.9-3.8v-11.6C114.3,1045.6,108.9,1048.9,104.6,1055.5L104.6,1055.5z"/>
<path class="st3" d="M3671.4,1999.6c-31.4-20.6-73.6-11.8-94.2,19.6c-20.6,31.4-11.8,73.6,19.6,94.2c16.7,11,37.4,14,56.6,8.3
	l18.9,12.4l5.5,26.1c0.2,1,0.8,1.9,1.7,2.5l6.7,4.4l4.4-6.7l-5.3-3.5l-5.5-26.1c-0.2-1-0.8-1.9-1.7-2.5l-15.4-10.1
	c4.1-1.9,7.9-4.2,11.6-6.8l15.7,10.3l3.1,15c0.2,1,0.8,1.9,1.7,2.5l6.7,4.4l4.4-6.7l-5.3-3.5l-3.1-15c-0.2-1-0.8-1.9-1.7-2.5
	l-15-9.8c2.9-2.8,5.6-5.8,8-9.1l30.3,19.8l4.4-6.7l-30.3-19.8c2-3.5,3.7-7.2,5.1-11l15.1,9.8c0.9,0.6,2,0.8,3,0.6l15-3.1l5.3,3.5
	l4.4-6.7l-6.7-4.4c-0.9-0.6-2-0.8-3-0.6l-15,3.1l-15.7-10.3c1-4.4,1.5-8.8,1.6-13.3l15.4,10.1c0.9,0.6,2,0.8,3,0.6l26.1-5.5l5.3,3.5
	l4.4-6.7l-6.7-4.4c-0.9-0.6-2-0.8-3-0.6l-26.1,5.5l-18.9-12.3C3699.1,2028.2,3688.1,2010.5,3671.4,1999.6z M3584,2023.7
	c3.9-6,16.1-7,32.1-2.3c-4.9,12.1-12.1,23.2-21.3,32.5C3584,2041.3,3580.1,2029.6,3584,2023.7L3584,2023.7z M3613.7,2043.1
	c3.9-6,7.2-12.4,9.8-19.1c7.1,2.8,13.9,6.2,20.4,10.2l-26.2,40c-6.3-4.3-12.1-9.2-17.6-14.5
	C3605.3,2054.7,3609.8,2049.1,3613.7,2043.1L3613.7,2043.1z M3655,2032l15.2-23.3c9.3,7,16.3,16.5,20.2,27.4
	c-5.9,3.4-11.4,7.3-16.5,11.7C3668.2,2041.9,3661.8,2036.7,3655,2032L3655,2032z M3668.2,2053.2c-10.1,10.2-18,22.4-23.4,35.7
	c-7.1-2.8-13.9-6.2-20.4-10.2l26.1-40C3656.9,2043,3662.8,2047.8,3668.2,2053.2L3668.2,2053.2z M3648.3,2027.6
	c-7-4.4-14.4-8.1-22.1-11.1c2-6.5,3.4-13.1,4.1-19.8c11.6-0.8,23.1,1.8,33.2,7.5L3648.3,2027.6z M3613.4,2081l-15.2,23.4
	c-9.3-7-16.3-16.5-20.2-27.4c5.9-3.4,11.4-7.3,16.5-11.7C3600.2,2071.1,3606.6,2076.3,3613.4,2081z M3620.1,2085.4
	c7,4.4,14.4,8.1,22.1,11.1c-2,6.5-3.4,13.1-4.1,19.8c-11.6,0.8-23.1-1.9-33.2-7.5L3620.1,2085.4z M3649.7,2099.1
	c8.5,2.6,16.4,3.7,23.1,3.3c-7.7,6.4-16.8,10.8-26.6,12.8C3646.9,2109.7,3648.1,2104.3,3649.7,2099.1L3649.7,2099.1z M3652.4,2091.6
	c4.9-12.1,12.1-23.2,21.3-32.5c10.8,12.6,14.7,24.3,10.8,30.3S3668.3,2096.3,3652.4,2091.6z M3679.4,2053.6
	c4.2-3.6,8.7-6.9,13.4-9.7c2.1,9.8,1.7,19.9-1.1,29.5C3689.4,2067.1,3685.2,2060.4,3679.4,2053.6L3679.4,2053.6z M3622.1,1997.8
	c-0.7,5.5-1.9,10.9-3.5,16.1c-8.5-2.6-16.4-3.7-23.1-3.3C3603.2,2004.2,3612.4,1999.7,3622.1,1997.8z M3576.6,2039.6
	c2.3,6.3,6.5,13,12.3,19.8c-4.2,3.6-8.6,6.9-13.4,9.7C3573.5,2059.3,3573.8,2049.2,3576.6,2039.6L3576.6,2039.6z"/>
<path class="st3" d="M3758.6,2070.9l4.4-6.7l6.7,4.4l-4.4,6.7L3758.6,2070.9z"/>
<path class="st3" d="M3743.3,2094.3l4.4-6.7l6.7,4.4l-4.4,6.7L3743.3,2094.3z"/>
<path class="st3" d="M3693,2171.3l4.4-6.7l6.7,4.4l-4.4,6.7L3693,2171.3z"/>
<path class="st3" d="M3708.3,2147.9l4.4-6.7l6.7,4.4l-4.4,6.7L3708.3,2147.9z"/>
<path class="st3" d="M3725.8,2121.1l4.4-6.7l6.7,4.4l-4.4,6.7L3725.8,2121.1z"/>
<path class="st3" d="M3560.5,2025.2l7.8-1.6c-1.4-6.5,2.8-12.8,9.3-14.2c0,0,0,0,0,0l-1.6-7.8
	C3565.1,2003.8,3558.2,2014.4,3560.5,2025.2C3560.5,2025.2,3560.5,2025.2,3560.5,2025.2z"/>
<path class="st3" d="M3572.8,1984.4c-20.4,4.3-33.5,24.3-29.2,44.7l7.8-1.7c-3.4-16.1,7-31.9,23.1-35.3L3572.8,1984.4z"/>
<path class="st3" d="M3571,1975.6l-1.6-7.8c-29.6,6.3-48.6,35.3-42.5,65l7.8-1.6C3529.5,2005.8,3545.7,1980.9,3571,1975.6z"/>
<path class="st3" d="M3579.2,2114.8c2.3,10.8,12.9,17.7,23.7,15.5l-1.6-7.8c-6.5,1.4-12.8-2.8-14.2-9.3L3579.2,2114.8z"/>
<path class="st3" d="M3562.1,2117.9c4.3,20.4,24.3,33.5,44.7,29.2l-1.6-7.8c-16.1,3.4-31.9-6.9-35.3-23L3562.1,2117.9z"/>
<path class="st3" d="M3553.3,2119.7l-7.8,1.6c6.3,29.6,35.3,48.6,65,42.5l-1.6-7.8C3583.5,2161.2,3558.6,2145,3553.3,2119.7
	L3553.3,2119.7z"/>
<path class="st3" d="M3667.1,1990.6c6.5-1.4,12.8,2.8,14.2,9.3l7.8-1.6c-2.3-10.8-12.9-17.7-23.7-15.5L3667.1,1990.6z"/>
<path class="st3" d="M3661.5,1965.8l1.6,7.8c16.1-3.4,31.9,6.9,35.3,23l7.8-1.6C3701.9,1974.6,3681.9,1961.6,3661.5,1965.8z"/>
<path class="st3" d="M3657.9,1949.2l1.6,7.8c25.3-5.3,50.2,11,55.5,36.3l7.8-1.6C3716.7,1962,3687.6,1943,3657.9,1949.2
	L3657.9,1949.2z"/>
<path class="st3" d="M200.8,548.3c-31.4-20.6-73.6-11.8-94.1,19.6c-20.6,31.4-11.8,73.6,19.6,94.1c16.7,11,37.4,14,56.6,8.3
	l18.9,12.4l5.5,26.1c0.2,1,0.8,1.9,1.7,2.5l6.7,4.4l4.4-6.7l-5.3-3.5l-5.5-26.1c-0.2-1-0.8-1.9-1.7-2.5l-15.4-10.1
	c4.1-1.9,7.9-4.1,11.5-6.8l15.7,10.3l3.1,15c0.2,1,0.8,1.9,1.7,2.5l6.7,4.4l4.4-6.7l-5.3-3.5l-3.1-15c-0.2-1-0.8-1.9-1.7-2.5
	l-15-9.8c3-2.8,5.6-5.8,8-9.1l30.3,19.8l4.4-6.7L222.6,639c2-3.5,3.7-7.2,5.1-11l15,9.8c0.9,0.6,2,0.8,3,0.6l15-3.2l5.3,3.5l4.4-6.7
	l-6.7-4.4c-0.9-0.6-2-0.8-3-0.6l-15,3.1L230,619.9c1-4.4,1.5-8.8,1.6-13.3l15.4,10.1c0.9,0.6,2,0.8,3,0.6l26.1-5.5l5.3,3.5l4.4-6.7
	l-6.7-4.4c-0.9-0.6-2-0.8-3-0.6l-26.1,5.5L231,596.8C228.6,576.9,217.5,559.2,200.8,548.3z M113.4,572.4c3.9-6,16.2-7,32.1-2.3
	c-4.9,12.1-12.1,23.2-21.3,32.5C113.5,590,109.5,578.3,113.4,572.4z M143.1,591.8c3.9-6,7.2-12.4,9.9-19.1
	c7.1,2.8,13.9,6.2,20.4,10.2l-26.2,40c-6.3-4.3-12.1-9.2-17.5-14.5C134.7,603.4,139.2,597.8,143.1,591.8z M184.4,580.7l15.2-23.3
	c9.3,7,16.3,16.5,20.2,27.4c-5.9,3.4-11.4,7.3-16.5,11.7C197.6,590.6,191.2,585.4,184.4,580.7L184.4,580.7z M197.6,601.9
	c-10.1,10.2-18,22.4-23.4,35.7c-7.1-2.8-13.9-6.2-20.4-10.2l26.1-40C186.3,591.7,192.2,596.6,197.6,601.9L197.6,601.9z M177.7,576.3
	c-7-4.4-14.4-8.1-22.1-11.1c2-6.5,3.4-13.1,4.1-19.8c11.6-0.8,23.1,1.9,33.2,7.6L177.7,576.3L177.7,576.3z M142.8,629.7l-15.2,23.3
	c-9.3-7-16.3-16.5-20.2-27.4c5.9-3.3,11.4-7.3,16.5-11.7C129.7,619.8,136,625.1,142.8,629.7L142.8,629.7z M149.5,634.1
	c7,4.4,14.4,8.1,22.1,11.1c-2,6.5-3.4,13.1-4.1,19.8c-11.6,0.8-23.1-1.8-33.2-7.5L149.5,634.1z M179.1,647.8
	c8.5,2.6,16.4,3.7,23.1,3.3c-7.6,6.4-16.8,10.9-26.6,12.9C176.4,658.5,177.5,653.1,179.1,647.8z M181.8,640.3
	c4.9-12.1,12.1-23.2,21.3-32.5c10.8,12.6,14.7,24.3,10.8,30.3S197.7,645,181.8,640.3L181.8,640.3z M208.9,602.3
	c4.2-3.6,8.6-6.9,13.4-9.7c2.1,9.8,1.7,19.9-1.1,29.5C218.9,615.8,214.6,609.1,208.9,602.3z M151.6,546.4
	c-0.7,5.5-1.8,10.9-3.5,16.2c-8.5-2.6-16.4-3.7-23.1-3.3C132.7,552.9,141.8,548.5,151.6,546.4L151.6,546.4z M106.1,588.3
	c2.3,6.3,6.5,13,12.3,19.8c-4.2,3.6-8.6,6.9-13.4,9.7C102.9,608,103.3,597.9,106.1,588.3z"/>
<path class="st3" d="M288,619.6l4.4-6.7l6.7,4.4l-4.4,6.7L288,619.6z"/>
<path class="st3" d="M272.7,643l4.4-6.7l6.7,4.4l-4.4,6.7L272.7,643z"/>
<path class="st3" d="M222.4,720.1l4.4-6.7l6.7,4.4l-4.4,6.7L222.4,720.1z"/>
<path class="st3" d="M237.7,696.6l4.4-6.7l6.7,4.4l-4.4,6.7L237.7,696.6z"/>
<path class="st3" d="M255.2,669.8l4.4-6.7l6.7,4.4l-4.4,6.7L255.2,669.8z"/>
<path class="st3" d="M89.9,573.9l7.8-1.6c-1.4-6.5,2.8-12.8,9.3-14.2l-1.6-7.8C94.6,552.5,87.6,563.1,89.9,573.9z"/>
<path class="st3" d="M102.2,533.2c-20.4,4.3-33.5,24.3-29.2,44.7l7.8-1.6c-3.3-16.1,7-31.9,23-35.3L102.2,533.2z"/>
<path class="st3" d="M100.4,524.3l-1.6-7.8c-29.6,6.3-48.6,35.3-42.5,65l7.8-1.6C58.9,554.5,75.1,529.6,100.4,524.3z"/>
<path class="st3" d="M108.7,663.5c2.3,10.8,12.9,17.7,23.7,15.5l-1.6-7.8c-6.5,1.4-12.8-2.8-14.2-9.3L108.7,663.5z"/>
<path class="st3" d="M91.6,666.6c4.3,20.4,24.3,33.5,44.7,29.2l-1.6-7.9c-16.1,3.4-31.9-6.9-35.3-23L91.6,666.6z"/>
<path class="st3" d="M82.7,668.4l-7.8,1.6c6.3,29.6,35.3,48.6,65,42.5l-1.6-7.8C112.9,710,88.1,693.7,82.7,668.4L82.7,668.4z"/>
<path class="st3" d="M196.6,539.3c6.5-1.4,12.8,2.8,14.2,9.3l7.8-1.6c-2.3-10.8-12.9-17.7-23.7-15.5L196.6,539.3z"/>
<path class="st3" d="M190.9,514.6l1.6,7.8c16.1-3.4,31.9,7,35.3,23l7.8-1.6C231.4,523.4,211.4,510.3,190.9,514.6z"/>
<path class="st3" d="M187.4,497.9l1.6,7.8c25.3-5.3,50.2,10.9,55.5,36.3l7.8-1.7C246.1,510.7,217.1,491.7,187.4,497.9L187.4,497.9z"
	/>
</svg>
