<svg id="Layer_1" data-name="Layer 1" xmlns="http://www.w3.org/2000/svg" viewBox="0 0 3830.95 3024"><defs><style>.cls-1{fill:green;}.cls-2{fill:#fff;}.cls-3{fill:none;}.cls-4,.cls-5{fill:#ffba00;}.cls-5{fill-rule:evenodd;}</style></defs><title>hero</title><path class="cls-1" d="M3638.25,3010.87c-54.82-137.3-104.16-276.86-166.45-411.09-58.63-126.34-129.69-247.88-245.68-339.09-4.47-3.53-8.92-7.82-11.48-12.63-16.24-30.59-44.69-39.76-78.29-48.79a3881.22,3881.22,0,0,1-593.43-212.2c-19.8-9-39.11-21.25-54.51-35.81-24.56-23.19-45.63-49.6-66-72.28,8.81-4.22,28.11-7.48,31.09-15.87,15.87-44.59,49.33-34.19,84.24-29.66,11.86,1.56,27.84-4.53,35.57-13.11,19-21.08,33.86-45.47,50.22-68.34,25.28,10,63.13.75,63-19-.17-22.51-16.44-44.91-25.35-67.36,4.61-3,4-2.62,8.6-5.65,13.47,11.15,26.73,22.52,40.5,33.31,5.07,4,13.31,10.7,16.74,9.25,27-11.52,54.63-22.65,78.6-38.53,8.06-5.34,5-24.34,9-36.52,4.12-12.5,10.72-24.27,14-31.43,20.59,2.36,33.62,3.2,46.33,5.56,6.79,1.27,15.69,3.46,19,8.14,15.13,21.09,28.16,15.43,41.3-1.06,7.57-9.51,14.73-19.29,21.9-28.74,32.88,18.78,33.18,19.53,26.73,57.8,10.28-27.3,20.57-54.58,33.6-89.13l27,39.1,18.79-33.67,37.79,23.84c0-25.71.08-48.25,0-70.78-.24-52.09-.27-52.09,11.71-57.6,3.24,11.3,6.42,22.34,12.54,43.7,8.16-17.16,17.74-28.26,15-33-10.35-17.71-24.75-33.35-37.58-49.7-34,15.49-35.05,14.12-44.78-20.46-2.66-9.41-14-17.54-23.06-24.26-13.66-10.16-31.11-16.57-42.78-28.24-15.21-15.2-27.37-33.39-38.8-51.42-5.81-9.15-11.91-22-9.34-31,3.22-11.22,15.24-20.23,24.77-31.78l13,18.41c12.08-6.07,23.75-10.29,33.38-17.06,46.44-32.67,86.88-117.94,57.78-122-3.34,7-6.77,14.17-10.2,21.33l-10.59,1.81c19-38.5,1-60.1-26.23-83.93-27.64-24.22-17.85-66,15.17-87.78v45.66l39.45-29.54c-66.66-62.56-132.88-117.56-222.09-142.27,27.54-26.51,70.77,7.45,92-29.34l-62.22-7.3c-.22-34.35-26.63-33.72-57.79-29.44-12.25-48.95-24.08-96.19-38.82-155.12-17.63-15.36-49.51-31-90.48-13.06-3.83,1.66-12.86-.94-15.63-4.33-18.27-22.46-39-44.07-52-69.15-10.35-20.11-5.71-47.17-16.57-66.84-25.92-46.88-11.2-84.8,16.66-124.91,14.45-20.79,21-46.7,29-70.92,1.66-5-4.61-14.47-10.05-18.68-3.12-2.39-15.35-.26-17.6,3.19-15.41,23.67-32.51,47.12-42.67,72.85-9.08,23.06-20.57,29.79-47,20.91-30.69-10.3-59.76-33.4-95.59-3.22-17.49,14.72-45.29-4-42.92-30.68,4.55-51.21-25.48-77.26-68.89-96.21-17.52-7.66-37.36-11.74-53.08-21.73A408.26,408.26,0,0,1,2221.14,134a75.81,75.81,0,0,1-21.86-38.64c-5-23.15-16.05-33-41.31-29.4-13.23,1.89-26.86,1.17-40.27,2.25-11.94,1-23.79,2.81-35.7,4.25,2.34,9.91,4.63,19.85,7,29.76.9,3.76,2,7.48,3.83,14.29-17.57-6.23-31.41-14.75-45.47-15.07-12.78-.31-32.83,5-37.48,13.57-21.19,39.18-26.93,41.47-83.17,21.45l23.85-14.62h-67.74c4.81,40.43,4.81,40.43-15.69,42.75,1.5-34.84-12.34-57.49-42.08-53.92-30.69,3.66-39.83-9.8-55-28.83-10.61-13.35-33.94-17.82-55.46-28.09,1.3,16.31,1.92,24.18,2.16,27l-72.51-20.86c-16-25.87-22.24-25.62-56.67,9.77l73.72,26.77-3.52,12.38c-24.63-5.85-49.44-11.06-73.8-17.78-17.9-4.94-35-16.33-52.75-16.9-28.18-.9-30.3-11.26-20.66-31.14,2.84-5.9,6.6-11.41,11.9-20.46-48.76.8-89.75-37.42-141-16C1417.1,19,1448.71,30,1481.4,41.48c3.33,7.48,8.1,17.72,12.41,28.15,4.55,11,8.65,22.19,13.29,34.21,50.36-.83,56.58,1.12,74.19,48.82,4.28,11.59-9.37,29-14.78,43.76-11.55-8.81-12.23-15.78-15.84-21-17.18-24.74-28.67-51.06-74.16-32.72-22,8.85-59.12-4.92-84.62-17.17-26.75-12.84-61.19-22.46-68.05-58.82-1.09-5.73-14.34-9.45-21.66-13.91-20.76,22.58-23,64.58-1.51,89.16,29.49,33.69,62.58,64.58,95.12,97.69-3.8,1.48-15.32,3.95-24.17,9.9-9.84,6.62-17.25,16.43-19,18.2-22.12-2.47-41.73-10.65-51.76-4.67-32.95,19.61-39.84,55.06-22.77,89.63-3.74,0-7.18-.18-10.61,0-60.67,3.59-70.35,15.29-63.15,70.81,1.4,10.74-5.31,22.4-8.25,33.57l-46.84-19.2c-2.62,4-1.84,2.82-4.44,6.86L1189,478.3c15.89-13.65,29.11-32.07,47.2-38.58,18.34-6.6,41.49-1.46,56-1.46,5.59,19.3,11.87,32.34,12.38,45.57.37,9.85-4.87,21.19-11.14,29.52-5,6.62-19.1,7.91-22.62,14.6-18,34-49,27.09-80.66,29.26-42.39,2.88-90.87-4.08-120.87,37.16-10.77-7.74-21.51-15.48-33.85-24.4-11.1,14.16-20.36,25.93-26.2,33.4,14.37,3,28.94,6.88,43.8,8.92,15.57,2.14,34.8,13.67,41.47-12.75,4.68-18.55,14.54-17.71,26.25-4.14,13.2,15.32,25.21,24.82,39.21-1,2.85-5.27,24.18-8,31-3.58,8.75,5.62,10.18,20.4,17.21,29.59,4,5.25,12.88,7.2,19.56,10.64,1.48-2.11,3-4.21,4.45-6.34,7.23,14.45,14.46,28.9,23.76,47.54-42,4.26-91.36-6.25-92.77,40-21.78,12.38-36.09,27.41-50.46,27.45-50.24.13-77.24,39.13-116.93,56.24-33.5,14.45-40.81,46.83-26,76.31,4.51,9,2.79,26.15-3.76,33.67-25.84,29.63-79.5,33.77-86.09,82.42-.33,2.31-14.64,1.23-19.28,5.07-11.3,9.38-21,20.46-31.25,31,2.09,2.38,1.47,1.65,3.55,4l75.26-43.59c3.05,2.73,2.68,2.4,5.71,5.13l-20.61,34.69c5.05,1.09,11.52,1.13,16.32,3.78,26.57,14.7,53,29.61,78.74,45.6,4.61,2.87,9.37,14.08,7.37,16.43-19.68,23.14-39.16,46.85-62.36,66.65-8.12,6.94-26.4,3-39.91,4.9-16,2.26-33.56,2.65-47.2,9.53-6.53,3.29-8.26,19.86-7.23,30,.8,7.81,12.23,22,14,21.34,44.08-16.12,57.43,28.54,91,35.63l-66.44,45.14c6.1,11.86,15,23.08,17.59,35.46,7.17,34.35,10.75,69.36,17.58,103.78,6.24,31.44,49.55,44.53,74.4,23,8.05-7,13.61-16.48,21.1-25.8,16.34,30.71,44,40.15,80.31,22.83,30.14-14.39,40.45,0,44.15,21.68,2.51,14.86-4,31.06-5.71,42.18l-47.42,9.54c24.77,16,49.16,24.92,73.8,33.26,53.33,18.07,58.19,62.74,63,105.35,3.24,28.68,27.75,59-2.88,87.08-31.81,29.13-7,70.2-23.68,103.38-3.12,6.22,11,25.9,21.64,30.84,12.4,5.77,37.94,7.84,43.05,1.32,8-10.16,4.47-28.92,4-44-.25-7.66-8.35-20.46-6.2-21.88,7.84-5.09,19.34-9.93,27.9-8.18,9.76,2,25.73,11.57,25.39,17.11-2,34,22.23,47.19,48.15,59.21,34.49,16,69.65,30.67,110.42,48.49-56.43,37-105.9,78.53-163.2,105.28-153.65,71.76-308.52,142.15-467.44,202.55-58.49,22.25-95.88,54.41-133.29,97.63-110.51,127.66-181.25,272.2-227.2,429.83-23.7,81.31-56.08,160.39-84.55,240.49H3640.14C3639.55,3019.61,3639.86,3014.9,3638.25,3010.87ZM1002.87,1016.67c-2.42,3.72-4.75,7.28-7,10.8l-1.82,2.8c-.08.12-.16.26-.25.39q-1.69,2.6-3.36,5.17c-2.68,4.11-5.34,8.22-8.12,12.48l-2.27,3.5c-.88,1.36-1.78,2.73-2.68,4.13-18.56-12.32-52.14-22-40-46.45.46-.93.95-1.82,1.43-2.65.11-.19.23-.37.34-.57.37-.62.76-1.22,1.14-1.77.25-.38.5-.73.77-1.07.13-.18.28-.36.42-.54a5.37,5.37,0,0,1,.35-.45c.27-.32.53-.64.8-.93s.53-.57.8-.85l.6-.56c.25-.24.51-.46.76-.67l.75-.63.7-.51c.23-.17.45-.32.69-.47a16,16,0,0,1,2.74-1.44l1-.39.17-.06.42-.14c.12,0,.23-.07.35-.09a3.81,3.81,0,0,1,.45-.13l.19-.05c.34-.09.69-.16,1-.23s.83-.14,1.26-.19c.58-.07,1.17-.11,1.76-.14a17.42,17.42,0,0,1,1.77,0h.12a5.52,5.52,0,0,1,.9.06h0s0,0,.06,0l.27,0c.55.05,1.06.11,1.61.18l1,.16c.67.12,1.33.25,2,.4,1,.21,2,.49,3,.79.27.07.52.15.79.24,1.11.33,2.23.7,3.37,1.12l1,.38c.35.12.71.26,1.06.4.77.29,1.56.59,2.32.91l1.33.53c1.93.78,3.86,1.6,5.82,2.42l2.41,1c.6.23,1.21.48,1.81.73l1.78.7,1.89.72,1.83.66c.43.16.86.31,1.31.45l1.21.4,1.21.37c.67.21,1.35.41,2,.59l1.76.44c.78.2,1.56.36,2.33.51s1.32.23,2,.32c1,.16,2,.27,3,.34h0C1005.8,1012.16,1004.32,1014.43,1002.87,1016.67ZM1490,1373.16c-3.36,12.7-18.77,22.58-36.36,42.19-5.22-5.69-10.46-10.86-15.51-15.68l-3-2.89c-15.26-14.45-28.33-26-32.65-40-1.44-4.63-1.7-8.44-1.07-11.64.05-.25.09-.48.15-.72a4,4,0,0,0,.12-.43,14.74,14.74,0,0,1,.78-2.11,5.12,5.12,0,0,1,.31-.62,10.72,10.72,0,0,1,.54-.93,12,12,0,0,1,1.48-1.94c.17-.2.35-.39.54-.59l.37-.34a18.91,18.91,0,0,1,3.58-2.63l.81-.44.85-.42c.28-.14.57-.28.87-.4a23.33,23.33,0,0,1,2.17-.86c.43-.15.87-.31,1.33-.45s.91-.27,1.36-.41l1.2-.32c.27-.07.55-.14.81-.19l.82-.2c.83-.18,1.67-.35,2.51-.5s1.7-.29,2.57-.42l1.73-.23,1.75-.2c.28,0,.58-.06.87-.09.58-.07,1.15-.11,1.75-.17l2.6-.21,1.73-.12,1.85-.11,1.11-.06c1.53-.08,3-.17,4.46-.23C1467.65,1327.57,1495.45,1352.4,1490,1373.16Zm1003.1,2.08c8.44,9.44,14.9,16.66,23,25.69,3.54-5.47,6.46-10,9.39-14.6l10.08,2.85c-1.89,6.88-2.73,14.64-4.22,21.86-.2.9-.39,1.79-.6,2.67s-.44,1.75-.68,2.61c-.17.64-.37,1.28-.57,1.91-.11.3-.21.62-.31.93s-.3.84-.46,1.26-.33.83-.5,1.23-.43,1-.67,1.49-.41.83-.64,1.25c-.14.26-.29.54-.45.8s-.31.53-.48.79a13.75,13.75,0,0,1-1,1.5c-.18.25-.37.49-.56.72a11.49,11.49,0,0,1-1,1.13,2.44,2.44,0,0,1-.22.23c-.18.18-.36.37-.53.56-.37.37-.76.76-1.16,1.14s-.78.76-1.19,1.15-1.08,1-1.63,1.47a8,8,0,0,1-.62.54c-.3.27-.61.54-.92.79-.58.5-1.17,1-1.76,1.46l-.66.53c-.51.4-1,.79-1.51,1.16s-1.07.81-1.61,1.2l-1.1.77c-.53.38-1.08.75-1.61,1.1s-1,.68-1.55,1-1,.67-1.57,1-1.05.65-1.58,1l-1.61.91c-.34.2-.68.38-1,.56s-.68.37-1,.54c-1.49.78-3,1.5-4.48,2.14-.52.23-1,.45-1.54.65l-.19.08c-.93.38-1.86.72-2.79,1-.48.17-.93.32-1.39.46a11.48,11.48,0,0,1-1.1.33c-.34.12-.68.21-1,.3-1,.29-2.06.52-3.08.72a8.28,8.28,0,0,1-.84.16,1.7,1.7,0,0,1-.31.06l-.33.06c-.9.15-1.79.26-2.66.33l-.84.07h-.27l-.59,0c-.6,0-1.21,0-1.8,0s-1.21,0-1.81-.09c-.35,0-.72,0-1.06-.08-.78-.07-1.55-.17-2.31-.29-.29,0-.57-.1-.85-.15-.45-.09-.88-.17-1.31-.28s-.65-.15-1-.24a19.58,19.58,0,0,1-2.13-.65l-1.19-.44c-.39-.16-.77-.32-1.14-.49a23.77,23.77,0,0,1-4-2.3,19,19,0,0,1-1.7-1.38c-8-7.16-9.24-19.43-1.32-32.21C2466.12,1400.45,2479.86,1389.44,2493.08,1375.24ZM1670.85,140l33.88,40.39c24.16-6.36,44.16-2.78,50.36,29.56,2.66,14,16.07,26.12,23.23,37-22.94,11.92-44.17,23-71.63,37.21-.53-67.23-61.4-81.11-92-121.9Zm674,1635.59-.31,2.37c-.1.79-.22,1.57-.34,2.36-.31,2.1-.66,4.18-1,6.26h0q-.6,3.12-1.29,6.22c-.07.28-.13.56-.19.85s-.12.55-.2.83c-.14.56-.29,1.12-.43,1.69-.23.84-.46,1.7-.71,2.54s-.52,1.71-.8,2.56c-.37,1.13-.77,2.27-1.18,3.41-.21.6-.43,1.19-.67,1.79-.34.9-.7,1.79-1.06,2.68q-1.14,2.74-2.43,5.5c-.43.91-.87,1.81-1.33,2.73-.74,1.49-1.51,3-2.32,4.43-.3.55-.61,1.12-.93,1.68s-.77,1.36-1.17,2-.67,1.13-1,1.68-.66,1.11-1,1.67c-1.89,3-3.92,6-6,9-.42.57-.83,1.14-1.28,1.7s-1,1.34-1.53,2-1.07,1.39-1.63,2.08c-.38.47-.77.95-1.17,1.42s-.94,1.15-1.45,1.72c-.07.1-.16.19-.23.29-.4.47-.8.93-1.2,1.37-1.38,1.57-2.8,3.11-4.23,4.61-2.16,2.24-4.36,4.39-6.64,6.44-.75.68-1.51,1.36-2.28,2s-1.52,1.32-2.3,1.94-1.56,1.25-2.34,1.86c-2.35,1.82-4.73,3.53-7.14,5.08-113.39,73.27-237.09,130.73-377.65,127.65-104.4-2.29-208.91-20.43-303-70.27-31.82-16.85-51.45-38.24-42-75.39,2-8.08,1.61-19.34-3-25.87-38.77-55.38-19.2-116.46-18.36-175,.21-14.35,20.12-30.78,35-41.15,4.16-2.89,26.29,10,34,19.87,27.58,35.12,50.2,73.8,79.11,107.83,27.54,32.39,59.14,62.19,92.14,89.78,9.38,7.84,29.87,4,45,5.46-2.52-18.44-8.37-34.3-4.32-37,10.54-7,25.4-11,38.58-11.07q12.24-.06,24.56.23c2.51.07,5,.14,7.54.24s5,.19,7.54.32l2.59.12,6.19.36c1.48.09,2.94.18,4.41.3l1.34.09,3.95.31c1.33.1,2.68.21,4,.33l1.77.17,2.68.25q3,.28,5.93.62c1.12.11,2.23.25,3.34.39,1.4.15,2.79.32,4.2.51l2.57.34c1.38.18,2.75.37,4.13.57q6.82,1,13.64,2l13.66,2q9.1,1.37,18.19,2.8,8.44,1.33,16.89,2.75,2.94.48,5.9,1,9.36,1.58,18.67,3.32c1.76.31,3.52.65,5.29,1,2.83.54,5.67,1.08,8.49,1.64s5.65,1.12,8.47,1.69,5.76,1.2,8.62,1.82q13.44,2.88,26.78,6.16c24.74,6.12,44.92,8.72,66.57-6.19,52.58-36.22,102-74.82,132.49-130.81.85-1.54,1.73-3.06,2.66-4.58.46-.76.94-1.52,1.44-2.29.35-.57.74-1.13,1.12-1.72,3.45-5.16,7.44-10.5,12.13-16.75l2.13-2.84c1.09-1.46,2.21-3,3.37-4.53,2.3-3.12,4.76-6.48,7.38-10.14,0,0,0,0,0,0V1692c.65-.91,1.29-1.78,1.89-2.63,1.38-1.91,2.66-3.7,3.88-5.37.34-.46.66-.91,1-1.36,1.63-2.25,3.09-4.29,4.47-6.19.41-.58.83-1.14,1.21-1.69s.95-1.32,1.41-2,.82-1.15,1.24-1.7c2.14-3,4.08-5.67,6-8.4C2344.24,1701.17,2349.38,1739.44,2344.85,1775.61Zm61.21-287.37c-1,2.17-2,4.33-3,6.5q-2.31,4.88-4.66,9.7c-1.76,3.62-3.55,7.25-5.35,10.85-5.68,11.43-11.46,22.82-16.87,34.29-9.36,19.83-36.18,37.4-97.4,66.35-.6-2.07-1.21-4.11-1.82-6.18-.2-.7-.42-1.43-.63-2.13l-3.09-10.55c-.53-1.78-1.07-3.61-1.63-5.51-.18-.61-.37-1.22-.55-1.85h0c-.56.48-1.07.93-1.58,1.35l-1.42,1.19-1.89,1.55a55.49,55.49,0,0,0-4.3,3.85,183.79,183.79,0,0,1-32.5,26.9c-1.41.9-2.81,1.77-4.26,2.65s-2.88,1.72-4.36,2.56-3,1.67-4.53,2.49q-3.43,1.83-7.05,3.58c-1.61.78-3.25,1.54-4.92,2.3-3.34,1.52-6.79,3-10.38,4.43s-7.08,2.71-10.62,3.87c-2.66.88-5.31,1.68-8,2.42s-5.31,1.41-7.95,2q-2.67.63-5.31,1.17c-18.59,3.8-37.16,5-55.7,5.43l-5.29.11-2.65,0-5.29.07-7.93.1c-2.64,0-5.28,0-7.92.1-1.76,0-3.52,0-5.28.08l-5.27.11c-.88,0-1.76,0-2.64.07-1.75,0-3.51.1-5.27.17l-5.26.22c-9.66.46-19.28,1.23-28.88,2.61-25,3.56-52.06-5.17-78.13-8.61a17.45,17.45,0,0,1-4-1.15c-.53-.21-1.07-.44-1.6-.67-1.33-.55-2.65-1.13-3.93-1.52a10,10,0,0,0-1.52-.39,8,8,0,0,0-2.39-.08q-4.41.57-8.65.84c-65.05,4.31-101.22-42.09-142.26-78.11-7.38-6.47-11.46-16.25-15.77-27.34-.63-1.66-1.28-3.36-1.95-5.07-.87-2.28-1.79-4.6-2.78-7-.49-1.18-1-2.36-1.51-3.56s-1.06-2.37-1.61-3.56c-.28-.6-.56-1.2-.86-1.79l-1.78-.64c-.68-.24-1.44-.5-2.27-.81l-1.48-.52h0c-1.3-.48-2.74-1-4.29-1.53-.78-.28-1.59-.55-2.42-.86l-2.58-.92h0c-1.33-.47-2.72-1-4.15-1.48-.49-.17-1-.35-1.47-.51l-10-3.54c-1.14,21.52-2.32,44.08-3.74,71-44.2-21.09-70.22-49.37-77.46-92.17l-8.49,7.18-1-.88c-.74-.64-1.49-1.27-2.24-1.9-8.25-6.88-17.2-13.27-24.59-20.72-.49-.49-1-1-1.44-1.48-.71-.75-1.39-1.5-2-2.28-.5-.56-1-1.14-1.45-1.72l-.5-.63c-.14-.16-.27-.33-.4-.5s-.25-.31-.37-.48c-1.24-1.6-2.47-3.19-3.65-4.79-.3-.39-.58-.76-.86-1.15q-2.13-2.91-4.16-5.84-1.45-2.15-2.88-4.29c-.53-.82-1.06-1.64-1.58-2.46-1.39-2.19-2.74-4.39-4-6.59-.43-.74-.86-1.47-1.28-2.21-.84-1.47-1.65-2.94-2.45-4.41a209.49,209.49,0,0,1-10.45-22.36c-.59-1.5-1.17-3-1.73-4.51-.85-2.26-1.64-4.54-2.4-6.82-.52-1.51-1-3-1.46-4.55-.71-2.27-1.38-4.57-2-6.86-.38-1.42-.77-2.87-1.12-4.3-.73-2.87-1.39-5.76-2-8.64q-2.28-10.86-3.53-21.84c-.19-1.56-.36-3.12-.51-4.69-2.05-21-1.61-42.41.43-64.08,1.88-20,5.1-40.16,9-60.51,5.37-28.37-8.23-60.26-1.37-88,9.12-36.74,19.71-68.06,44-89.13,1.24-1.08,2.53-2.14,3.85-3.17s2.67-2,4.06-3c2.09-1.46,4.28-2.85,6.55-4.18.76-.45,1.53-.88,2.29-1.31q2.36-1.29,4.81-2.47c1.64-.8,3.34-1.57,5.07-2.3s3.52-1.44,5.34-2.11,3.71-1.32,5.63-1.92,3.91-1.19,5.92-1.73c1-.28,2-.54,3.07-.79,2.09-.52,4.22-1,6.39-1.43,4.36-.89,8.93-1.65,13.74-2.26,43.16-5.53,85.71-15.3,133.91-24.14l-33.84-12.37c-2.75-1-5.44-2-8.11-2.95-.54-.21-1.09-.4-1.64-.6l-5-1.83-2.9-1.07c.8-3.14,1.61-6.26,2.41-9.39.65-2.53,1.28-5.06,1.93-7.58h0l178.94,12.64h0q.93,7.82,1.9,15.63h0l-51.41,9.62-2,7,77.54,13.72c-7.13,15.49-14.44,31.37-21.87,47.47h0a67.65,67.65,0,0,0,7.07.79c16.84,1.05,31.6-4.24,43.28-14.94.75-.71,1.51-1.43,2.25-2.18,12.53-12.7,21.15-32,24.42-56.77l-7.35-.79L2001.8,994l-6.12-.66,17.23-33.15L2023.36,940c-3.27-3-6.5-6-9.77-9l-31.84,15.07c-1.36.65-2.73,1.31-4.14,2-3.5,1.67-7.17,3.4-11,5.22-2.2-3.73-4.4-7.52-6.63-11.28-.74-1.25-1.48-2.52-2.22-3.76s-1.32-2.23-2-3.34c-1.33-2.22-2.69-4.41-4.06-6.59-2.08-3.26-4.19-6.48-6.38-9.59-.72-1-1.46-2.07-2.22-3.08h0c-2.62-3.56-5.34-7-8.24-10.2l-1.25-1.38q-1.58-1.71-3.24-3.33c-.65-.64-1.3-1.28-2-1.9-.89-.83-1.79-1.64-2.72-2.43-.68-.58-1.38-1.15-2.07-1.71-.52-.41-1-.83-1.57-1.23a70.61,70.61,0,0,0-20.38-10.91c-.62-.21-1.24-.4-1.86-.6a80.5,80.5,0,0,0-28.11-3.11c-1.79.1-3.6.25-5.45.45-.93.09-1.88.21-2.83.33-2.85.38-5.78.88-8.81,1.49l-9.42,1.91-4.7,1c-4.7,1-9.37,2-14,3-3.1.71-6.19,1.43-9.27,2.18-4.61,1.13-9.19,2.32-13.75,3.6-3,.86-6.06,1.74-9.06,2.67-1.69.53-3.37,1.07-5.06,1.63l-4.35,1.47q-5.34,1.88-10.6,4c-1.45.58-2.91,1.18-4.36,1.8q-3.26,1.39-6.47,2.89c-2.15,1-4.29,2-6.41,3.11q-4.23,2.16-8.41,4.55c-1.38.81-2.77,1.62-4.14,2.46s-2.74,1.69-4.1,2.58-2.72,1.79-4.06,2.71a173.44,173.44,0,0,0-21.53,17.51c-2.28-5.47-3-10.41-5.93-13.73-22.77-26.14-20.79-44.51,8.65-66.55,20.8-15.55,42.24-30.38,65.29-46.88-36.41-24.59-47.75,24.68-83.54,20.82l40.37-46.34-7.29-9.13c-4.57,3-9.54,5.83-14.55,8.59l-3.34,1.84c-2.23,1.24-4.45,2.46-6.62,3.72s-4.32,2.54-6.39,3.88c-6.73,4.3-12.7,9.07-16.83,15-26.24,37.53-46,79.06-71.64,117a64,64,0,0,1-9.16,10.56c-.86.82-1.75,1.62-2.66,2.41-5.45,4.76-11.57,9.13-17.69,13.49-3.06,2.18-6.12,4.37-9.09,6.6q-2.6,2-5.07,4a3.37,3.37,0,0,1-.37.29l-.37.29-4.76-2.43c-1.59-.8-3.17-1.62-4.75-2.44,15.87-32.46,30-65.8,48.2-97.11,12.23-21.11,31.16-38.71,45-59.14a41.52,41.52,0,0,0,2.28-3.8c.56-1,1.09-2.15,1.58-3.25s1-2.23,1.39-3.38a180.19,180.19,0,0,0,5.26-17.81c.33-1.19.65-2.39,1-3.57.21-.73.41-1.45.64-2.18,8.87-29.77,13.57-61.3,27.32-88.88,9.08-18.21,29.28-33,47.46-45.45a1092.61,1092.61,0,0,1,98.77-59.87c12.87-7,29.41-9.43,44.61-10.84,41-3.81,81.94-7.89,123-11q13.86-1,27.7-2l9.25-.57q18.47-1.1,37-1.82c11.55-.44,23.23,1.39,34.92,4l4,.91q2.84.69,5.69,1.42l5.67,1.47,10,2.64c2.84.75,5.68,1.48,8.5,2.18q3.38.82,6.73,1.58c16.9,3.77,33.74,7.83,50.53,12q10.09,2.52,20.16,5.09l10,2.58c.62.17,1.27.32,1.91.48l2,.44c2,.44,4,.86,6.08,1.3,1.37.3,2.73.6,4.06.93a60.29,60.29,0,0,1,5.83,1.7c.92.32,1.8.66,2.66,1,.3.12.58.26.84.39a23.09,23.09,0,0,1,2.09,1.12A17,17,0,0,1,2263,593l.58.47.53.49c.19.19.39.39.58.6,29.64,32.21,58.42,65.14,87.18,98.08l14.37,16.47,14.41,16.45c.37.43.77.86,1.16,1.29.57.67,1.15,1.35,1.65,2.05a8.21,8.21,0,0,1,.83,1.42,5.45,5.45,0,0,1,.3.76c23.18,74.07,46.45,148.13,68.93,222.4,1.91,6.3-1.63,14.07-2.66,21.16l-7.16,1.49q-6.58-16.3-13.19-32.59l-39.39-97.4q-3.37,3.86-6.64,7.56l-3.21,3.67-4.62,5.26-4.34,4.94c-.62.69-1.22,1.39-1.81,2.07l-2.58,2.92c-2.48,2.84-4.68,5.33-6.5,7.42,2.72,3.1,5.62,6.14,8.57,9.16,2,2,4,4,6,6,11,10.92,21.91,21.8,27.68,34.71,15.17,34,23.83,70.55,38.07,114.89-1.86-.92-3.76-1.79-5.63-2.61h0c-3.15-1.38-6.3-2.64-9.4-3.83-1.25-.47-2.47-1-3.68-1.4l-3.6-1.36c-11.83-4.47-21.78-8.54-25.25-15.48-2.52-5-5.1-9.89-7.79-14.67-1.08-1.91-2.16-3.8-3.27-5.66q-3.32-5.6-6.8-11c-.58-.89-1.17-1.78-1.76-2.65q-2.68-4-5.46-7.75c-1.24-1.69-2.5-3.34-3.77-5q-2.88-3.69-5.87-7.2c-1.34-1.56-2.69-3.1-4.07-4.6-2.75-3-5.58-5.92-8.51-8.7-.36-.35-.73-.69-1.11-1s-.74-.69-1.11-1a149.34,149.34,0,0,0-37.66-25.44c-1.88-.87-3.77-1.72-5.69-2.54l-2.94-1.18q-4.43-1.75-9.05-3.23c-16.45-5.28-34.87-8.14-55.7-8.14h-1.78l6.44-3.59c2.12-1.2,4.24-2.37,6.34-3.55l12.49-7,14.12-7.91c2.34-1.31,4.68-2.63,7-3.93,22.25-12.48,44.67-25,70.1-39.28-39,0-68.92,0-98.85,0-5.91,0-11.9-.95-17.74-.39-5.29.48-10.57,1.07-15.85,1.68-3.52.41-7,.84-10.54,1.27-5.28.66-10.55,1.32-15.82,1.95l1.87,7.74c.21.88.43,1.75.64,2.64.38,1.55.75,3.12,1.15,4.73l1.2,5c.12.47.24.95.36,1.45.23,1,.48,2,.72,3q.75,3,1.54,6.31v0q.39,1.62.81,3.33h0c.42,1.71.84,3.46,1.29,5.28h0c.44,1.82.9,3.69,1.37,5.63.33,1.31.65,2.63,1,4h0l-93.21,55c7.78,20.26,15.08,43.27,25.76,64.8a7.31,7.31,0,0,0,.73,1.19,10.72,10.72,0,0,0,.91,1.13c.18.16.34.34.53.52,4.93,4.65,14.89,7.11,21.89,10.88.25-7.84.56-15.68.75-23.52.09-4.14,0-8.29,0-18.47l44.49,17.91,4.18,1.68c.71.3,1.44.59,2.17.88l6.84,2.75h0q-.47-.95-.9-1.86c-9.23-19.13-14.65-30.43-22.58-46.89,10.13-2.9,24.59-11.81,33.55-8.31,9.64,3.76,14.14,19.17,23.82,34,56.51,7.61,103,38.48,150.08,71.55q9.23,6.48,18.48,13c2,1.46,4.12,2.9,6.19,4.35,4.16,2.88,8.31,5.76,12.5,8.62q9.42,6.43,19,12.63v0c1.64-7.21,3.46-15.18,6.85-30,3.43,18.45,4.91,30.19,7.85,41.59q1,3.76,1.86,7.52c.58,2.51,1.14,5,1.66,7.49q1.17,5.61,2.08,11.17a193.82,193.82,0,0,1,2.62,42c0,1-.12,2-.19,3q-.56,7.46-1.85,14.81h0q-.65,3.68-1.51,7.33c-.57,2.43-1.21,4.86-1.92,7.26-.28,1-.58,1.93-.89,2.89-.62,1.93-1.27,3.84-2,5.76-1.06,2.87-2.23,5.71-3.52,8.56-.86,1.89-1.77,3.77-2.72,5.66s-2,3.75-3,5.61c-1.39,2.46-2.88,4.88-4.47,7.31-1.06,1.61-2.15,3.22-3.29,4.83-1.7,2.4-3.52,4.81-5.43,7.18-.74.91-1.48,1.82-2.23,2.72-.37.46-.76.94-1.11,1.46s-.71,1.06-1.06,1.63-.54.92-.8,1.41c-.14.23-.27.48-.39.73-.46.9-.87,1.86-1.25,2.82l-.23.54c-.38,1-.72,2-1,3a27.56,27.56,0,0,0-1.19,8.5c0,.47.06.93.11,1.36a.74.74,0,0,1,0,.19,9.81,9.81,0,0,0,.24,1.13,8.39,8.39,0,0,0,.72,2c.54,1,1,2,1.53,3.08s1,2,1.4,3v0c.46,1,.89,2,1.29,3,.21.51.41,1,.6,1.54.3.76.58,1.52.85,2.27s.54,1.52.78,2.27c.18.5.34,1,.5,1.51h0c7.6,24,5.18,46.93-.87,69.44-1.52,5.72-3.3,11.39-5.2,17.06h0c-.76,2.26-1.54,4.51-2.34,6.77v0c-.8,2.24-1.6,4.51-2.42,6.75-.42,1.14-.83,2.28-1.23,3.41-1.23,3.37-2.49,6.75-3.71,10.11s-2.46,6.75-3.62,10.12c-1,2.8-1.94,5.61-2.86,8.43s-1.8,5.63-2.63,8.43a308,308,0,0,1-14.19,37.71C2407.66,1484.72,2406.86,1486.48,2406.06,1488.24Zm511.05-431.49c-.47.49-.93,1-1.41,1.47l-2.81,3-2.86,3-7.63,8-2.47,2.61c-1.41,1.49-2.86,3-4.38,4.62-1.23,1.28-2.48,2.61-3.78,4l7.61,9.16,18.42,22.17v0h0c.18-.28.37-.54.56-.82l.92-1.3c3.07-4.24,6.58-8.42,9.81-12.63.46-.59.91-1.18,1.34-1.77.62-.82,1.21-1.63,1.78-2.47.43-.62.86-1.23,1.28-1.86a42.36,42.36,0,0,0,4.85-9.55c.11-.32.22-.65.31-1,.17-.61.34-1.22.47-1.83.09-.38.16-.77.22-1.14C2940.47,1073.82,2925.06,1064.73,2917.11,1056.75Zm-43.09,492-1.45,2.17-2.27,3.4-2.84,4.24c-2.94,4.39-6,8.94-9.08,13.54-.59.87-1.18,1.73-1.76,2.6h0l4.37-1.86,6.1-2.6c1.3-.56,2.56-1.09,3.79-1.6l3.59-1.49,1.7-.69,3.28-1.32,3.83-1.47c.61-.24,1.22-.46,1.81-.67s1.17-.43,1.74-.62l2.66-.9,2.5-.77.93-.26.92-.25c.61-.17,1.2-.3,1.77-.44s.89-.21,1.32-.29.75-.16,1.12-.21l1.08-.18c.43-.07.86-.13,1.28-.17l.88-.08.86-.06c.43,0,.86,0,1.27,0s.84,0,1.26,0l1.21.11.77.1c.62.1,1.24.24,1.83.39l.42.12a9.27,9.27,0,0,1,1.19.41l.85.34.86.41.34.18.23.12.3.17c.28.16.56.33.83.51s.54.36.82.56.55.4.82.61a27.15,27.15,0,0,1,2.42,2.13c.58.57,1.16,1.17,1.73,1.81.3.33.58.66.87,1,.58.68,1.17,1.4,1.78,2.16.81,1.06,1.65,2.18,2.51,3.39l.73,1,.84,1.22,1.74,2.58c.77,1.13,1.54,2.31,2.34,3.53l2.5,3.84Z" transform="translate(-89.85)"/><path class="cls-2" d="M1568.61,966l-4.76-2.43,4.76,2.45.37-.31Zm35.62,502.86c-.14-.16-.27-.33-.4-.5.12.17.25.34.38.5s.34.42.52.63ZM1758.5,980.22h0c.8-3.14,1.61-6.26,2.41-9.39C1760.13,974,1759.32,977.1,1758.5,980.22Zm42.73,323c-.06-.19-.11-.4-.16-.61a3.88,3.88,0,0,0,.15.61c.15.47.31,1,.5,1.4C1801.54,1304.2,1801.38,1303.72,1801.23,1303.25Zm75.44,52.24a9.75,9.75,0,0,1,1.33-1.66A8.48,8.48,0,0,0,1876.67,1355.49Zm69.3-286.18h0a67.65,67.65,0,0,0,7.07.79C1950.73,1070,1948.37,1069.7,1946,1069.31Zm16,355.29q-.17-1-.3-1.95c.07.64.18,1.29.28,1.95a1,1,0,0,1,0,.37A.84.84,0,0,0,1962,1424.6ZM1960,942c2.21,3.77,4.42,7.56,6.62,11.29a0,0,0,0,0,0,0C1964.38,949.58,1962.18,945.79,1960,942Zm35.73,51.27h0l6.12.65Zm126.7,344.94c2.09.2,4.17.42,6.23.7C2126.55,1338.66,2124.47,1338.42,2122.38,1338.24Zm3-17.25-4.42-.11c1.48,0,2.94.1,4.42.12l1.61,0C2126.51,1321,2126,1321,2125.43,1321Zm49.47-171.65q1.74,1.86,3.45,4Q2176.65,1151.21,2174.9,1149.34Zm3.45,4c.56.69,1.12,1.4,1.68,2.12h0C2179.49,1154.69,2178.92,1154,2178.35,1153.29Zm15.51,489.26q-5.31,2.13-10.62,3.87,5.31-1.73,10.62-3.86c3.59-1.44,7-2.91,10.38-4.44C2200.9,1639.64,2197.45,1641.11,2193.86,1642.55Zm21.69-631.07.89,1.86h0Q2216,1012.4,2215.55,1011.48Zm16.23-101.17s0,0,0,0l1.78,0Zm34.38,683.48c.59-.47,1.21-1,1.89-1.55Zm3.31-2.74c.51-.42,1-.87,1.58-1.34h0C2270.49,1590.18,2270,1590.63,2269.47,1591.05ZM2436,1042.15c1.89.83,3.77,1.71,5.63,2.62h0C2439.81,1043.84,2437.91,1043,2436,1042.15Zm-5.58-98.57,13.18,32.59h0Q2437.07,959.87,2430.46,943.58Zm16.06,319.55c-.37.46-.76.94-1.11,1.46.37-.52.74-1,1.12-1.46.76-.9,1.5-1.81,2.22-2.72C2448,1261.32,2447.27,1262.23,2446.52,1263.13Zm7.66-9.9q1.72-2.42,3.29-4.83C2456.41,1250,2455.32,1251.62,2454.18,1253.23Zm-16.59-165.43q9.42,6.43,19,12.63v0Q2447,1094.23,2437.59,1087.8ZM2465,1235.48c1-1.89,1.86-3.77,2.72-5.66C2466.83,1231.71,2465.92,1233.59,2465,1235.48Zm6.24-14.22c.71-1.92,1.38-3.83,2-5.76C2472.57,1217.43,2471.92,1219.34,2471.21,1221.26Zm2.87-8.65c.72-2.4,1.36-4.83,1.92-7.26C2475.43,1207.78,2474.79,1210.21,2474.08,1212.61Zm3.43-14.6a144.35,144.35,0,0,0,1.85-14.81Q2478.8,1190.66,2477.51,1198Z" transform="translate(-89.85)"/><path class="cls-2" d="M2312.37,1651.34c1.09-1.46,2.2-3,3.37-4.53C2314.58,1648.38,2313.46,1649.88,2312.37,1651.34Z" transform="translate(-89.85)"/><path class="cls-2" d="M2341.86,1792.83q.69-3.11,1.29-6.22-.57,3.12-1.27,6.22c-.06.28-.13.57-.21.85C2341.73,1793.39,2341.79,1793.11,2341.86,1792.83Z" transform="translate(-89.85)"/><path class="cls-2" d="M2343.15,1786.6c.39-2.08.74-4.16,1-6.26C2343.89,1782.44,2343.55,1784.52,2343.15,1786.6Z" transform="translate(-89.85)"/><path class="cls-2" d="M2523.17,1429.56a2.44,2.44,0,0,0,.22-.23,1.15,1.15,0,0,1-.21.23c-.17.18-.35.38-.54.56C2522.81,1429.93,2523,1429.74,2523.17,1429.56Z" transform="translate(-89.85)"/><path class="cls-2" d="M2874,1548.7l-1.45,2.17-2.27,3.4-2.84,4.24c-2.94,4.39-6,8.94-9.08,13.54l-1.75,2.6h0v0c1.5-.63,2.95-1.24,4.37-1.86l6.1-2.6,3.79-1.6,3.59-1.49,1.7-.69,3.28-1.32,3.83-1.47c.62-.24,1.22-.46,1.81-.67l1.74-.62,2.66-.9c.86-.28,1.69-.53,2.5-.77l.93-.26c.31-.1.62-.18.92-.25.61-.17,1.2-.3,1.77-.44s.89-.21,1.32-.29.75-.16,1.12-.21.73-.14,1.08-.18.86-.13,1.28-.17l.88-.08c.3,0,.58-.06.86-.06.43,0,.86,0,1.27,0s.84,0,1.26,0,.81.06,1.21.11.52.06.77.1c.62.1,1.24.24,1.83.39l.42.12a9.27,9.27,0,0,1,1.19.41,7.92,7.92,0,0,1,.85.34c.29.13.57.25.86.41l.34.18a1.27,1.27,0,0,1,.23.12l.3.17c.28.15.56.33.83.51s.54.36.82.56.55.38.82.61a27.15,27.15,0,0,1,2.42,2.13c.58.56,1.16,1.17,1.73,1.81.3.33.58.66.87,1,.6.68,1.19,1.4,1.78,2.16.81,1.06,1.65,2.18,2.51,3.39.24.33.49.66.73,1l.84,1.22c.58.84,1.15,1.68,1.74,2.58.77,1.13,1.54,2.31,2.34,3.53s1.64,2.51,2.5,3.84Z" transform="translate(-89.85)"/><path class="cls-2" d="M949.63,996.38a17.48,17.48,0,0,1,4.89-1.28A18.68,18.68,0,0,0,949.63,996.38Z" transform="translate(-89.85)"/><path class="cls-2" d="M2919.3,1112.7l-19.92-20.07c-2.35-2.83-4.86-5.87-7.6-9.16l3.77-4c1.52-1.59,3-3.13,4.38-4.62l2.47-2.61Z" transform="translate(-89.85)"/><path class="cls-2" d="M2910,1064.22l2.86-3,2.81-3c.48-.49.94-1,1.41-1.47,7.95,8,23.36,17.07,22.25,23.72-.06.37-.13.76-.22,1.14-.13.61-.28,1.22-.47,1.83-.09.33-.2.66-.31,1a42.36,42.36,0,0,1-4.85,9.55c-.42.63-.83,1.25-1.28,1.86-.57.84-1.16,1.65-1.78,2.47-.43.59-.88,1.18-1.34,1.77-3.23,4.21-6.74,8.39-9.81,12.63Z" transform="translate(-89.85)"/><path class="cls-3" d="M2918.38,1114l.92-1.3-.92,1.3c-.19.28-.38.54-.56.82h0v0c.2-.26.37-.54.58-.8" transform="translate(-89.85)"/><path class="cls-1" d="M2267.05,1378.42l-6,5.66-.1.1-5.56,5.29a1.07,1.07,0,0,0-.19.18l-5.22,4.94-8,7.52-2.44,2.29c-.68.63-1.35,1.25-2,1.89l-2.71,2.51c-.77.71-1.52,1.4-2.26,2.1l-2.68,2.47c-1.21,1.12-2.41,2.2-3.57,3.29l-1.73,1.57-2.5,2.26c-3.73,3.36-7.17,6.41-10.38,9.17-.46.39-.92.78-1.36,1.17l-4,3.34c-.52.43-1,.85-1.53,1.25l-1.49,1.21c-7.44,6-13.44,10.07-18.78,12.81-.32.17-.63.33-.94.47s-.7.35-1,.5-.68.32-1,.46a39,39,0,0,1-11.24,3.15l-.65.07c-.21,0-.4,0-.59.05l-.44,0h-.25a5.69,5.69,0,0,1-.7,0c-5,.28-10.19-.33-16.43-1.26-.34-1.21-.66-2.42-1-3.61-.41-1.49-.81-3-1.22-4.44s-.8-2.94-1.22-4.4-.8-2.92-1.19-4.36c-1.2-4.36-2.4-8.69-3.61-13.07-.4-1.46-.8-2.93-1.21-4.4-.26-.92-.51-1.85-.77-2.78-1.79-6.51-3.64-13.21-5.61-20.36,7.32,0,20.19,1.13,32.68-.43a33.87,33.87,0,0,0,7.1-1.71c.41-.14.84-.29,1.25-.45s.62-.24.92-.38.72-.3,1.08-.47a26.72,26.72,0,0,0,2.82-1.46c.31-.16.61-.35.91-.54a2,2,0,0,0,.35-.24,7,7,0,0,0,.83-.55c.31-.21.6-.43.9-.67a8.12,8.12,0,0,0,.84-.69,10.2,10.2,0,0,0,.9-.82l.14-.14c.25-.25.47-.48.68-.73l.19-.21c.24-.28.46-.57.67-.86a4,4,0,0,0,.28-.5s0,0,0-.07a4.61,4.61,0,0,0,.34-1.35c.45-4.16-3-11.43-6.15-15.6-1.44-1.89-2.92-3.65-4.44-5.31-.75-.84-1.52-1.63-2.31-2.4-.57-.57-1.14-1.11-1.71-1.64-.31-.31-.64-.58-1-.88l-.92-.8c-.53-.46-1.08-.92-1.63-1.36s-1.19-1-1.8-1.42l-1.12-.82c-.77-.55-1.54-1.09-2.33-1.61-.36-.25-.73-.48-1.1-.7l-1.16-.73c-.77-.47-1.55-.91-2.33-1.34s-1.53-.82-2.3-1.21l-1.75-.86c-1.84-.86-3.69-1.64-5.58-2.35-.86-.33-1.73-.63-2.62-.94a1.11,1.11,0,0,1-.22-.07l-1.43-.46a95.33,95.33,0,0,0-11.43-2.81c-.42-.09-.84-.16-1.27-.23-.73-.13-1.45-.26-2.19-.37-1-.15-2-.31-3.06-.44-2.06-.28-4.14-.5-6.23-.7-1.21-.11-2.41-.21-3.63-.29s-2.19-.15-3.3-.21c-1.35-.08-2.69-.15-4-.19s-2.47-.1-3.71-.13l-2.51-.07-2,0c-1.9,0-3.79-.06-5.7-.06h-2.44c-1.62,0-3.25,0-4.89,0-36.05,0-72.32-4.68-108.1-2.26-34.38,2.32-68.4,10.55-102.2,17.76l-.24.07a1.06,1.06,0,0,0-.25.09h0a3.29,3.29,0,0,0-.42.21,2.62,2.62,0,0,0-.43.28,4.16,4.16,0,0,0-.53.43,9.75,9.75,0,0,0-1.33,1.66c-.22.34-.43.68-.62,1s-.28.52-.41.79-.21.42-.31.64c-1.82,3.81-3.38,8.93-5.4,12.79h0l25.69,1.87h0l16.71,1.22,49.89,3.67,14.83,1.1,2,.13,13.88,1,7.93.58-1.76.93-.33.17c-.69.36-1.4.72-2.1,1l-.22.11c-.59.29-1.17.59-1.76.86l-4,1.89-1.29.6c-2.91,1.36-5.76,2.69-8.47,4.11l-1.11.58c-.69.37-1.39.75-2,1.14s-1.53.88-2.27,1.36c-.38.23-.76.48-1.13.75a1.53,1.53,0,0,0-.3.19c-.4.26-.8.54-1.18.83l-.71.53c-.12.08-.22.17-.34.26l-.36.28c-.46.36-.9.72-1.33,1.11a.22.22,0,0,1-.07.06c-.4.36-.81.73-1.2,1.12-.19.18-.38.38-.56.58s-.21.21-.3.32a8.81,8.81,0,0,0-.6.67,7.45,7.45,0,0,0-.59.69c-.39.46-.74,1-1.1,1.45s-.61.89-.89,1.36-.44.77-.66,1.19-.34.65-.49,1c-.27.57-.5,1.15-.74,1.76a25.06,25.06,0,0,0-.87,2.93c-.13.54-.25,1.09-.34,1.66s-.19,1.15-.25,1.77-.11,1-.14,1.54c0,.15,0,.3,0,.45s0,.53,0,.8c0,.81,0,1.66,0,2.53,0,.59.06,1.2.12,1.81s.12,1.23.19,1.87.19,1.28.3,1.95a.84.84,0,0,1,0,.37,1.6,1.6,0,0,1-.26.5.88.88,0,0,1-.12.15,7.82,7.82,0,0,1-1.39,1.34l-.37.29-.89.64-.89.56q-.48.32-1,.63c-.29.18-.6.35-.91.53l-.3.16c-.58.32-1.18.63-1.8,1s-1,.47-1.44.69l-1.18.53c-.44.21-.9.4-1.36.58l-.7.28c-.22.08-.44.18-.68.26-.45.18-.93.35-1.39.5s-.91.32-1.37.46l-.95.28c-.63.18-1.25.33-1.86.47s-1.21.25-1.79.35-.86.11-1.26.13h-.08a8.38,8.38,0,0,1-1.1.06h-.49c-3.47-.16-6.86-.42-10.18-.81l-2.49-.32-2.44-.34-2.6-.43c-.69-.13-1.39-.25-2.08-.39l-.15,0c-1-.2-2.07-.42-3.11-.64h0l-1.28-.28c-.88-.2-1.75-.42-2.62-.63-1.54-.38-3.06-.8-4.57-1.24-.75-.21-1.51-.45-2.25-.67-1.49-.47-3-1-4.42-1.47-.74-.25-1.46-.52-2.19-.79l-2.16-.82-2.12-.85c-1.42-.58-2.81-1.19-4.2-1.82q-4.17-1.87-8.17-4c-1.06-.57-2.11-1.15-3.16-1.75-.72-.4-1.45-.82-2.17-1.25s-1.67-1-2.5-1.49-1.75-1.07-2.6-1.64c-1.1-.7-2.18-1.4-3.26-2.14s-2.19-1.5-3.26-2.26l-.61-.43c-1.11-.79-2.22-1.61-3.31-2.43s-2.21-1.68-3.3-2.53q-3.46-2.73-6.82-5.6c-1-.86-2-1.74-3-2.61-.67-.59-1.33-1.18-2-1.79-1-.93-2-1.89-3.07-2.85-.4-.36-.79-.72-1.17-1.1-.9-.86-1.81-1.72-2.69-2.59a1,1,0,0,1-.15-.14q-1.62-1.58-3.24-3.21l-.28-.27c-1.08-1.09-2.16-2.2-3.22-3.31-2.06-2.13-4.1-4.28-6.11-6.48-.86-.91-1.7-1.84-2.53-2.77q-4.14-4.56-8.18-9.21a2.26,2.26,0,0,1-.35-.52,3.6,3.6,0,0,1-.25-.6,4.56,4.56,0,0,1-.14-.64c-.23-1.66.32-3.93,1.32-6.55l.5-1.23c.18-.42.36-.86.57-1.31.11-.25.22-.5.34-.75.29-.64.6-1.29.93-1.94s.65-1.33,1-2c.14-.28.27-.54.42-.82.47-.93,1-1.86,1.45-2.82.35-.68.72-1.36,1.08-2,.9-1.71,1.78-3.43,2.61-5.1.5-1,1-2,1.42-3,.22-.49.45-1,.64-1.43.07-.16.15-.32.2-.47.14-.31.27-.62.39-.92h0a1.39,1.39,0,0,0-.28-.26,2.54,2.54,0,0,0-.29-.28c-.42-.36-.85-.74-1.32-1.13s-.86-.69-1.33-1-1.2-1-1.83-1.42l-1.79-1.36c-.79-.59-1.58-1.22-2.41-1.86-.27-.19-.52-.4-.79-.61-1-.75-1.93-1.54-2.91-2.36-.46-.37-.9-.76-1.34-1.15l-1.19-1c-1.08-1-2.14-2-3.13-3.08-.31-.33-.61-.67-.9-1s-.65-.75-1-1.12c-.58-.68-1.11-1.39-1.61-2.11-.21-.28-.4-.55-.58-.84a23,23,0,0,1-1.74-3.09c-.11-.22-.22-.46-.33-.7s-.19-.45-.28-.68c-.19-.45-.35-.93-.5-1.4a3.88,3.88,0,0,1-.15-.61,4.74,4.74,0,0,1-.13-.84,8.44,8.44,0,0,1,0-1.75c0-.2,0-.41,0-.61v0a.13.13,0,0,1,0-.05c0-.2,0-.39.08-.58a10.85,10.85,0,0,1,.26-1.36c0-.24.11-.48.18-.71s.13-.47.21-.71.15-.47.23-.72c.17-.47.34-1,.54-1.42a.41.41,0,0,1,.07-.18c.18-.44.37-.89.58-1.33a.7.7,0,0,1,.09-.17c.23-.5.48-1,.75-1.51.12-.22.24-.44.35-.67a50.59,50.59,0,0,1,3.45-5.37c.32-.44.66-.87,1-1.3q.15-.21.33-.42c.39-.51.81-1,1.22-1.5s.71-.82,1.08-1.22.64-.71,1-1.05c.7-.74,1.41-1.45,2.12-2.11s1.14-1,1.71-1.54c.42-.35.82-.68,1.23-1s.64-.48.95-.72.66-.49,1-.71.77-.51,1.14-.73c8-4.86,24.22-1.85,34.48,2.49a3.84,3.84,0,0,1,.4.21l0,0a3,3,0,0,1,.37.28l.27.25a5.28,5.28,0,0,1,.42.5,6.51,6.51,0,0,1,.39.58c.09.15.19.32.28.49s.18.36.25.54.16.37.25.58a18.3,18.3,0,0,1,.83,2.67c.15.61.27,1.24.38,1.91.08.4.14.82.2,1.24.09.62.16,1.26.22,1.9s.1,1.3.13,2q0,.33,0,.66,0,.48,0,.93c0,.82,0,1.64,0,2.46,0,.31,0,.61,0,.92,0,.9-.11,1.8-.2,2.66,0,.21,0,.42-.07.63a26.48,26.48,0,0,1-.49,2.94c-5.39,24.31,4.16,36.83,28.41,28,1.49-.55,3-1.07,4.49-1.59l3.08-1,.34-.11c1.25-.41,2.51-.81,3.78-1.18l3.15-.93c.92-.27,1.83-.53,2.74-.77l.45-.12c.92-.27,1.84-.5,2.77-.74,2-.53,4-1,5.94-1.47,1-.23,2-.46,3-.67s2-.43,3-.63l3-.6c1.91-.38,3.81-.72,5.72-1q6.3-1.07,12.61-1.83l2.59-.31q10.47-1.19,21-1.65l3-.13c1,0,2-.06,3-.09,6.24-.2,12.46-.22,18.71-.13l3.36.06c1.2,0,2.41,0,3.62.1,5.5.15,11,.4,16.53.7l2.81.17,2.8.17c2.07.12,4.12.26,6.19.41l7.25.53,8.94.72c2,.17,4,.33,6,.52,2.47.2,4.94.41,7.39.63l8.94.79c8.54.75,17.07,1.49,25.59,2.13l2.81.21c2.42.18,4.83.34,7.26.5l4.39.27q6.71.4,13.35.66l4.44.15,4.42.11c.53,0,1.08,0,1.61.06l1.6.08c.54,0,1.08,0,1.61.1s1.26.08,1.89.15,1,.08,1.47.14l.9.09,1.62.21c3.74.49,7.5,1.17,11.24,2l2.68.65,1.59.42q4.31,1.13,8.62,2.57c.94.3,1.88.62,2.81.94l.06,0c1,.35,2,.69,3,1.07.25.08.5.18.75.28,1.19.43,2.37.89,3.55,1.36.73.27,1.44.57,2.16.86.9.36,1.8.73,2.69,1.11l3.45,1.45c1.55.69,3.12,1.38,4.67,2.09l3.25,1.51c1.1.5,2.18,1,3.27,1.54,7.26,3.48,14.58,7.26,22,11.14,2.95,1.57,5.94,3.14,8.93,4.72,3.74,2,7.49,4,11.29,5.93,1.9,1,3.8,2,5.71,3s3.83,2,5.75,2.92q4.62,2.33,9.29,4.56l3.78,1.79c1.08.51,2.18,1,3.27,1.5Q2263.44,1376.88,2267.05,1378.42Z" transform="translate(-89.85)"/><path class="cls-1" d="M2053.07,1175.71,1934.31,1140C1975.25,1098.66,2028.09,1120.52,2053.07,1175.71Z" transform="translate(-89.85)"/><path class="cls-1" d="M1944.43,851.12c-13.18,4.18-26.92,13-39.4,11.57-26.29-2.9-51.91-11.13-82.15-18.19,19.43-10,32.62-20.07,47.54-23.39,12.79-2.86,28.9-.82,41.06,4.29C1924,830.69,1933.57,842.29,1944.43,851.12Z" transform="translate(-89.85)"/><path class="cls-1" d="M2180.05,1155.41h0c-26.86,13-52.37,25.32-78.75-5a75.71,75.71,0,0,1,18-13.06l1.23-.61c.45-.21.9-.42,1.36-.61a46.45,46.45,0,0,1,4.83-1.86c.56-.18,1.11-.35,1.67-.5s1.11-.3,1.66-.44,1-.24,1.52-.35l.15,0q.81-.17,1.65-.3l1.33-.2c.76-.09,1.51-.16,2.25-.22.34,0,.68,0,1-.07l.59,0c.94,0,1.85,0,2.75,0,.45,0,.91,0,1.35.07.84.06,1.67.14,2.5.25l.71.1c.6.1,1.2.19,1.79.32.32,0,.65.12,1,.19a.54.54,0,0,0,.2,0l1,.25c1,.27,2.07.59,3.11.93l.56.2.13,0c.3.11.61.22.9.35.45.16.88.33,1.3.51s1.1.49,1.64.75,1.23.58,1.84.9,1.08.6,1.62.9c.85.49,1.69,1,2.52,1.56.28.18.56.36.83.55l1,.73c.5.36,1,.73,1.49,1.11,0,0,0,0,.06,0,.51.39,1,.79,1.51,1.21s.82.66,1.21,1,.82.7,1.22,1.07.8.74,1.18,1.11.8.76,1.18,1.15c.59.6,1.17,1.21,1.76,1.84q1.76,1.86,3.45,4C2178.92,1154,2179.49,1154.69,2180.05,1155.41Z" transform="translate(-89.85)"/><path class="cls-1" d="M2284.7,1347.87c-14.77-2.76-29.64-6.08-43.48-11.5a7,7,0,0,1-.68-.31,4.34,4.34,0,0,1-.43-.23c-.27-.16-.53-.32-.79-.5s-.66-.5-1-.78l-.53-.5c-.16-.17-.31-.32-.46-.49s-.31-.33-.46-.51c-.31-.35-.6-.71-.9-1.1s-.8-1-1.18-1.62l-.59-.87c-.21-.3-.4-.6-.59-.91-.54-.82-1.07-1.66-1.63-2.55-1.4-2.19-2.91-4.54-4.72-6.87,10.15-2.25,18.56-6.72,25.24-5.05,13.43,3.34,26.23,9.52,38.3,16.14C2292.11,1330.94,2285.54,1348,2284.7,1347.87Z" transform="translate(-89.85)"/><path class="cls-1" d="M1960.45,1174.39c-.11,2.34-.21,4.69-.3,7-19.93-3-41.37-2.83-59.13-10.32-8.85-3.75-11-21.53-15.67-31.92Z" transform="translate(-89.85)"/><path class="cls-4" d="M474.74,115.5a49.46,49.46,0,1,0-40.17,90.39c18.15,8.07,38.29,3.8,53.69-2.12A129.59,129.59,0,0,0,509,193.45a129.13,129.13,0,0,0,6.24,22.3c5.92,15.39,16.24,33.2,34.39,41.27a49.46,49.46,0,0,0,40.18-90.39c-18.16-8.07-38.29-3.79-53.69,2.13a129.69,129.69,0,0,0-20.67,10.18,129.17,129.17,0,0,0-6-22.05C503.58,141.52,493.26,123.73,474.74,115.5Zm-3.65,8.22c15.18,6.75,24.52,22.29,29.9,36.51a109.63,109.63,0,0,1,6.31,23.86A117.9,117.9,0,0,1,485,195.23c-14.28,5.5-32,9-46.75,2.44a40.46,40.46,0,1,1,32.87-73.95Zm115,51.13a40.46,40.46,0,1,1-32.86,74c-14.72-6.54-24-22.05-29.52-36.33a117.74,117.74,0,0,1-6.69-24,117.69,117.69,0,0,1,22.32-11.14C553.66,171.79,571.42,168.31,586.13,174.85Zm-13.24,18.71-5.47,12.33-12.33-5.48-3.65,8.22,12.32,5.48-5.47,12.32,8.21,3.65L572,217.76l12.33,5.48L588,215l-12.33-5.48,5.48-12.32ZM440.05,149.28l-3.65,8.22,32.87,14.61,3.65-8.22Z" transform="translate(-89.85)"/><path class="cls-4" d="M3906.22,1557.88a49.46,49.46,0,1,0-69.63-70.25c-14.1,14-17.44,34.29-17.51,50.78a129,129,0,0,0,2.08,23.06,130.13,130.13,0,0,0-23-2.29c-16.49-.07-36.84,3.08-50.94,17.06a49.46,49.46,0,0,0,69.62,70.26c14.11-14,17.44-34.3,17.52-50.79a130.93,130.93,0,0,0-2-23,128.14,128.14,0,0,0,22.74,2.39C3871.51,1575.3,3891.82,1572.15,3906.22,1557.88Zm-6.33-6.38c-11.8,11.69-29.67,14.74-44.87,14.6a109.36,109.36,0,0,1-24.53-2.8,118.35,118.35,0,0,1-2.27-24.84c.07-15.3,3.27-33.11,14.7-44.45a40.47,40.47,0,1,1,57,57.49Zm-89.42,88.61a40.46,40.46,0,0,1-57-57.48c11.44-11.34,29.28-14.37,44.58-14.31a118.68,118.68,0,0,1,24.83,2.5,118.56,118.56,0,0,1,2.27,24.85C3825.11,1611,3821.91,1628.78,3810.47,1640.11ZM3797.84,1621l-9.49-9.58,9.58-9.5-6.33-6.38L3782,1605l-9.5-9.58-6.38,6.33,9.49,9.58-9.58,9.5,6.33,6.38,9.58-9.49,9.49,9.58Zm89.51-107.69-6.33-6.39-25.55,25.32,6.33,6.39Z" transform="translate(-89.85)"/><path class="cls-5" d="M353.24,1545.12l-30.86,51.48L268,1622.07,159.1,1519.8l103.45-93.43Zm-91.46-106.25-90.16,81.43,97.57,91.6,47.09-22.06L343,1545.23Zm-11.32,128.25,12.17-11,7.64,7.86,16.59-6.73,8.37-15.81L282.92,1526l-26.76,24.18-12.36-12.44,28-25.3L261,1498.63l-42,37.91-12.66-12.17,55.69-50.3,22,27.38,31.62,39.31-16.4,30.16-31.67,13.25Z" transform="translate(-89.85)"/><path class="cls-5" d="M3870.8,543.8,3840,595.27l-54.34,25.48L3676.67,518.48,3780.12,425Zm-91.45-106.26L3689.18,519l97.58,91.6,47.09-22.06,26.72-44.61ZM3768,565.8l12.17-11,7.64,7.86,16.58-6.73,8.38-15.82-12.31-15.44-26.77,24.18-12.36-12.45,28-25.29-10.84-13.82-42,37.92-12.66-12.17,55.68-50.3,22,27.38,31.62,39.31-16.4,30.16-31.67,13.25Z" transform="translate(-89.85)"/><path class="cls-4" d="M234.3,2132.88a3.63,3.63,0,0,0,5,.19l111.38-92a3.63,3.63,0,0,0,1.05-3.9l-19.17-57.62a3.61,3.61,0,0,0-1.16-1.69l-46.81-38.67a3.66,3.66,0,0,0-4-.42l-125.93,70.7a3.64,3.64,0,0,0-1.23,5.27l80.55,117.53.19.28Zm3.37-8-76-111,120.19-67.59,44,36.59,18.24,54.24Zm5.93-30.46a3.65,3.65,0,0,0,5,.19l41.7-34.52a3.65,3.65,0,0,0,.82-4.85l-32.93-48.05,14.73-8.15,12.26,11.63,6.56,15.82-4.57,3.82a3.65,3.65,0,0,0-.76,4.94l10.05,14.67a3.69,3.69,0,0,0,2.51,1.57,3.63,3.63,0,0,0,2.85-.82l17.26-14.32a3.64,3.64,0,0,0,1.22-3.87l-11.37-36.15-.17-.44a3.44,3.44,0,0,0-1.16-1.69l-30-24a3.62,3.62,0,0,0-4.12-.36l-47.93,27a3.62,3.62,0,0,0-1.77,2.31,3.68,3.68,0,0,0,.48,2.87l35.12,51.24-8.79,7.13-36.54-53.31a3.64,3.64,0,0,0-4.79-1.14l-15.48,8.67a3.65,3.65,0,0,0-1.78,2.36,3.7,3.7,0,0,0,.56,2.91l50.65,73.9A2.63,2.63,0,0,0,243.6,2094.44Zm3.38-8-46.14-67.32,9.07-5.11,36.93,53.87a3.64,3.64,0,0,0,5.35.76l14.36-11.92a3.64,3.64,0,0,0,.73-4.78l-34.74-50.68L275,1977.47,302,1999.25l10.55,33.13-12.39,10.15-5.93-8.65,4.16-3.41a3.65,3.65,0,0,0,1.11-4.22l-8-19.12a3.65,3.65,0,0,0-.84-1.22L276,1991.84a3.65,3.65,0,0,0-4.34-.48L251,2002.85a3.66,3.66,0,0,0-1.14,5.2l33.32,48.61Z" transform="translate(-89.85)"/><path class="cls-4" d="M3694.25,988a3.65,3.65,0,0,0-4.15,2.74l-36.85,139.65a3.64,3.64,0,0,0,1.42,3.79l49.17,35.62a3.77,3.77,0,0,0,1.93.7l60.58,4.1a3.63,3.63,0,0,0,3.52-2l61.07-130.88a3.64,3.64,0,0,0-2.07-5l-134-48.5-.32-.11Zm1.91,8.45,126.47,45.78-58.22,125-57.08-4-46.45-33.42Zm12.94,28.2a3.65,3.65,0,0,0-4.14,2.75l-13.74,52.36a3.64,3.64,0,0,0,2.16,4.42l54.77,19.83-7.21,15.21-16.74-2.3-14.56-9,1.49-5.77a3.66,3.66,0,0,0-2.27-4.46l-16.72-6.05a3.64,3.64,0,0,0-4.79,2.51l-5.67,21.71a3.63,3.63,0,0,0,1.27,3.85l30.32,22.74.39.26a3.55,3.55,0,0,0,1.93.7l38.31,2a3.66,3.66,0,0,0,3.56-2.11l23.16-49.93a3.57,3.57,0,0,0,.09-2.9,3.64,3.64,0,0,0-2.06-2l-58.41-21.15,3-10.92,60.77,22a3.64,3.64,0,0,0,4.56-1.87l7.51-16.07a3.59,3.59,0,0,0,.07-3,3.69,3.69,0,0,0-2.14-2l-84.24-30.49A2.54,2.54,0,0,0,3709.1,1024.66Zm1.91,8.45,76.75,27.78-4.39,9.45L3722,1048.11a3.64,3.64,0,0,0-4.78,2.51l-4.72,18.05a3.64,3.64,0,0,0,2.2,4.31l57.77,20.91L3751.86,1138l-34.71-1.9-27.89-20.76,4.15-15.47,9.86,3.57-1.4,5.19a3.65,3.65,0,0,0,1.56,4.08l17.64,10.87a3.71,3.71,0,0,0,1.39.51l20.2,2.82a3.64,3.64,0,0,0,3.8-2.14l10-21.34a3.67,3.67,0,0,0-2.11-4.89l-55.41-20Z" transform="translate(-89.85)"/><path class="cls-4" d="M3364.51,126a8.78,8.78,0,0,0-11.77,3.69L3297.26,236a8.78,8.78,0,0,0,3.7,11.77l106.28,55.47a8.78,8.78,0,0,0,11.78-3.69l55.47-106.29a8.77,8.77,0,0,0-3.7-11.77Zm-3,5.79,106.29,55.48a2.18,2.18,0,0,1,.92,2.95l-55.47,106.28a2.17,2.17,0,0,1-2.95.92L3304,241.93a2.18,2.18,0,0,1-.93-3l55.48-106.28A2.17,2.17,0,0,1,3361.48,131.77Zm21.63,74-19,36.45c-2.92,5.59-5.79,5.92-9.47,4-3.85-2-5.27-5.8-5.41-9.84l-12,.76c-.28,7,3.05,16.35,12,21,9.92,5.18,19.47,3.45,25.51-8.14l19.95-38.21Zm36.1,18.84c-9.88-5.16-19.51-2.14-23.84,6.16-4.7,9-1.61,16,4.6,23.59l2.14,2.64c3.89,4.83,5.68,7.48,3.7,11.28-1.65,3.15-5.25,4.19-9.83,1.8-5.46-2.85-6.11-7.9-6.45-13l-11.73,1.26c-.1,8.11,3,16.33,13.3,21.69,10.51,5.49,21.18,4.11,26.38-5.84,4.82-9.24,1.67-16.12-5.64-25.06l-2.15-2.62c-3.66-4.54-5-6.95-3.3-10.27,1.4-2.68,4.54-3.66,7.78-2s4.52,4.07,4.63,8.45l11.51-1C3430,233.37,3426.24,228.28,3419.21,224.61Z" transform="translate(-89.85)"/><path class="cls-4" d="M91.23,1100.91A8.77,8.77,0,0,0,93.82,1113l100.72,65a8.78,8.78,0,0,0,12.06-2.59l65-100.72a8.78,8.78,0,0,0-2.6-12.07l-100.72-65a8.77,8.77,0,0,0-12.06,2.6Zm5.49,3.55,65-100.72a2.17,2.17,0,0,1,3-.65l100.72,65a2.17,2.17,0,0,1,.65,3l-65,100.72a2.17,2.17,0,0,1-3,.65l-100.72-65A2.17,2.17,0,0,1,96.72,1104.46Zm75.67-14.72,34.54,22.31c5.3,3.42,5.37,6.31,3.12,9.79-2.36,3.65-6.27,4.72-10.3,4.49l-.34,12c6.9.91,16.55-1.54,22-10,6.07-9.4,5.23-19.07-5.75-26.16l-36.22-23.38Zm22.09-34.21c-6,9.36-3.93,19.23,3.94,24.31,8.53,5.5,15.81,3.08,23.92-2.41l2.81-1.89c5.18-3.43,8-5,11.57-2.64,3,1.93,3.7,5.61.89,9.95-3.34,5.18-8.43,5.36-13.55,5.23l.18,11.79c8.07.85,16.54-1.51,22.83-11.25,6.43-9.95,6-20.71-3.39-26.8-8.76-5.65-15.89-3.15-25.47,3.3l-2.81,1.9c-4.86,3.24-7.38,4.37-10.53,2.34-2.54-1.64-3.23-4.85-1.25-7.92s4.47-4.12,8.85-3.84l0-11.55C204.19,1045.57,198.78,1048.87,194.48,1055.53Z" transform="translate(-89.85)"/><path class="cls-4" d="M3761.25,1999.57a68,68,0,1,0-17.94,122.06l18.91,12.36,5.46,26.06a4,4,0,0,0,1.73,2.53l6.7,4.37,4.37-6.69-5.31-3.47-5.46-26.06a4,4,0,0,0-1.73-2.53l-15.41-10.07a67.87,67.87,0,0,0,11.55-6.79l15.74,10.28,3.14,15a4,4,0,0,0,1.73,2.53l6.69,4.38,4.38-6.7-5.31-3.47-3.14-15a4,4,0,0,0-1.73-2.53l-15-9.83a68.08,68.08,0,0,0,8-9.08l30.31,19.81,4.37-6.7-30.3-19.8a67.84,67.84,0,0,0,5.07-11l15.06,9.83a3.94,3.94,0,0,0,3,.57l15-3.14,5.31,3.47,4.38-6.7-6.7-4.37a4,4,0,0,0-3-.57l-15,3.14-15.74-10.28a68.31,68.31,0,0,0,1.57-13.31l15.42,10.08a4,4,0,0,0,3,.56l26.06-5.46,5.31,3.47,4.37-6.7-6.69-4.37a4,4,0,0,0-3-.57l-26.06,5.46L3791.45,2048A67.81,67.81,0,0,0,3761.25,1999.57Zm-87.42,24.1c3.89-6,16.15-7,32.06-2.26a98.7,98.7,0,0,1-21.26,32.53C3673.87,2041.3,3669.94,2029.62,3673.83,2023.67Zm29.76,19.45a106.18,106.18,0,0,0,9.84-19.07,128.39,128.39,0,0,1,20.36,10.23l-26.16,40a127.43,127.43,0,0,1-17.55-14.53,107,107,0,0,0,13.51-16.67Zm41.27-11.15,15.25-23.35a59.69,59.69,0,0,1,20.25,27.4,103.48,103.48,0,0,0-16.48,11.72A135.52,135.52,0,0,0,3744.86,2032Zm13.17,21.22a107,107,0,0,0-23.35,35.74,127.57,127.57,0,0,1-20.35-10.24l26.15-40A127.43,127.43,0,0,1,3758,2053.19Zm-19.87-25.6a135.26,135.26,0,0,0-22.08-11.08,104.09,104.09,0,0,0,4.11-19.8,59.59,59.59,0,0,1,33.23,7.54l-15.26,23.34ZM3703.25,2081,3688,2104.36a59.64,59.64,0,0,1-20.25-27.4,104.07,104.07,0,0,0,16.48-11.71A136.17,136.17,0,0,0,3703.25,2081Zm6.7,4.38a136.15,136.15,0,0,0,22.08,11.09,103.77,103.77,0,0,0-4.11,19.8,59.67,59.67,0,0,1-33.23-7.54Zm29.64,13.7c8.51,2.58,16.38,3.71,23.07,3.31a59.9,59.9,0,0,1-26.58,12.83,94.72,94.72,0,0,1,3.51-16.14Zm2.63-7.52a98.7,98.7,0,0,1,21.26-32.53c10.76,12.64,14.69,24.32,10.8,30.27s-16.16,7-32.06,2.26Zm27.08-38a96.76,96.76,0,0,1,13.38-9.71,60.06,60.06,0,0,1-1.08,29.51c-2.32-6.28-6.51-13-12.3-19.8ZM3712,1997.75a95.71,95.71,0,0,1-3.52,16.14c-8.51-2.58-16.38-3.71-23.07-3.31A60,60,0,0,1,3712,1997.75Zm-45.53,41.82c2.31,6.29,6.51,13,12.3,19.8a95.94,95.94,0,0,1-13.38,9.71A60.06,60.06,0,0,1,3666.51,2039.57Z" transform="translate(-89.85)"/><path class="cls-4" d="M3848.45,2070.87l4.37-6.69,6.7,4.37-4.38,6.7Z" transform="translate(-89.85)"/><path class="cls-4" d="M3833.13,2094.31l4.38-6.69,6.69,4.37-4.37,6.7Z" transform="translate(-89.85)"/><path class="cls-4" d="M3782.81,2171.33l4.37-6.7,6.7,4.38-4.38,6.7Z" transform="translate(-89.85)"/><path class="cls-4" d="M3798.12,2147.89l4.38-6.7,6.69,4.38-4.37,6.7Z" transform="translate(-89.85)"/><path class="cls-4" d="M3815.63,2121.1l4.37-6.69,6.7,4.37-4.38,6.7Z" transform="translate(-89.85)"/><path class="cls-4" d="M3650.33,2025.21l7.83-1.64a12,12,0,0,1,9.28-14.21l-1.64-7.83A20,20,0,0,0,3650.33,2025.21Z" transform="translate(-89.85)"/><path class="cls-4" d="M3662.64,1984.44a37.83,37.83,0,0,0-29.24,44.74l7.83-1.65a29.83,29.83,0,0,1,23.05-35.27Z" transform="translate(-89.85)"/><path class="cls-4" d="M3660.85,1975.57l-1.64-7.83a55,55,0,0,0-42.48,65l7.83-1.64A47,47,0,0,1,3660.85,1975.57Z" transform="translate(-89.85)"/><path class="cls-4" d="M3669.1,2114.75a20,20,0,0,0,23.67,15.46l-1.64-7.82a12,12,0,0,1-14.2-9.29Z" transform="translate(-89.85)"/><path class="cls-4" d="M3652,2117.91a37.84,37.84,0,0,0,44.74,29.23l-1.64-7.83a29.83,29.83,0,0,1-35.27-23Z" transform="translate(-89.85)"/><path class="cls-4" d="M3643.13,2119.69l-7.83,1.64a55,55,0,0,0,65,42.48l-1.64-7.83a47,47,0,0,1-55.54-36.29Z" transform="translate(-89.85)"/><path class="cls-4" d="M3757,1990.6a12,12,0,0,1,14.2,9.28l7.83-1.64a20,20,0,0,0-23.67-15.47Z" transform="translate(-89.85)"/><path class="cls-4" d="M3751.37,1965.84l1.64,7.83a29.82,29.82,0,0,1,35.27,23l7.83-1.64A37.84,37.84,0,0,0,3751.37,1965.84Z" transform="translate(-89.85)"/><path class="cls-4" d="M3747.8,1949.17l1.64,7.83a47,47,0,0,1,55.54,36.29l7.83-1.64a55,55,0,0,0-65-42.48Z" transform="translate(-89.85)"/><path class="cls-4" d="M290.68,548.29a68,68,0,1,0-17.94,122.07l18.91,12.36,5.47,26.06a3.93,3.93,0,0,0,1.72,2.52l6.7,4.38,4.38-6.7-5.31-3.47-5.47-26.06a3.93,3.93,0,0,0-1.72-2.52L282,666.85a67.82,67.82,0,0,0,11.55-6.78l15.74,10.28,3.14,15a4,4,0,0,0,1.73,2.53l6.7,4.37,4.37-6.7-5.31-3.47-3.14-15a4,4,0,0,0-1.73-2.53L300,654.72a67.37,67.37,0,0,0,8.05-9.07l30.31,19.8,4.38-6.69L312.43,639a68.65,68.65,0,0,0,5.08-11l15.05,9.83a4,4,0,0,0,3,.57l15-3.15,5.31,3.47,4.38-6.69-6.7-4.38a4,4,0,0,0-3-.56l-15,3.14-15.74-10.29a67.36,67.36,0,0,0,1.57-13.3l15.42,10.07a4,4,0,0,0,3,.57l26.06-5.47,5.31,3.47,4.38-6.69-6.7-4.38a4,4,0,0,0-3-.56l-26.06,5.46-18.91-12.36A67.83,67.83,0,0,0,290.68,548.29ZM203.26,572.4c3.89-6,16.16-7,32.06-2.27a98.85,98.85,0,0,1-21.26,32.54C203.3,590,199.37,578.35,203.26,572.4ZM233,591.85a107.22,107.22,0,0,0,9.85-19.07A127.89,127.89,0,0,1,263.22,583l-26.16,40a127.43,127.43,0,0,1-17.55-14.53A106.87,106.87,0,0,0,233,591.85Zm41.27-11.16,15.25-23.34a59.52,59.52,0,0,1,20.25,27.4,104.07,104.07,0,0,0-16.48,11.71A136.91,136.91,0,0,0,274.29,580.69Zm13.17,21.23a106.89,106.89,0,0,0-23.35,35.74,128,128,0,0,1-20.35-10.24l26.15-40A127.43,127.43,0,0,1,287.46,601.92Zm-19.87-25.6a135.66,135.66,0,0,0-22.07-11.09,104.85,104.85,0,0,0,4.1-19.8A59.67,59.67,0,0,1,282.85,553l-15.26,23.35Zm-34.91,53.42-15.25,23.35a59.67,59.67,0,0,1-20.25-27.41A103.43,103.43,0,0,0,213.66,614,136.1,136.1,0,0,0,232.68,629.74Zm6.7,4.38a135.26,135.26,0,0,0,22.08,11.08,104.09,104.09,0,0,0-4.11,19.8,59.56,59.56,0,0,1-33.22-7.54ZM269,647.81c8.51,2.59,16.39,3.72,23.07,3.31A60,60,0,0,1,265.51,664,95.81,95.81,0,0,1,269,647.81Zm2.63-7.51a98.7,98.7,0,0,1,21.26-32.53c10.76,12.64,14.69,24.31,10.8,30.27s-16.15,7-32.06,2.26Zm27.09-38a96,96,0,0,1,13.37-9.7,60,60,0,0,1-1.08,29.5c-2.31-6.28-6.51-13-12.29-19.8Zm-57.27-55.86A95.61,95.61,0,0,1,238,562.62c-8.51-2.58-16.38-3.71-23.07-3.31A60.06,60.06,0,0,1,241.47,546.47ZM195.94,588.3c2.32,6.28,6.51,13,12.3,19.8a95.88,95.88,0,0,1-13.38,9.7A60,60,0,0,1,195.94,588.3Z" transform="translate(-89.85)"/><path class="cls-4" d="M377.88,619.6l4.37-6.7,6.7,4.38-4.38,6.7Z" transform="translate(-89.85)"/><path class="cls-4" d="M362.56,643l4.38-6.7,6.69,4.38-4.37,6.7Z" transform="translate(-89.85)"/><path class="cls-4" d="M312.24,720.06l4.37-6.7,6.7,4.38-4.38,6.69Z" transform="translate(-89.85)"/><path class="cls-4" d="M327.55,696.62l4.38-6.7,6.7,4.38L334.25,701Z" transform="translate(-89.85)"/><path class="cls-4" d="M345.06,669.83l4.37-6.7,6.7,4.38-4.38,6.69Z" transform="translate(-89.85)"/><path class="cls-4" d="M179.76,573.93l7.83-1.64a12,12,0,0,1,9.28-14.2l-1.64-7.83A20,20,0,0,0,179.76,573.93Z" transform="translate(-89.85)"/><path class="cls-4" d="M192.07,533.16a37.83,37.83,0,0,0-29.23,44.74l7.82-1.64A29.83,29.83,0,0,1,193.71,541Z" transform="translate(-89.85)"/><path class="cls-4" d="M190.29,524.29l-1.65-7.82a55,55,0,0,0-42.47,65l7.83-1.64A47,47,0,0,1,190.29,524.29Z" transform="translate(-89.85)"/><path class="cls-4" d="M198.53,663.47a20,20,0,0,0,23.67,15.47l-1.64-7.83a12,12,0,0,1-14.2-9.28Z" transform="translate(-89.85)"/><path class="cls-4" d="M181.43,666.63a37.84,37.84,0,0,0,44.74,29.24L224.53,688a29.83,29.83,0,0,1-35.27-23Z" transform="translate(-89.85)"/><path class="cls-4" d="M172.56,668.42l-7.83,1.64a55,55,0,0,0,65,42.48l-1.64-7.83a47,47,0,0,1-55.54-36.29Z" transform="translate(-89.85)"/><path class="cls-4" d="M286.41,539.32a12,12,0,0,1,14.2,9.28l7.83-1.64a20,20,0,0,0-23.67-15.47Z" transform="translate(-89.85)"/><path class="cls-4" d="M280.8,514.56l1.64,7.83a29.83,29.83,0,0,1,35.27,23.05l7.83-1.64A37.84,37.84,0,0,0,280.8,514.56Z" transform="translate(-89.85)"/><path class="cls-4" d="M277.23,497.9l1.64,7.83A47,47,0,0,1,334.41,542l7.83-1.65a55,55,0,0,0-65-42.47Z" transform="translate(-89.85)"/></svg>