<?xml version="1.0" encoding="utf-8"?>
<!-- Generator: Adobe Illustrator 24.0.1, SVG Export Plug-In . SVG Version: 6.00 Build 0)  -->
<svg version="1.1" id="Layer_1" xmlns="http://www.w3.org/2000/svg" xmlns:xlink="http://www.w3.org/1999/xlink" x="0px" y="0px"
	 viewBox="0 0 323 86" style="enable-background:new 0 0 323 86;" xml:space="preserve">
<style type="text/css">
	.st0{fill:#FFBA00;}
	.st1{fill:#F2F2F2;}
	.st2{font-family:'PatuaOne-Regular';}
	.st3{font-size:49.8019px;}
	.st4{font-size:44.4621px;}
	.st5{fill:#035949;}
</style>
<rect x="0.2" class="st0" width="322.8" height="86"/>
<text transform="matrix(1.3256 0 0 1 0.1768 41.8574)" class="st1 st2 st3">MARIUS</text>
<text transform="matrix(1.3256 0 0 1 0.1768 79.4575)" class="st1 st2 st4">theBrand</text>
<g>
	<g>
		<path class="st5" d="M273.5,17.2c0-1.6-1.4-2-2.2-2.9l1.3-0.5l0.8,1c0.6-0.2,1-0.1,1.2,0.7c0.1,0.3,0.4,0.6,0.5,0.9L273.5,17.2z"
			/>
		<path class="st5" d="M267.6,44.4c-0.5-0.6-1.1-0.9-1.2-1.4c-0.2-0.6,0.5-0.6,0.9-0.7c0.6,0,1.2,0.6,1.1,1.1
			C268.4,43.7,268,43.9,267.6,44.4z"/>
		<path class="st5" d="M292.9,43.8c-0.1,0.3-0.1,0.7-0.3,1c-0.3,0.3-0.7,0.6-1.1,0.6c-0.5,0-0.7-0.5-0.5-0.9
			c0.2-0.3,0.5-0.6,0.8-0.9l0.5,0.6c0.1-0.1,0.2-0.2,0.2-0.3L292.9,43.8z"/>
		<path class="st5" d="M302.3,48.6c-0.6-0.9-0.6-0.9-1.8-0.3l0.6-0.9l-0.3-1.1l0.4-0.1c0.1,0.2,0.3,0.5,0.3,0.7
			c-0.1,0.7,0.3,0.7,0.8,0.5V48.6L302.3,48.6z"/>
		<path class="st5" d="M256.4,35.7c-0.4-0.3-1.2-0.5-0.9-1.1c0.4-0.8,1,0,1.6,0L256.4,35.7z"/>
		<path class="st5" d="M301.3,36.4l0.6-0.6c0.2,0.2,0.5,0.4,0.5,0.6c0,0.3-0.3,0.6-0.5,0.8L301.3,36.4z"/>
		<path class="st5" d="M267,38.7c-0.2,0.7-0.3,1.2-0.4,1.7C266,39.9,266.1,39.3,267,38.7z"/>
		<path class="st5" d="M275.9,16.1l0.6,0.9c-0.2,0.1-0.5,0.3-0.7,0.2C275.4,17,275.5,16.6,275.9,16.1z"/>
		<path class="st5" d="M267.2,18.9c0-0.4,0.1-0.7,0.1-1.2l1.1,1.4L267.2,18.9z"/>
		<path class="st5" d="M303.7,34.4l-0.3-0.9c-0.6,0.3-0.8,0-0.9-0.6C303.4,33,304,33.3,303.7,34.4z"/>
		<path class="st5" d="M322.8,79.1c-1.3-3.3-2.4-6.7-3.9-9.9c-1.4-3-3-6-5.8-8.2c-0.1-0.1-0.2-0.2-0.3-0.3c-0.4-0.7-1-1-1.8-1.2
			c-4.8-1.3-9.4-3-13.9-5.1c-0.5-0.2-0.9-0.5-1.3-0.9c-0.6-0.6-1.1-1.2-1.5-1.7c0.2-0.1,0.7-0.2,0.7-0.4c0.4-1.1,1.2-0.8,2-0.7
			c0.3,0,0.6-0.1,0.8-0.3c0.4-0.5,0.8-1.1,1.2-1.6c0.6,0.2,1.5,0,1.5-0.5s-0.4-1.1-0.6-1.6l0.2-0.1c0.3,0.3,0.6,0.5,0.9,0.8
			c0.1,0.1,0.3,0.3,0.4,0.2c0.6-0.3,1.3-0.6,1.8-0.9c0.2-0.1,0.1-0.6,0.2-0.9c0.1-0.3,0.2-0.5,0.3-0.8c0.5,0.1,0.8,0.1,1.1,0.1
			c0.2,0,0.3,0.1,0.4,0.2c0.4,0.5,0.7,0.4,1,0c0.2-0.2,0.3-0.5,0.5-0.7c0.8,0.5,0.8,0.5,0.6,1.4c0.2-0.7,0.5-1.3,0.8-2.1l0.6,0.9
			c0.2-0.4,0.3-0.6,0.4-0.8l0.9,0.6c0-0.6,0-1.2,0-1.7c0-1.3,0-1.3,0.3-1.4c0.1,0.3,0.1,0.5,0.3,1.1c0.2-0.4,0.4-0.7,0.4-0.8
			c-0.3-0.4-0.6-0.8-0.9-1.2c-0.8,0.4-0.8,0.3-1-0.5c-0.1-0.2-0.3-0.4-0.5-0.6c-0.3-0.2-0.7-0.4-1-0.7c-0.3-0.4-0.7-0.8-0.9-1.2
			c-0.1-0.2-0.3-0.5-0.2-0.7c0.1-0.3,0.4-0.5,0.6-0.8l0.3,0.4c0.3-0.1,0.5-0.3,0.8-0.4c1.1-0.8,2-2.8,1.4-2.9l-0.2,0.5h-0.2
			c0.4-0.9,0-1.4-0.6-2c-0.6-0.6-0.4-1.6,0.4-2.1v1.1l0.9-0.7c-1.6-1.5-3.1-2.8-5.2-3.4c0.6-0.6,1.7,0.2,2.2-0.7l-1.5-0.2
			c0-0.8-0.6-0.8-1.4-0.7c-0.3-1.2-0.6-2.3-0.9-3.7c-0.6-0.5-1.4-0.7-2.1-0.3c-0.1,0-0.3,0-0.4-0.1c-0.4-0.5-0.9-1.1-1.2-1.7
			c-0.2-0.5-0.1-1.1-0.4-1.6c-0.6-1.1-0.3-2,0.4-3c0.3-0.5,0.5-1.1,0.7-1.7c0-0.1-0.1-0.3-0.2-0.4c-0.1,0-0.3,0-0.4,0.1
			c-0.4,0.6-0.8,1.1-1,1.8c-0.2,0.6-0.5,0.7-1.1,0.5c-0.7-0.2-1.4-0.8-2.2-0.1c-0.4,0.4-1.1-0.1-1-0.7c0.1-1.2-0.6-1.9-1.6-2.3
			c-0.4-0.2-0.9-0.3-1.2-0.5c-0.5-0.4-1-0.8-1.5-1.2c-0.3-0.3-0.4-0.6-0.5-0.9c-0.1-0.6-0.4-0.8-1-0.7c-0.3,0-0.6,0-0.9,0.1
			c-0.3,0-0.6,0.1-0.8,0.1c0.1,0.2,0.1,0.5,0.2,0.7c0,0.1,0,0.2,0.1,0.3c-0.4-0.1-0.7-0.4-1.1-0.4c-0.3,0-0.8,0.1-0.9,0.3
			c-0.5,0.9-0.6,1-1.9,0.5l0.6-0.4h-1.6c0.1,1,0.1,1-0.4,1c0-0.8-0.3-1.4-1-1.3c-0.7,0.1-0.9-0.2-1.3-0.7c-0.2-0.3-0.8-0.4-1.3-0.7
			c0,0.4,0,0.6,0.1,0.6l-1.7-0.5c-0.4-0.6-0.5-0.6-1.3,0.2l1.7,0.6l-0.1,0.3c-0.6-0.1-1.2-0.3-1.7-0.4c-0.4-0.1-0.8-0.4-1.2-0.4
			c-0.7,0-0.7-0.3-0.5-0.7c0.1-0.1,0.2-0.3,0.3-0.5c-1.1,0-2.1-0.9-3.3-0.4l2.3,0.8c0.1,0.2,0.2,0.4,0.3,0.7
			c0.1,0.3,0.2,0.5,0.3,0.8c1.2,0,1.3,0,1.7,1.2c0.1,0.3-0.2,0.7-0.3,1.1c-0.2-0.1-0.3-0.3-0.4-0.5c-0.4-0.6-0.7-1.2-1.7-0.8
			c-0.5,0.2-1.4-0.1-2-0.4c-0.6-0.3-1.4-0.5-1.6-1.4c0-0.1-0.3-0.2-0.5-0.3c-0.5,0.5-0.5,1.6,0,2.1c0.7,0.8,1.5,1.6,2.2,2.3
			c-0.2,0.1-0.4,0.1-0.6,0.2c-0.2,0.1-0.3,0.3-0.4,0.4c-0.5-0.1-1-0.3-1.2-0.1c-0.8,0.5-0.9,1.3-0.5,2.2c-0.1,0-0.2,0-0.2,0
			c-1.4,0.1-1.6,0.4-1.5,1.7c0,0.3-0.1,0.5-0.2,0.8l-1.1-0.4l-0.1,0.2l1,0.8c0.4-0.3,0.7-0.8,1.1-0.9c0.4-0.2,1,0,1.3,0
			c0.1,0.5,0.3,0.8,0.3,1.1c0,0.3-0.1,0.5-0.3,0.7c-0.1,0.2-0.4,0.2-0.5,0.4c-0.4,0.8-1.1,0.7-1.9,0.7c-1,0.1-2.1-0.1-2.8,0.9
			l-0.8-0.6l-0.6,0.8c0.3,0.1,0.7,0.2,1,0.2c0.3,0.1,0.8,0.3,1-0.3c0.1-0.4,0.3-0.4,0.6-0.1c0.3,0.4,0.6,0.6,0.9,0
			c0.1-0.1,0.6-0.2,0.7-0.1c0.2,0.1,0.2,0.5,0.4,0.7c0.1,0.1,0.3,0.2,0.5,0.3l0.1-0.2c0.2,0.3,0.3,0.7,0.6,1.1c-1,0.1-2.1-0.2-2.2,1
			c-0.5,0.3-0.8,0.7-1.2,0.7c-1.2,0-1.8,0.9-2.7,1.4c-0.8,0.3-1,1.1-0.6,1.8c0.1,0.3,0.1,0.6-0.1,0.8c-0.6,0.7-1.9,0.8-2,2
			c0,0.1-0.3,0-0.5,0.1c-0.3,0.2-0.5,0.5-0.7,0.7l0.1,0.1l1.8-1l0.1,0.1l-0.5,0.8c0.1,0,0.3,0,0.4,0.1c0.6,0.4,1.2,0.7,1.8,1.1
			c0.1,0.1,0.2,0.3,0.2,0.4c-0.4,0.6-0.9,1.1-1.5,1.6c-0.2,0.2-0.6,0.1-0.9,0.1c-0.4,0.1-0.8,0.1-1.1,0.2c-0.2,0.1-0.2,0.5-0.2,0.7
			s0.3,0.5,0.3,0.5c1-0.4,1.3,0.7,2.1,0.9l-1.6,1.1c0.1,0.3,0.4,0.6,0.4,0.9c0.2,0.8,0.3,1.7,0.4,2.5c0.1,0.6,0.7,0.9,1.3,0.8
			c0.2,0,0.3-0.1,0.5-0.2c0.2-0.2,0.4-0.4,0.5-0.6c0.4,0.7,1,1,1.9,0.5c0.7-0.3,0.9,0,1,0.5c0.1,0.4-0.1,0.7-0.1,1l-1.1,0.2
			c0.5,0.3,1.1,0.6,1.7,0.8c1.3,0.4,1.4,1.5,1.5,2.5c0.1,0.7,0.6,1.4-0.1,2.1c-0.7,0.7-0.2,1.7-0.6,2.5c-0.1,0.1,0.3,0.6,0.5,0.7
			c0.3,0.1,0.9,0.2,1,0c0.2-0.2,0.1-0.7,0.1-1.1c0-0.2-0.2-0.5-0.1-0.5c0.2-0.1,0.4-0.2,0.7-0.2c0.2,0,0.6,0.3,0.6,0.4
			c0,0.8,0.5,1.1,1.1,1.4c0.8,0.4,1.6,0.7,2.6,1.2c-1.3,0.9-2.5,1.9-3.8,2.5c-3.6,1.7-7.2,3.4-10.9,4.9c-1.4,0.5-2.2,1.3-3.1,2.3
			c-2.6,3.1-4.2,6.5-5.3,10.3c-0.5,2-1.3,3.9-2,5.8h76.1C322.8,79.3,322.8,79.2,322.8,79.1z M307.7,30.7l-0.3-0.9
			c-0.6,0.3-0.8,0-0.9-0.6C307.4,29.3,308,29.6,307.7,30.7z M305.9,32.1c0.2,0.2,0.5,0.4,0.5,0.6c0,0.3-0.3,0.6-0.5,0.8l-0.6-0.8
			L305.9,32.1z M305.1,43.6c-0.1-0.4-0.2-0.8-0.3-1.1l0.4-0.1c0.1,0.2,0.3,0.5,0.3,0.7c0,0.7,0.3,0.7,0.8,0.5v1.2
			c-0.6-0.9-0.6-0.9-1.8-0.3L305.1,43.6z M260.5,32c-0.4-0.3-1.2-0.5-0.9-1.1c0.4-0.8,1,0,1.6,0L260.5,32z M271.3,14l1.1,1.4
			l-1.2-0.2C271.2,14.8,271.3,14.5,271.3,14z M271.1,35c-0.2,0.7-0.3,1.2-0.4,1.7C270,36.2,270.1,35.6,271.1,35L271.1,35z
			 M272.5,39.7c-0.1,0.3-0.4,0.5-0.9,1c-0.5-0.6-1.1-0.9-1.2-1.4c-0.2-0.6,0.5-0.6,0.9-0.7C271.9,38.6,272.6,39.2,272.5,39.7
			L272.5,39.7z M296,39.7l0.5,0.6c0.1-0.1,0.2-0.2,0.2-0.3l0.2,0.1c-0.1,0.3-0.1,0.7-0.3,1c-0.3,0.3-0.7,0.6-1.1,0.6
			c-0.5,0-0.7-0.5-0.5-0.9C295.3,40.3,295.6,40.1,296,39.7L296,39.7L296,39.7z M280,12.4l0.6,0.9c-0.2,0.1-0.5,0.3-0.7,0.2
			C279.4,13.3,279.5,12.9,280,12.4z M276.7,10l0.8,1c0.6-0.2,1-0.1,1.2,0.7c0.1,0.3,0.4,0.6,0.5,0.9l-1.7,0.9c0-1.6-1.4-2-2.2-2.9
			L276.7,10z M292.4,49.8c-0.2,0.7-0.6,1.4-1.3,1.9c-2.7,1.8-5.6,3.1-8.8,3.1c-2.4-0.1-4.9-0.5-7.1-1.7c-0.7-0.4-1.2-0.9-1-1.8
			c0.1-0.2,0-0.4-0.1-0.6c-0.9-1.3-0.4-2.8-0.4-4.2c0-0.3,0.5-0.7,0.8-1c0.1-0.1,0.6,0.2,0.8,0.5c0.6,0.8,1.2,1.8,1.9,2.6
			c0.7,0.8,1.4,1.5,2.2,2.2c0.2,0.2,0.7,0.1,1.1,0.1c-0.1-0.4-0.2-0.8-0.1-0.9c0.3-0.2,0.6-0.3,0.9-0.3c0.7,0,1.4,0,2,0.1
			c1.1,0.2,2.3,0.4,3.4,0.6c0.6,0.1,1.1,0.2,1.6-0.1c1.2-0.9,2.4-1.8,3.1-3.1c0.2-0.4,0.5-0.7,0.7-1v1.3l0.5-0.7
			C292.5,47.7,292.6,48.8,292.4,49.8z M290.9,45.5l-0.2-0.6c-0.1,0.1-0.2,0.1-0.2,0.2c-0.4,0.5-1,0.8-1.6,1.1
			c-1.3,0.5-2.7,0.3-4,0.4c-0.6,0.1-1.2-0.1-1.8-0.2c-0.1,0-0.2-0.1-0.3-0.1c-1.7,0.2-2.5-1-3.5-1.9c-0.3-0.3-0.4-0.7-0.6-1.2
			L278,43c0,0.5-0.1,1.1-0.1,1.7c-1-0.5-1.6-1.2-1.8-2.2l-0.2,0.2c-0.3-0.2-0.6-0.4-0.8-0.7c-1.4-1.8-1.3-3.8-0.9-5.8
			c0.1-0.7-0.2-1.4,0-2.1c0.3-1.4,0.8-2.5,2.6-2.8c1-0.1,2-0.4,3.1-0.6l-1.2-0.5l0.1-0.4l4.2,0.3c0,0.1,0,0.3,0,0.4l-1.2,0.2
			c0,0.1,0,0.1,0,0.2l1.8,0.3c-0.2,0.4-0.3,0.8-0.5,1.1c0.9,0.2,1.6-0.5,1.8-1.8l-0.6-0.1l0.6-1.3l-0.2-0.2l-1.1,0.5
			c-0.6-1-1.1-2.1-2.6-1.7c-1.2,0.2-2.3,0.5-3.3,1.4c0-0.1-0.1-0.2-0.1-0.3c-0.5-0.6-0.5-1.1,0.2-1.6c0.5-0.4,1-0.7,1.5-1.1
			c-0.9-0.6-1.1,0.6-2,0.5l0.9-1.1l-0.2-0.2c-0.4,0.3-0.9,0.4-1.1,0.8c-0.6,0.9-1.1,1.9-1.7,2.8c-0.2,0.4-0.7,0.6-1,0.9l-0.2-0.1
			c0.4-0.8,0.7-1.6,1.1-2.3c0.3-0.5,0.7-0.9,1.1-1.4c0.2-0.2,0.2-0.5,0.3-0.8c0.2-0.7,0.3-1.5,0.6-2.1c0.2-0.4,0.7-0.8,1.1-1.1
			c0.7-0.5,1.5-1,2.3-1.4c0.3-0.2,0.7-0.2,1-0.3c1.5-0.1,3.1-0.3,4.6-0.4c0.6,0,1.2,0.2,1.8,0.3c0.6,0.1,1.3,0.3,1.9,0.5
			c0.2,0.1,0.5,0.1,0.7,0.2c0.9,1,1.8,2.1,2.7,3.2l0.1,0.1c0.5,1.8,1.1,3.6,1.6,5.3c0,0.2,0,0.3-0.1,0.5h-0.2
			c-0.4-1-0.8-2.1-1.2-3.1l-0.7,0.8c0.3,0.4,0.8,0.7,1,1.2c0.4,0.8,0.6,1.7,0.9,2.8c-0.5-0.2-1-0.3-1.1-0.6
			c-0.8-1.6-1.8-2.7-3.8-2.6l2.7-1.6h-2.3c-0.1,0-0.3,0-0.4,0c-0.3,0-0.7,0.1-1,0.1c0.1,0.3,0.2,0.7,0.3,1.2l-2.2,1.3
			c0.2,0.5,0.4,1,0.6,1.6c0.1,0.2,0.4,0.2,0.6,0.3c0-0.2,0-0.4,0-0.6c0-0.1,0-0.2,0-0.4l1.4,0.6l-0.5-1.2c0.2-0.1,0.6-0.3,0.8-0.2
			c0.2,0.1,0.3,0.5,0.6,0.8c1.8,0.3,3.2,1.6,4.8,2.6c0-0.2,0.1-0.4,0.2-0.7c0.1,0.4,0.1,0.7,0.2,1c0.3,1.3,0.3,2.5-0.6,3.6
			c-0.1,0.1-0.2,0.4-0.1,0.6c0.7,1.4-0.1,2.6-0.4,3.8c-0.2,0.9-0.7,1.7-1.1,2.5C293,44.4,292.4,44.8,290.9,45.5L290.9,45.5z"/>
		<path class="st5" d="M310.6,32.7l0.7-0.4v-0.1h-0.7c-0.5-0.6,0.7-1.6-0.5-2C309.8,31.2,309.4,32.2,310.6,32.7z"/>
		<path class="st5" d="M257.7,33.1c0.8,0,0.4-0.7,0.6-1l-1.1-0.4C257.2,32.4,256.9,33.1,257.7,33.1z"/>
		<path class="st5" d="M281.8,38.6c-0.6,0.2-0.8-0.1-0.7-0.7c0-0.2,0-0.5-0.1-0.6c-0.2-0.1-0.6-0.2-0.8-0.1
			c-0.2,0.1-0.5,0.5-0.5,0.7c0.1,0.3,0.5,0.5,0.6,0.6c-0.1,0.3-0.4,0.7-0.3,0.8c0.8,0.9,1.6,1.7,2.9,1.8c0.2,0,0.6-0.2,0.6-0.3
			c-0.1-0.7,0.4-0.8,0.9-1.1l-3.1-0.2c0.1-0.2,0.1-0.4,0.2-0.4c0.8-0.2,1.6-0.3,2.4-0.4c0.8-0.1,1.7,0.1,2.5,0.1s1.6,0,2.2,0.7
			c0.1,0.1,0.2,0.3,0.1,0.4c-0.1,0.1-0.3,0.2-0.5,0.2c-0.3,0-0.5,0-0.8,0l0.4,1.4c0.7,0.1,0.8,0,2.7-1.8c-1.2-0.5-2.2-1.4-3.3-1.4
			C285.5,38.4,283.6,37.9,281.8,38.6z"/>
		<path class="st5" d="M282.9,34.1c1,0.3,1.9,0.6,2.8,0.9C285.1,33.6,283.8,33.1,282.9,34.1z"/>
		<path class="st5" d="M281.4,26.4c-0.3,0.1-0.7,0.3-1.1,0.6c0.7,0.2,1.3,0.4,1.9,0.4c0.3,0,0.6-0.2,0.9-0.3
			c-0.3-0.2-0.5-0.5-0.8-0.6S281.7,26.3,281.4,26.4z"/>
		<path class="st5" d="M288.6,34.4c-0.5-0.7-1.2-0.7-1.8-0.1C287.4,35,288,34.7,288.6,34.4z"/>
		<path class="st5" d="M290.3,38.2c-0.2,0-0.4,0.1-0.6,0.1c0.1,0.2,0.2,0.4,0.3,0.4c0.3,0.1,0.7,0.2,1,0.3c0.1-0.1,0.1-0.3,0.1-0.4
			C290.9,38.5,290.6,38.3,290.3,38.2z"/>
		<path class="st5" d="M282.1,34.8c0.4,0.2,0.9,0.2,1.4,0.2c0-0.1,0-0.1,0-0.2l-1.8-0.8C281.8,34.3,281.9,34.7,282.1,34.8z"/>
	</g>
</g>
</svg>
